<?xml version="1.0" encoding="UTF-8"?>
<svg xmlns="http://www.w3.org/2000/svg" viewBox="0 0 2380.000000 1406.000000" width="2380.000000pt" height="1406.000000pt">
  <title>FluidAlp Logo</title>
  <!-- teal_light -->
  <g fill="#7ec8c8" fill-rule="evenodd">
    <path d="M7355 6609 c-4 -5 -11 -7 -16 -4 -5 4 -15 3 -21 -2 -7 -4 -19 -8 -26 -9 -27 -4 -100 -55 -135 -93 -39 -43 -82 -119 -73 -129 3 -3 1 -11 -5 -18 -6 -8 -9 -20 -6 -29 4 -8 3 -17 -2 -19 -11 -7 -7 -62 5 -58 5 1 9 14 10 30 0 15 4 34 8 43 4 9 6 20 4 25 -4 17 39 100 72 138 30 34 129 99 155 102 5 0 12 2 15 3 13 6 167 2 185 -4 52 -18 117 -50 131 -66 9 -10 21 -16 26 -13 25 16 -127 112 -158 100 -7 -3 -16 -1 -19 4 -7 12 -143 11 -150 -1z M7697 6494 c-3 -3 8 -24 24 -47 16 -22 29 -44 29 -48 0 -4 5 -20 11 -36 6 -15 12 -53 13 -83 0 -30 6 -57 11 -60 12 -6 20 85 9 109 -4 9 -8 26 -10 37 -6 49 -71 144 -87 128z M3250 6469 c-7 -11 -9 -27 -6 -34 3 -8 0 -17 -5 -21 -6 -3 -9 -15 -6 -25 3 -10 1 -22 -4 -25 -6 -3 -9 -13 -8 -22 1 -10 -1 -25 -6 -35 -4 -10 -5 -21 -1 -24 3 -3 1 -12 -4 -19 -6 -6 -12 -27 -14 -45 -2 -19 -7 -42 -11 -52 -4 -10 -5 -21 -1 -24 3 -3 1 -12 -5 -19 -6 -8 -9 -20 -6 -29 4 -8 1 -17 -4 -21 -6 -3 -9 -15 -6 -25 3 -10 1 -22 -5 -25 -5 -3 -7 -12 -4 -20 3 -7 0 -16 -5 -20 -6 -3 -9 -15 -6 -25 3 -10 1 -22 -4 -25 -6 -3 -9 -13 -8 -22 1 -10 -1 -25 -6 -35 -4 -10 -5 -21 -1 -24 3 -3 1 -12 -4 -19 -6 -6 -12 -27 -14 -45 -2 -19 -7 -42 -11 -52 -4 -10 -5 -21 -1 -24 3 -3 1 -12 -5 -19 -6 -8 -9 -20 -6 -29 4 -8 1 -17 -4 -21 -6 -3 -9 -15 -6 -25 3 -10 1 -22 -5 -25 -5 -3 -7 -12 -4 -20 3 -7 0 -16 -5 -20 -6 -3 -9 -15 -6 -25 3 -10 1 -22 -5 -25 -5 -3 -8 -15 -5 -25 3 -10 1 -22 -5 -25 -5 -3 -8 -15 -5 -25 3 -10 1 -22 -5 -25 -5 -3 -7 -12 -4 -20 3 -7 0 -16 -5 -20 -6 -3 -9 -15 -6 -25 3 -10 1 -22 -5 -25 -5 -3 -8 -15 -5 -25 3 -10 1 -22 -5 -25 -5 -3 -8 -15 -5 -25 3 -10 1 -22 -5 -25 -5 -3 -8 -15 -5 -25 3 -10 1 -22 -5 -25 -5 -3 -7 -12 -4 -20 3 -7 0 -16 -5 -20 -6 -3 -9 -15 -6 -25 3 -10 1 -22 -5 -25 -5 -3 -8 -15 -5 -25 3 -10 1 -22 -5 -25 -5 -3 -8 -15 -5 -25 3 -10 1 -22 -5 -25 -5 -3 -7 -12 -4 -20 3 -7 0 -16 -5 -20 -6 -3 -9 -15 -6 -25 3 -10 1 -22 -4 -25 -6 -3 -9 -13 -8 -22 1 -10 -1 -25 -6 -35 -4 -10 -5 -21 -1 -24 3 -3 1 -12 -4 -19 -6 -6 -12 -27 -14 -45 -2 -19 -7 -42 -11 -52 -4 -10 -5 -21 -1 -24 3 -3 1 -12 -5 -19 -6 -8 -9 -20 -6 -28 3 -7 1 -18 -5 -24 -12 -12 -1 -35 13 -26 6 3 8 12 5 20 -3 7 -1 16 5 20 5 3 9 13 8 22 -1 10 1 25 6 35 4 10 5 21 1 24 -3 3 -1 12 4 19 6 6 12 27 14 45 2 19 7 42 11 52 4 10 5 21 1 24 -3 3 -1 12 5 19 6 8 9 20 6 29 -4 8 -1 17 4 21 6 3 9 15 6 25 -3 10 -1 22 5 25 5 3 7 12 4 20 -3 7 0 16 5 20 6 3 9 15 6 25 -3 10 -1 22 5 25 5 3 8 15 5 25 -3 10 -1 22 5 25 5 3 8 15 5 25 -3 10 -1 22 5 25 5 3 7 12 4 20 -3 7 0 16 5 20 6 3 9 15 6 25 -3 10 -1 22 5 25 5 3 8 15 5 25 -3 10 -1 22 5 25 5 3 8 15 5 25 -3 10 -1 22 5 25 5 3 8 15 5 25 -3 10 -1 22 5 25 5 3 7 12 4 20 -3 7 0 16 5 20 6 3 9 15 6 25 -3 10 -1 22 5 25 5 3 8 15 5 25 -3 10 -1 22 5 25 5 3 8 15 5 25 -3 10 -1 22 5 25 5 3 7 12 4 20 -3 7 0 16 5 20 6 3 9 15 6 25 -3 10 -1 22 4 25 6 3 9 13 8 22 -1 10 1 25 6 35 4 10 5 21 1 24 -3 3 -1 12 4 19 6 6 12 27 14 45 2 19 7 42 11 52 4 10 5 21 1 24 -3 3 -1 12 5 19 6 8 9 20 6 29 -4 8 -1 17 4 21 6 3 9 15 6 25 -3 10 -1 22 5 25 5 3 7 12 4 20 -3 7 0 16 5 20 6 3 9 15 6 25 -3 10 -1 22 4 25 6 3 9 13 8 22 -1 10 1 25 6 35 4 10 5 21 1 24 -3 3 -1 12 4 19 6 6 12 27 14 45 2 19 7 42 11 52 4 10 5 21 1 24 -3 3 -1 12 5 19 6 8 9 20 6 29 -4 8 -2 17 4 21 5 3 9 13 8 22 0 10 2 27 6 40 l7 22 253 0 c213 0 254 -2 258 -15 4 -8 2 -17 -4 -21 -5 -3 -9 -13 -7 -22 1 -10 0 -21 -4 -27 -12 -21 -19 -73 -9 -79 13 -8 21 7 25 46 2 18 7 40 10 49 4 9 6 20 5 25 -1 5 1 17 5 27 21 46 14 47 -273 47 -263 0 -271 -1 -281 -21z M9979 6469 c-6 -12 -9 -30 -6 -40 3 -10 1 -22 -5 -25 -5 -3 -8 -15 -5 -25 3 -10 1 -22 -5 -25 -5 -3 -8 -15 -5 -25 3 -10 1 -22 -5 -25 -5 -3 -8 -16 -7 -27 1 -12 -2 -30 -6 -40 -4 -10 -5 -21 -1 -24 3 -3 1 -12 -5 -19 -6 -8 -9 -20 -6 -29 4 -8 2 -17 -4 -21 -6 -3 -9 -16 -8 -27 1 -12 -2 -30 -6 -40 -4 -10 -5 -21 -1 -24 3 -3 1 -12 -5 -19 -6 -8 -9 -20 -6 -29 4 -8 2 -17 -4 -21 -6 -3 -9 -16 -8 -27 1 -12 -2 -30 -6 -40 -4 -10 -5 -21 -1 -24 3 -3 1 -12 -5 -19 -6 -8 -9 -20 -6 -29 4 -8 2 -17 -4 -21 -6 -3 -9 -16 -8 -27 1 -12 -2 -30 -6 -40 -4 -10 -5 -21 -1 -24 3 -3 1 -12 -5 -19 -6 -8 -9 -20 -6 -29 4 -8 2 -17 -4 -21 -6 -3 -9 -16 -8 -27 1 -12 -2 -30 -6 -40 -4 -10 -5 -21 -1 -24 3 -3 1 -12 -5 -19 -6 -8 -9 -20 -6 -29 4 -8 2 -17 -3 -20 -6 -4 -10 -17 -10 -31 0 -28 -7 -30 -35 -10 -27 18 -143 67 -169 71 -12 1 -34 8 -50 14 -16 7 -35 10 -42 7 -6 -2 -16 0 -22 6 -13 13 -46 2 -37 -12 4 -6 14 -10 23 -9 10 1 24 -1 33 -5 9 -4 27 -8 40 -10 13 -2 33 -7 44 -11 123 -47 155 -61 185 -81 40 -28 50 -21 55 32 1 22 6 47 10 57 4 10 5 21 1 24 -3 3 -1 12 5 19 6 8 9 20 6 29 -4 8 -2 17 4 21 6 3 9 16 8 27 -1 12 2 30 6 40 4 10 5 21 1 24 -3 3 -1 12 5 19 6 8 9 20 6 29 -4 8 -2 17 4 21 6 3 9 16 8 27 -1 12 2 30 6 40 4 10 5 21 1 24 -3 3 -1 12 5 19 6 8 9 20 6 29 -4 8 -2 17 4 21 6 3 9 16 8 27 -1 12 2 30 6 40 4 10 5 21 1 24 -3 3 -1 12 5 19 6 8 9 20 6 29 -4 8 -2 17 4 21 6 3 9 16 8 27 -1 12 2 30 6 40 4 10 5 21 1 24 -3 3 -1 12 5 19 6 8 9 20 6 29 -4 8 -2 17 4 21 6 3 9 16 8 27 -1 12 2 30 6 40 4 10 5 21 1 24 -3 3 -1 12 5 19 6 8 9 20 6 29 -4 8 -2 17 3 20 6 4 10 15 10 26 0 18 9 19 249 19 229 0 283 -5 251 -25 -6 -4 -10 -17 -9 -28 1 -12 -1 -30 -5 -39 -4 -9 -5 -21 -2 -27 4 -5 1 -13 -4 -16 -6 -4 -10 -17 -8 -28 1 -12 -1 -27 -5 -34 -4 -7 -9 -31 -11 -55 -2 -24 -7 -51 -11 -60 -4 -9 -4 -21 -1 -27 4 -5 1 -13 -4 -16 -6 -4 -10 -17 -9 -28 1 -12 -1 -30 -5 -39 -4 -9 -5 -22 -1 -28 10 -16 27 0 22 21 -3 10 -1 22 5 25 5 3 8 16 7 27 -1 12 2 30 6 40 4 10 5 21 1 24 -3 3 -1 12 4 18 6 7 12 32 14 56 2 24 7 52 11 62 4 9 5 24 2 32 -4 8 -1 17 4 21 6 3 9 15 6 25 -3 10 -1 22 5 25 5 3 8 16 7 27 -1 12 1 30 5 39 16 36 0 38 -269 38 -258 0 -265 0 -276 -21z M570 6369 c-7 -11 -9 -27 -6 -34 3 -8 0 -17 -5 -21 -6 -3 -9 -15 -6 -25 3 -10 1 -22 -5 -25 -5 -3 -8 -16 -7 -27 1 -12 -1 -30 -5 -39 -4 -9 -5 -21 -2 -27 4 -5 1 -13 -4 -16 -6 -4 -10 -17 -9 -28 1 -12 -1 -30 -5 -39 -4 -9 -5 -21 -2 -27 4 -5 1 -13 -4 -16 -6 -4 -10 -17 -9 -28 1 -12 -2 -30 -6 -40 -4 -10 -5 -21 -1 -24 3 -3 1 -12 -5 -19 -14 -17 -4 -48 12 -39 6 4 9 16 6 26 -3 10 -1 22 5 25 5 3 8 15 5 25 -3 10 -1 22 5 25 5 3 8 16 7 27 -1 12 1 30 5 39 4 9 5 21 2 27 -4 5 -1 13 4 16 6 4 10 17 9 28 -1 12 1 30 5 39 4 9 5 21 2 27 -4 5 -1 13 4 16 6 4 10 17 9 28 -1 12 1 29 5 38 4 9 6 20 5 25 0 5 2 19 6 32 l7 22 1037 0 1037 0 -2 -22 c-1 -13 -5 -31 -9 -40 -4 -10 -5 -25 -2 -33 4 -8 1 -17 -4 -21 -6 -3 -9 -15 -6 -25 3 -10 1 -22 -5 -25 -5 -3 -8 -15 -5 -25 3 -10 1 -22 -5 -25 -5 -3 -8 -16 -7 -27 1 -12 -1 -30 -5 -39 -4 -9 -5 -22 -1 -28 10 -16 27 0 22 21 -3 10 -1 22 5 25 5 3 8 16 7 27 -1 12 1 30 5 39 4 9 5 21 2 27 -4 5 -2 13 4 16 6 4 10 14 9 23 -1 10 1 25 6 35 4 9 5 24 2 32 -4 8 -2 17 3 20 5 3 8 20 6 38 l-3 32 -1051 3 -1051 2 -11 -21z M3745 6270 c-4 -6 -4 -14 -1 -17 3 -3 1 -12 -5 -19 -6 -8 -9 -20 -6 -29 4 -8 1 -17 -4 -21 -6 -3 -9 -15 -6 -25 3 -10 1 -22 -4 -25 -6 -3 -9 -13 -8 -22 1 -10 -1 -25 -6 -35 -4 -10 -5 -21 -1 -24 3 -3 2 -11 -3 -17 -14 -18 -23 -74 -12 -80 13 -8 21 7 25 46 2 18 7 41 11 51 4 10 5 21 1 24 -3 3 -1 12 5 19 6 8 9 20 6 29 -4 8 -2 17 4 21 5 3 9 13 8 22 -1 10 1 25 6 35 4 10 5 21 1 24 -3 3 -1 12 6 20 8 10 8 17 1 24 -8 8 -13 7 -18 -1z M7074 6216 c-4 -9 -1 -22 5 -30 6 -7 8 -15 5 -18 -17 -17 97 -175 117 -162 6 3 -7 24 -27 46 -39 44 -79 123 -76 150 4 22 -17 33 -24 14z M7764 6184 c-23 -64 -38 -89 -79 -133 -25 -27 -42 -52 -37 -55 29 -18 158 172 133 197 -7 7 -12 5 -17 -9z M2604 6017 c-3 -9 -3 -20 0 -26 4 -5 2 -13 -4 -16 -6 -4 -10 -14 -9 -23 1 -10 -1 -25 -6 -34 -9 -22 1 -51 16 -43 5 4 9 17 8 28 -1 12 1 29 5 38 4 9 6 20 5 25 -1 5 1 17 6 27 4 11 3 23 -3 29 -8 8 -13 7 -18 -5z M7215 6000 c-9 -14 67 -59 109 -64 11 -2 29 -7 38 -11 22 -9 53 -3 47 10 -2 6 -15 11 -29 12 -34 2 -65 12 -116 38 -25 12 -46 19 -49 15z M7588 5979 c-20 -10 -61 -22 -89 -27 -54 -7 -68 -25 -26 -30 29 -4 135 32 155 52 23 22 0 25 -40 5z M10414 5976 c-4 -9 -4 -20 0 -23 3 -3 1 -12 -5 -19 -13 -16 -4 -48 11 -39 6 4 10 14 9 23 -1 10 1 25 6 35 4 11 3 23 -3 29 -8 8 -13 7 -18 -6z M3675 5930 c-3 -5 -7 -24 -9 -42 -2 -18 -7 -41 -11 -50 -4 -9 -4 -21 -1 -27 4 -5 2 -13 -4 -16 -6 -4 -10 -14 -9 -23 1 -10 -1 -25 -6 -35 -4 -10 -5 -21 -1 -24 3 -3 1 -12 -4 -19 -6 -6 -12 -27 -14 -45 -2 -19 -7 -42 -11 -52 -4 -10 -5 -21 -1 -24 3 -3 1 -12 -5 -19 -6 -8 -9 -20 -6 -29 4 -8 1 -17 -4 -21 -6 -3 -9 -15 -6 -25 3 -10 1 -22 -5 -25 -5 -3 -8 -15 -5 -25 3 -10 1 -22 -5 -25 -5 -3 -8 -15 -5 -25 3 -10 1 -22 -5 -25 -5 -3 -8 -15 -5 -25 3 -10 1 -22 -5 -25 -5 -3 -7 -12 -4 -20 3 -7 0 -16 -5 -20 -6 -3 -9 -15 -6 -25 3 -10 1 -22 -5 -25 -5 -3 -8 -15 -5 -25 3 -10 1 -22 -5 -25 -5 -3 -8 -15 -5 -25 3 -10 1 -22 -5 -25 -5 -3 -8 -15 -5 -25 3 -10 1 -22 -4 -25 -6 -3 -9 -13 -8 -22 1 -10 -1 -25 -6 -35 -4 -10 -5 -21 -1 -24 3 -3 1 -12 -5 -19 -6 -7 -8 -18 -4 -24 9 -14 28 -1 21 16 -3 7 0 16 5 20 6 3 9 15 6 25 -3 10 -1 22 5 25 5 3 8 15 5 25 -3 10 -1 22 5 25 5 3 8 15 5 25 -3 10 -1 22 5 25 5 3 8 15 5 25 -3 10 -1 22 5 25 5 3 8 15 5 25 -3 10 -1 22 5 25 5 3 8 15 5 25 -3 10 -1 22 5 25 5 3 7 12 4 20 -3 7 0 16 5 20 6 3 9 15 6 25 -3 10 -1 22 5 25 5 3 8 15 5 25 -3 10 -1 22 5 25 5 3 8 15 5 25 -3 10 -1 22 5 25 5 3 8 15 5 25 -3 10 -1 22 4 25 6 3 9 13 8 22 -1 10 1 25 6 35 4 10 5 21 1 24 -3 3 -1 12 4 19 6 6 12 27 14 45 2 19 7 42 11 51 4 9 4 21 1 27 -4 5 -2 13 4 16 6 4 10 14 9 23 -1 10 1 25 6 35 4 10 5 21 1 24 -3 3 -2 11 3 17 14 18 23 74 12 80 -5 4 -12 2 -16 -4z M1059 5886 c-3 -13 -6 -22 -13 -38 -5 -10 -6 -25 -3 -33 4 -8 1 -17 -4 -21 -6 -3 -9 -15 -6 -25 3 -10 1 -22 -5 -25 -5 -3 -8 -16 -7 -27 1 -12 -1 -30 -6 -39 -4 -10 -5 -25 -2 -33 4 -8 1 -17 -4 -21 -6 -3 -9 -15 -6 -25 3 -10 1 -22 -5 -25 -5 -3 -8 -16 -7 -27 1 -12 -1 -30 -5 -39 -4 -9 -5 -22 -1 -28 10 -16 27 0 22 21 -3 10 -1 22 5 25 5 3 8 16 7 27 -1 12 1 30 5 39 4 9 5 21 2 27 -4 5 -1 13 4 16 6 4 10 17 9 28 -1 12 1 30 6 40 4 9 5 24 2 32 -4 8 -1 17 4 21 6 3 9 15 6 25 -3 10 -1 22 5 25 5 3 8 16 6 27 -1 12 1 27 5 34 4 6 3 14 -3 18 -5 3 -11 4 -11 1z M474 5866 c-4 -9 -4 -20 0 -23 3 -3 1 -12 -5 -19 -13 -16 -4 -48 11 -39 6 4 10 14 9 23 -1 10 1 25 6 35 4 11 3 23 -3 29 -8 8 -13 7 -18 -6z M10394 5867 c-3 -9 -3 -20 0 -26 4 -5 1 -13 -4 -16 -6 -4 -10 -17 -9 -28 1 -12 -1 -30 -5 -39 -4 -9 -5 -21 -2 -27 4 -5 1 -13 -4 -16 -6 -4 -10 -17 -9 -28 1 -12 -1 -30 -5 -39 -4 -9 -5 -21 -2 -27 4 -5 1 -13 -4 -16 -6 -4 -10 -17 -8 -28 1 -12 -1 -27 -5 -34 -4 -7 -9 -31 -11 -55 -2 -24 -7 -51 -11 -61 -4 -10 -3 -23 3 -29 8 -8 13 -7 18 6 4 9 4 20 0 23 -3 3 -1 12 4 18 6 7 12 32 14 56 2 24 7 52 11 62 4 9 5 24 2 32 -4 8 -1 17 4 21 6 3 9 15 6 25 -3 10 -1 22 5 25 5 3 8 16 7 27 -1 12 1 30 5 39 4 9 5 21 2 27 -4 5 -1 13 4 16 6 4 10 17 9 28 -1 12 2 30 6 40 4 11 3 23 -3 29 -8 8 -13 7 -18 -5z M454 5756 c-4 -9 -4 -20 0 -23 3 -3 1 -12 -5 -19 -6 -8 -9 -20 -6 -29 4 -8 2 -17 -4 -21 -6 -3 -9 -16 -8 -27 1 -12 -1 -30 -5 -39 -4 -9 -5 -21 -2 -27 4 -5 1 -13 -4 -16 -6 -4 -10 -17 -9 -28 1 -12 -1 -30 -5 -39 -4 -9 -5 -21 -2 -27 4 -5 1 -13 -4 -16 -6 -4 -10 -17 -9 -28 1 -12 -2 -30 -6 -40 -4 -10 -5 -21 -1 -24 3 -3 1 -12 -5 -19 -6 -8 -9 -20 -6 -29 4 -8 2 -17 -4 -21 -6 -3 -9 -16 -8 -27 1 -12 -1 -30 -6 -39 -4 -10 -5 -25 -2 -33 4 -8 2 -17 -4 -21 -5 -3 -9 -13 -8 -22 1 -10 -1 -25 -5 -34 -4 -9 -5 -22 -1 -28 10 -16 27 0 22 21 -3 10 -1 22 5 25 5 3 8 15 5 25 -3 10 -1 22 5 25 5 3 8 16 7 27 -1 12 1 30 6 40 4 9 5 24 2 32 -4 8 -1 17 4 21 6 3 9 15 6 25 -3 10 -1 22 5 25 5 3 8 15 5 25 -3 10 -1 22 5 25 5 3 8 16 7 27 -1 12 1 30 5 39 4 9 5 21 2 27 -4 5 -1 13 4 16 6 4 10 17 9 28 -1 12 1 30 5 39 4 9 5 21 2 27 -4 5 -1 13 4 16 6 4 10 17 9 28 -1 12 1 29 5 38 4 9 6 20 5 25 -1 5 1 17 6 27 4 11 3 23 -3 29 -8 8 -13 7 -18 -6z M9175 5570 c-3 -5 0 -13 8 -15 24 -10 232 -1 230 10 -4 14 -229 19 -238 5z M9095 5560 c-8 -13 20 -24 41 -16 20 8 9 26 -16 26 -10 0 -22 -5 -25 -10z M9036 5551 c-4 -6 -13 -8 -21 -5 -8 3 -19 2 -26 -2 -7 -4 -24 -8 -38 -10 -14 -1 -39 -8 -56 -14 -16 -7 -38 -15 -49 -17 -98 -19 -401 -206 -367 -227 5 -4 12 -2 16 4 23 37 331 207 390 215 37 5 86 19 90 26 3 4 12 6 20 3 8 -3 20 -2 27 2 7 5 21 8 30 9 10 0 18 5 18 10 1 14 -27 19 -34 6z M4347 5534 c-19 -20 28 -24 272 -24 248 0 268 -1 267 -17 -1 -10 4 -19 9 -20 6 -2 10 12 9 30 l0 32 -275 3 c-152 1 -278 -1 -282 -4z M5806 5531 c-12 -19 14 -20 285 -21 220 -1 274 1 274 12 0 16 -550 25 -559 9z M6819 5513 c-6 -15 -8 -35 -6 -45 3 -10 1 -21 -5 -24 -5 -3 -7 -12 -4 -20 3 -7 0 -16 -5 -20 -6 -3 -9 -15 -6 -25 3 -10 1 -22 -4 -25 -6 -3 -9 -13 -8 -22 1 -10 -1 -25 -6 -35 -4 -10 -5 -21 -1 -24 3 -3 1 -12 -4 -19 -6 -6 -12 -27 -14 -45 -2 -19 -7 -42 -11 -52 -4 -10 -5 -21 -1 -24 3 -3 1 -12 -5 -20 -8 -9 -8 -17 -1 -26 13 -15 69 -17 62 -2 -3 6 -12 9 -20 8 -20 -2 -31 18 -18 34 5 7 8 19 5 27 -3 7 -1 18 4 23 5 5 11 25 13 44 2 19 7 42 11 52 4 10 5 21 1 24 -3 3 -1 12 5 19 6 8 9 20 6 29 -4 8 -1 17 4 21 6 3 9 15 6 25 -3 10 -1 22 5 25 5 3 7 12 4 20 -3 7 -1 16 4 19 6 4 10 17 10 31 l0 24 408 0 408 0 -2 -22 c-1 -13 -5 -31 -9 -40 -4 -10 -5 -25 -2 -33 4 -8 1 -17 -4 -21 -6 -3 -9 -15 -6 -25 3 -10 1 -22 -5 -25 -5 -3 -8 -15 -5 -25 3 -10 1 -22 -5 -25 -5 -3 -8 -16 -7 -27 1 -12 -2 -30 -6 -40 -4 -10 -5 -21 -1 -24 3 -3 1 -12 -5 -19 -6 -8 -9 -20 -6 -29 4 -8 2 -17 -4 -21 -6 -3 -9 -16 -8 -27 1 -12 -1 -30 -5 -39 -4 -9 -5 -21 -2 -27 4 -5 1 -13 -4 -16 -6 -4 -10 -17 -9 -28 1 -12 -1 -29 -5 -38 -4 -9 -6 -20 -5 -25 1 -5 -1 -17 -6 -27 -4 -10 -5 -21 -1 -24 3 -3 1 -12 -5 -19 -14 -17 -4 -48 12 -39 6 4 9 16 6 26 -3 10 -1 22 5 25 5 3 8 15 5 25 -3 10 -1 22 5 25 5 3 8 15 5 25 -3 10 -1 22 5 25 5 3 8 16 7 27 -1 12 1 30 5 39 4 9 5 21 2 27 -4 5 -1 13 4 16 6 4 10 17 9 28 -1 12 2 30 6 40 4 10 5 21 1 24 -3 3 -1 12 5 19 6 8 9 20 6 29 -4 8 -2 17 4 21 6 3 9 16 8 27 -1 12 1 30 5 39 4 9 5 21 2 27 -4 5 -2 13 4 16 6 4 10 14 9 23 -1 10 1 25 6 35 4 9 5 24 2 32 -4 8 -2 17 3 20 5 3 8 20 6 38 l-3 32 -422 3 -421 2 -11 -27z M4334 5496 c-4 -9 -4 -20 0 -23 3 -3 1 -12 -5 -19 -13 -16 -4 -48 11 -39 6 4 10 14 9 23 -1 10 1 25 6 35 4 11 3 23 -3 29 -8 8 -13 7 -18 -6z M5794 5496 c-3 -9 -4 -23 -1 -31 4 -8 1 -17 -4 -21 -6 -3 -9 -15 -6 -25 3 -10 1 -22 -5 -25 -5 -3 -8 -16 -7 -27 1 -12 -1 -30 -5 -39 -4 -9 -5 -22 -1 -28 10 -16 27 0 22 21 -3 10 -1 22 5 25 5 3 8 16 7 27 -1 12 1 30 5 39 4 9 5 21 2 27 -4 5 -2 12 4 16 13 8 13 42 0 50 -6 3 -13 -1 -16 -9z M6334 5476 c-4 -9 -4 -20 0 -23 3 -3 1 -12 -5 -19 -6 -8 -9 -20 -6 -29 4 -8 2 -17 -4 -21 -6 -3 -9 -16 -8 -27 1 -12 -2 -30 -6 -40 -4 -10 -5 -21 -1 -24 3 -3 1 -12 -5 -19 -6 -8 -9 -20 -6 -29 4 -8 2 -17 -4 -21 -6 -3 -9 -16 -8 -27 1 -12 -2 -30 -6 -40 -4 -10 -5 -21 -1 -24 3 -3 1 -12 -5 -19 -14 -17 -4 -48 12 -39 6 4 9 16 6 26 -3 10 -1 22 5 25 5 3 8 15 5 25 -3 10 -1 22 5 25 5 3 8 16 7 27 -1 12 2 30 6 40 4 10 5 21 1 24 -3 3 -1 12 5 19 6 8 9 20 6 29 -4 8 -2 17 4 21 6 3 9 16 8 27 -1 12 1 29 5 38 4 9 6 20 5 25 -1 5 1 17 6 27 4 11 3 23 -3 29 -8 8 -13 7 -18 -6z M974 5446 c-4 -9 -4 -20 0 -23 3 -3 1 -12 -5 -19 -13 -16 -4 -48 11 -39 6 4 10 14 9 23 -1 10 1 25 6 35 4 11 3 23 -3 29 -8 8 -13 7 -18 -6z M4874 5436 c-4 -9 -4 -20 0 -23 3 -3 1 -12 -5 -19 -6 -8 -9 -20 -6 -28 3 -7 1 -18 -5 -24 -13 -13 -2 -46 13 -37 6 4 9 16 6 26 -3 10 -1 22 4 25 6 3 9 13 8 22 -1 10 1 25 6 35 4 11 3 23 -3 29 -8 8 -13 7 -18 -6z M4314 5386 c-4 -9 -4 -20 0 -23 3 -3 1 -12 -5 -19 -6 -8 -9 -20 -6 -29 4 -8 2 -17 -4 -21 -6 -3 -9 -16 -8 -27 1 -12 -2 -30 -6 -40 -4 -10 -5 -21 -1 -24 3 -3 1 -12 -5 -19 -14 -17 -4 -48 12 -39 6 4 9 16 6 26 -3 10 -1 22 5 25 5 3 8 15 5 25 -3 10 -1 22 5 25 5 3 8 16 7 27 -1 12 1 29 5 38 4 9 6 20 5 25 -1 5 1 17 6 27 4 11 3 23 -3 29 -8 8 -13 7 -18 -6z M10304 5367 c-3 -9 -3 -20 0 -26 4 -5 1 -13 -4 -16 -6 -4 -10 -17 -9 -28 1 -12 -2 -30 -6 -40 -4 -10 -5 -21 -1 -24 3 -3 1 -12 -5 -19 -14 -17 -4 -48 12 -39 6 4 9 16 6 26 -3 10 -1 22 5 25 5 3 8 15 5 25 -3 10 -1 22 5 25 5 3 8 16 7 27 -1 12 2 30 6 40 4 11 3 23 -3 29 -8 8 -13 7 -18 -5z M954 5336 c-4 -9 -4 -20 0 -23 3 -3 1 -12 -5 -19 -13 -16 -4 -48 11 -39 6 4 10 14 9 23 -1 10 1 25 6 35 4 11 3 23 -3 29 -8 8 -13 7 -18 -6z M4844 5276 c-4 -9 -4 -20 0 -23 3 -3 2 -11 -3 -17 -14 -18 -23 -84 -12 -90 14 -9 22 9 26 52 2 20 6 45 10 55 4 10 3 23 -3 29 -8 8 -13 7 -18 -6z M5754 5266 c-4 -9 -4 -20 0 -23 3 -3 1 -12 -5 -20 -6 -7 -9 -22 -6 -33 3 -11 1 -23 -5 -26 -5 -3 -8 -16 -7 -27 1 -12 -2 -30 -6 -40 -4 -10 -5 -21 -1 -24 3 -3 1 -12 -5 -19 -14 -17 -4 -48 12 -39 6 4 9 16 6 26 -3 10 -1 22 4 25 6 3 9 13 8 22 -1 10 1 25 6 35 4 9 5 24 2 32 -4 8 -2 17 4 21 6 3 9 16 8 27 -1 12 2 30 6 40 4 11 3 23 -3 29 -8 8 -13 7 -18 -6z M8391 5216 c-35 -35 -59 -66 -54 -69 5 -3 38 22 72 57 35 35 59 66 54 69 -5 3 -38 -22 -72 -57z M934 5226 c-4 -9 -4 -20 0 -23 3 -3 1 -12 -5 -19 -13 -16 -4 -48 11 -39 6 4 10 14 9 23 -1 10 1 25 6 35 4 11 3 23 -3 29 -8 8 -13 7 -18 -6z M2005 5161 c-7 -12 12 -24 24 -17 5 3 5 -12 0 -36 -11 -45 4 -78 18 -42 16 43 9 97 -14 100 -12 2 -25 0 -28 -5z M10264 5147 c-3 -9 -3 -20 0 -26 4 -5 1 -13 -4 -16 -6 -4 -10 -17 -9 -28 1 -12 -1 -30 -5 -39 -4 -9 -5 -21 -2 -27 4 -5 1 -13 -4 -16 -6 -4 -10 -17 -9 -28 1 -12 -1 -30 -5 -39 -4 -9 -5 -22 -1 -28 10 -16 27 0 22 21 -3 10 -1 22 5 25 5 3 8 16 7 27 -1 12 1 30 5 39 4 9 5 21 2 27 -4 5 -1 13 4 16 6 4 10 17 9 28 -1 12 2 30 6 40 4 11 3 23 -3 29 -8 8 -13 7 -18 -5z M8301 5116 c-13 -13 -18 -26 -13 -30 5 -3 19 5 31 18 13 13 18 26 13 30 -5 3 -19 -5 -31 -18z M4264 5116 c-4 -9 -4 -20 0 -23 3 -3 1 -12 -5 -19 -6 -8 -9 -20 -6 -28 3 -7 1 -18 -5 -24 -13 -13 -2 -46 13 -37 6 4 9 16 6 26 -3 10 -1 22 4 25 6 3 9 13 8 22 -1 10 1 25 6 35 4 11 3 23 -3 29 -8 8 -13 7 -18 -6z M4814 5116 c-4 -9 -4 -20 0 -23 3 -3 1 -12 -5 -19 -6 -8 -9 -20 -6 -29 4 -8 2 -17 -4 -21 -6 -3 -9 -16 -8 -27 1 -12 -2 -30 -6 -40 -4 -10 -5 -21 -1 -24 3 -3 1 -12 -4 -18 -6 -7 -12 -32 -14 -56 -2 -24 -7 -52 -11 -61 -4 -9 -4 -21 -1 -27 4 -5 1 -13 -4 -16 -6 -4 -10 -17 -9 -28 1 -12 -2 -30 -6 -40 -4 -10 -5 -21 -1 -24 3 -3 1 -12 -5 -19 -6 -8 -9 -20 -6 -29 4 -8 2 -17 -4 -21 -6 -3 -9 -16 -8 -27 1 -12 -1 -30 -5 -39 -4 -9 -5 -21 -2 -27 4 -5 1 -13 -4 -16 -6 -4 -10 -17 -9 -28 1 -12 -2 -30 -6 -40 -4 -10 -5 -21 -1 -24 3 -3 1 -12 -5 -19 -6 -8 -9 -20 -6 -29 4 -8 2 -17 -4 -21 -6 -3 -9 -16 -8 -27 1 -12 -2 -30 -6 -40 -4 -10 -5 -21 -1 -24 3 -3 1 -12 -5 -19 -6 -8 -9 -20 -6 -29 4 -8 2 -17 -4 -21 -6 -3 -9 -16 -8 -27 1 -12 -1 -29 -5 -38 -4 -9 -6 -20 -5 -25 1 -5 -1 -17 -5 -26 -10 -22 0 -51 15 -43 5 4 9 17 8 28 -1 12 1 30 5 39 4 9 5 21 2 27 -4 5 -1 13 4 16 6 4 10 17 9 28 -1 12 2 30 6 40 4 10 5 21 1 24 -3 3 -1 12 5 19 6 8 9 20 6 29 -4 8 -2 17 4 21 6 3 9 16 8 27 -1 12 2 30 6 40 4 10 5 21 1 24 -3 3 -1 12 5 19 6 8 9 20 6 29 -4 8 -2 17 4 21 6 3 9 16 8 27 -1 12 1 30 5 39 4 9 5 21 2 27 -4 5 -1 13 4 16 6 4 10 17 9 28 -1 12 2 30 6 40 4 10 5 21 1 24 -3 3 -1 12 5 19 6 8 9 20 6 29 -4 8 -2 17 4 21 6 3 9 16 8 27 -1 12 2 30 6 40 4 10 5 21 1 24 -3 3 -1 12 4 18 6 7 12 32 14 56 2 24 7 52 11 61 4 9 4 21 1 27 -4 5 -1 13 4 16 6 4 10 17 9 28 -1 12 1 29 5 38 4 9 6 20 5 25 -1 5 1 17 6 27 4 11 3 23 -3 29 -8 8 -13 7 -18 -6z M9225 5110 c-3 -5 0 -13 9 -16 21 -8 61 -1 61 11 0 14 -62 19 -70 5z M9405 5110 c-7 -11 15 -23 36 -19 8 1 23 -1 34 -6 11 -4 35 -14 53 -21 19 -8 51 -27 72 -44 21 -17 41 -26 44 -21 13 21 -150 121 -173 106 -5 -3 -12 -1 -16 5 -8 13 -42 13 -50 0z M9092 5081 c-45 -16 -107 -44 -137 -62 -68 -41 -187 -147 -179 -160 3 -5 35 18 72 51 77 70 178 126 277 155 66 19 93 37 63 42 -7 2 -50 -10 -96 -26z M6964 5089 c-6 -10 7 -16 33 -14 22 2 39 -30 21 -41 -5 -3 -8 -16 -7 -27 1 -12 -2 -30 -6 -40 -4 -10 -5 -21 -1 -24 3 -3 1 -12 -5 -19 -14 -17 -4 -48 12 -39 6 4 9 16 6 26 -3 10 -1 22 5 25 5 3 8 15 5 25 -3 10 -1 22 5 25 5 3 8 16 7 27 -1 12 1 30 5 39 5 10 6 23 4 30 -4 12 -77 18 -84 7z M324 5046 c-4 -9 -4 -20 0 -23 3 -3 1 -12 -5 -19 -13 -16 -4 -48 11 -39 6 4 10 14 9 23 -1 10 1 25 6 35 4 11 3 23 -3 29 -8 8 -13 7 -18 -6z M6254 5046 c-4 -9 -4 -20 0 -23 3 -3 1 -12 -5 -19 -6 -8 -9 -20 -6 -28 3 -7 1 -18 -5 -24 -13 -13 -2 -46 13 -37 6 4 9 16 6 26 -3 10 -1 22 4 25 6 3 9 13 8 22 -1 10 1 25 6 35 4 11 3 23 -3 29 -8 8 -13 7 -18 -6z M2014 5026 c-4 -9 -4 -20 0 -23 3 -3 1 -12 -5 -19 -6 -8 -9 -20 -6 -28 3 -7 1 -18 -5 -24 -13 -13 -2 -46 13 -37 6 4 9 16 6 26 -3 10 -1 22 4 25 6 3 9 13 8 22 -1 10 1 25 6 35 4 11 3 23 -3 29 -8 8 -13 7 -18 -6z M8200 4978 c-78 -120 -190 -384 -175 -409 3 -4 0 -11 -6 -14 -5 -4 -8 -13 -5 -21 3 -7 1 -16 -5 -20 -6 -3 -8 -12 -5 -20 3 -7 0 -16 -5 -20 -6 -3 -9 -15 -6 -25 3 -10 1 -22 -5 -25 -5 -3 -8 -16 -7 -27 1 -12 -1 -30 -5 -39 -10 -21 -4 -49 9 -48 6 0 11 13 11 28 1 15 5 35 9 45 4 9 5 24 2 32 -4 8 -1 17 4 21 6 3 9 15 6 25 -3 10 -1 22 5 25 5 3 7 12 4 20 -3 7 -1 16 5 20 6 3 8 12 5 19 -2 7 -1 16 4 21 4 5 20 47 35 94 31 94 95 230 149 314 19 30 31 58 26 61 -6 3 -28 -22 -50 -57z M5704 4987 c-3 -9 -3 -20 0 -26 4 -5 1 -13 -4 -16 -6 -4 -10 -17 -9 -28 1 -12 -1 -30 -5 -39 -4 -9 -5 -22 -1 -28 10 -16 27 0 22 21 -3 10 -1 22 5 25 5 3 8 16 7 27 -1 12 2 30 6 40 4 11 3 23 -3 29 -8 8 -13 7 -18 -5z M9646 4982 c-3 -6 1 -15 8 -21 21 -17 37 -69 25 -77 -6 -3 -9 -16 -8 -27 1 -12 -2 -30 -6 -40 -4 -10 -5 -21 -1 -24 3 -3 1 -12 -5 -19 -6 -8 -9 -20 -6 -29 4 -8 2 -17 -4 -21 -6 -3 -9 -16 -8 -27 1 -12 -2 -30 -6 -40 -4 -10 -5 -21 -1 -24 3 -3 1 -12 -5 -19 -6 -8 -9 -20 -6 -28 3 -7 1 -18 -4 -23 -5 -5 -11 -29 -13 -54 -2 -24 -7 -52 -11 -62 -4 -10 -5 -21 -1 -24 3 -3 1 -12 -5 -19 -13 -16 -4 -48 11 -39 6 4 10 14 9 23 -1 10 1 25 6 35 4 10 5 21 1 24 -3 3 -1 12 4 18 6 7 12 32 14 56 2 24 7 52 11 62 4 10 5 21 1 24 -3 3 -1 12 5 19 6 8 9 20 6 29 -4 8 -2 17 4 21 6 3 9 16 8 27 -1 12 2 30 6 40 4 10 5 21 1 24 -3 3 -1 12 5 19 6 8 9 20 6 29 -4 8 -2 17 4 21 6 3 9 16 7 27 -1 12 1 27 5 34 9 14 -13 63 -36 82 -9 7 -18 8 -21 3z M4234 4956 c-4 -9 -4 -20 0 -23 3 -3 1 -12 -5 -19 -6 -8 -9 -20 -6 -28 3 -7 1 -18 -5 -24 -13 -13 -2 -46 13 -37 6 4 9 16 6 26 -3 10 -1 22 4 25 6 3 9 13 8 22 -1 10 1 25 6 35 4 11 3 23 -3 29 -8 8 -13 7 -18 -6z M304 4936 c-4 -9 -4 -20 0 -23 3 -3 1 -12 -5 -19 -6 -8 -9 -20 -6 -29 4 -8 2 -17 -4 -21 -6 -3 -9 -16 -8 -27 1 -12 -1 -30 -5 -39 -4 -9 -5 -21 -2 -27 4 -5 1 -13 -4 -16 -6 -4 -10 -17 -9 -28 1 -12 -2 -30 -6 -40 -4 -10 -5 -21 -1 -24 3 -3 1 -12 -5 -19 -14 -17 -4 -48 12 -39 6 4 9 16 6 26 -3 10 -1 22 5 25 5 3 8 15 5 25 -3 10 -1 22 5 25 5 3 8 16 7 27 -1 12 1 30 5 39 4 9 5 21 2 27 -4 5 -1 13 4 16 6 4 10 17 9 28 -1 12 1 29 5 38 4 9 6 20 5 25 -1 5 1 17 6 27 4 11 3 23 -3 29 -8 8 -13 7 -18 -6z M3465 4910 c-3 -5 -7 -24 -9 -42 -2 -18 -7 -41 -11 -51 -4 -10 -5 -21 -1 -24 3 -3 1 -12 -5 -19 -6 -8 -9 -20 -6 -29 4 -8 2 -17 -4 -21 -5 -3 -9 -13 -8 -22 1 -10 -1 -25 -6 -35 -4 -10 -5 -21 -1 -24 3 -3 1 -12 -5 -19 -6 -7 -8 -18 -4 -24 9 -14 28 -1 21 16 -3 7 0 16 5 20 6 3 9 15 6 25 -3 10 -1 22 5 25 5 3 8 15 5 25 -3 10 -1 22 4 25 6 3 9 13 8 22 -1 10 1 25 6 35 4 10 5 21 1 24 -3 3 -2 11 3 17 14 18 23 74 12 80 -5 4 -12 2 -16 -4z M6224 4886 c-4 -9 -4 -20 0 -23 3 -3 1 -12 -5 -19 -6 -8 -9 -20 -6 -29 4 -8 2 -17 -4 -21 -6 -3 -9 -16 -8 -27 1 -12 -1 -29 -5 -38 -4 -9 -6 -20 -5 -25 1 -5 -1 -17 -6 -27 -4 -10 -5 -21 -1 -24 3 -3 1 -12 -5 -19 -14 -17 -4 -48 12 -39 6 4 9 16 6 26 -3 10 -1 22 5 25 5 3 8 15 5 25 -3 10 -1 22 5 25 5 3 8 15 5 25 -3 10 -1 22 5 25 5 3 8 16 7 27 -1 12 1 29 5 38 4 9 6 20 5 25 -1 5 1 17 6 27 4 11 3 23 -3 29 -8 8 -13 7 -18 -6z M1984 4867 c-3 -9 -3 -20 0 -26 4 -5 2 -12 -3 -15 -5 -3 -12 -28 -16 -55 -4 -26 -13 -60 -20 -75 -15 -29 -1 -47 20 -25 11 13 38 126 34 146 -1 4 1 16 6 26 4 11 3 23 -3 29 -8 8 -13 7 -18 -5z M10214 4867 c-3 -9 -3 -20 0 -26 4 -5 1 -13 -4 -16 -6 -4 -10 -17 -9 -28 1 -12 -2 -30 -6 -40 -4 -10 -5 -21 -1 -24 3 -3 1 -12 -5 -19 -14 -17 -4 -48 12 -39 6 4 9 16 6 26 -3 10 -1 22 5 25 5 3 8 15 5 25 -3 10 -1 22 5 25 5 3 8 16 7 27 -1 12 2 30 6 40 4 11 3 23 -3 29 -8 8 -13 7 -18 -5z M6984 4856 c-4 -9 -4 -20 0 -23 3 -3 1 -12 -5 -19 -6 -8 -9 -20 -6 -28 3 -7 1 -18 -5 -24 -13 -13 -2 -46 13 -37 6 4 9 16 6 26 -3 10 -1 22 4 25 6 3 9 13 8 22 -1 10 1 25 6 35 4 11 3 23 -3 29 -8 8 -13 7 -18 -6z M8731 4812 c-63 -81 -158 -284 -165 -356 -2 -17 -7 -38 -10 -47 -4 -9 -6 -20 -5 -25 1 -5 -1 -17 -5 -26 -10 -21 -4 -49 9 -48 6 0 11 13 11 28 1 15 4 34 8 43 4 9 6 20 5 25 -1 5 0 16 4 24 3 8 13 42 22 75 24 84 76 195 129 270 49 70 47 99 -3 37z M5674 4817 c-3 -9 -3 -20 0 -26 4 -5 1 -13 -4 -16 -6 -4 -10 -17 -9 -28 1 -12 -1 -30 -5 -39 -4 -9 -5 -21 -2 -27 4 -5 1 -13 -4 -16 -6 -4 -10 -17 -9 -28 1 -12 -1 -30 -5 -39 -4 -9 -5 -22 -1 -28 10 -16 27 0 22 21 -3 10 -1 22 5 25 5 3 8 16 7 27 -1 12 1 30 5 39 4 9 5 21 2 27 -4 5 -1 13 4 16 6 4 10 17 9 28 -1 12 2 30 6 40 4 11 3 23 -3 29 -8 8 -13 7 -18 -5z M4204 4796 c-4 -9 -4 -20 0 -23 3 -3 1 -12 -5 -19 -6 -8 -9 -20 -6 -28 3 -7 1 -18 -5 -24 -13 -13 -2 -46 13 -37 6 4 9 16 6 26 -3 10 -1 22 4 25 6 3 9 13 8 22 -1 10 1 25 6 35 4 11 3 23 -3 29 -8 8 -13 7 -18 -6z M7524 4796 c-4 -9 -4 -20 0 -23 3 -3 1 -12 -5 -19 -6 -8 -9 -20 -6 -28 3 -7 1 -18 -5 -24 -13 -13 -2 -46 13 -37 6 4 9 16 6 26 -3 10 -1 22 4 25 6 3 9 13 8 22 -1 10 1 25 6 35 4 11 3 23 -3 29 -8 8 -13 7 -18 -6z M6954 4696 c-4 -9 -4 -20 0 -23 3 -3 1 -12 -5 -19 -6 -8 -9 -20 -6 -29 4 -8 2 -17 -4 -21 -6 -3 -9 -16 -8 -27 1 -12 -1 -29 -5 -38 -4 -9 -6 -20 -5 -25 1 -5 -1 -17 -6 -27 -4 -10 -5 -21 -1 -24 3 -3 1 -12 -5 -19 -14 -17 -4 -48 12 -39 6 4 9 16 6 26 -3 10 -1 22 5 25 5 3 8 15 5 25 -3 10 -1 22 5 25 5 3 8 15 5 25 -3 10 -1 22 5 25 5 3 8 16 7 27 -1 12 1 29 5 38 4 9 6 20 5 25 -1 5 1 17 6 27 4 11 3 23 -3 29 -8 8 -13 7 -18 -6z M835 4680 c-3 -5 -4 -14 0 -19 3 -5 0 -13 -5 -16 -6 -4 -10 -17 -9 -28 1 -12 -1 -30 -5 -39 -4 -9 -5 -21 -2 -27 4 -5 1 -13 -4 -16 -6 -4 -10 -17 -8 -28 1 -12 -1 -28 -6 -35 -4 -7 -5 -19 -2 -27 3 -8 1 -17 -5 -21 -6 -3 -9 -16 -8 -27 1 -12 -1 -30 -5 -39 -4 -9 -5 -21 -2 -27 4 -5 1 -13 -4 -16 -6 -4 -10 -17 -9 -28 1 -12 -1 -30 -5 -39 -4 -9 -5 -21 -2 -27 4 -5 1 -13 -4 -16 -6 -4 -10 -17 -9 -28 1 -12 -2 -30 -6 -40 -4 -10 -5 -21 -1 -24 3 -3 1 -12 -5 -19 -14 -17 -4 -48 12 -39 6 4 9 16 6 26 -3 10 -1 22 5 25 5 3 8 15 5 25 -3 10 -1 22 5 25 5 3 8 16 6 27 -1 12 1 28 6 35 4 7 5 19 2 27 -3 8 -1 17 5 21 6 3 9 16 8 27 -1 12 1 30 5 39 4 9 5 21 2 27 -4 5 -1 13 4 16 6 4 10 17 9 28 -1 12 1 30 5 39 4 9 5 21 2 27 -4 5 -1 13 4 16 6 4 10 17 9 28 -1 12 2 30 6 40 4 10 5 21 1 24 -3 3 -1 12 5 20 6 7 9 22 6 33 -3 14 1 24 14 31 11 5 17 14 14 20 -8 12 -32 12 -40 -1z M10174 4647 c-3 -9 -3 -20 0 -26 4 -5 1 -13 -4 -16 -6 -4 -10 -17 -9 -28 1 -12 -2 -30 -6 -40 -4 -10 -5 -21 -1 -24 3 -3 1 -12 -5 -19 -14 -17 -4 -48 12 -39 6 4 9 16 6 26 -3 10 -1 22 5 25 5 3 8 15 5 25 -3 10 -1 22 5 25 5 3 8 16 7 27 -1 12 2 30 6 40 4 11 3 23 -3 29 -8 8 -13 7 -18 -5z M4174 4636 c-4 -9 -4 -20 0 -23 3 -3 1 -12 -5 -19 -6 -8 -9 -20 -6 -29 4 -8 2 -17 -4 -21 -6 -3 -9 -16 -8 -27 1 -12 -2 -30 -6 -40 -4 -10 -5 -21 -1 -24 3 -3 1 -12 -5 -19 -6 -8 -9 -20 -6 -29 4 -8 2 -17 -4 -21 -6 -3 -9 -16 -8 -27 1 -12 -2 -30 -6 -40 -4 -10 -5 -21 -1 -24 3 -3 1 -12 -5 -19 -6 -8 -9 -20 -6 -29 4 -8 2 -17 -4 -21 -6 -3 -9 -16 -8 -27 1 -12 -2 -30 -6 -40 -4 -10 -5 -21 -1 -24 3 -3 1 -12 -5 -19 -6 -8 -9 -20 -6 -29 4 -8 2 -17 -4 -21 -6 -3 -9 -16 -8 -27 1 -12 -1 -30 -6 -39 -9 -22 1 -51 16 -43 5 4 9 17 8 28 -1 12 1 30 6 40 4 9 5 24 2 32 -4 8 -1 17 4 21 6 3 9 15 6 25 -3 10 -1 22 5 25 5 3 8 15 5 25 -3 10 -1 22 5 25 5 3 8 16 7 27 -1 12 2 30 6 40 4 10 5 21 1 24 -3 3 -1 12 5 19 6 8 9 20 6 29 -4 8 -2 17 4 21 6 3 9 16 8 27 -1 12 2 30 6 40 4 10 5 21 1 24 -3 3 -1 12 5 19 6 8 9 20 6 29 -4 8 -2 17 4 21 6 3 9 16 8 27 -1 12 1 29 5 38 4 9 6 20 5 25 -1 5 1 17 6 27 4 11 3 23 -3 29 -8 8 -13 7 -18 -6z M7494 4636 c-4 -9 -4 -20 0 -23 3 -3 1 -12 -5 -19 -6 -8 -9 -20 -6 -29 4 -8 2 -17 -4 -21 -6 -3 -9 -16 -8 -27 1 -12 -2 -30 -6 -40 -4 -10 -5 -21 -1 -24 3 -3 1 -12 -4 -18 -6 -7 -12 -32 -14 -56 -2 -24 -7 -52 -11 -61 -4 -9 -4 -21 -1 -27 4 -5 1 -13 -4 -16 -6 -4 -10 -17 -9 -28 1 -12 -2 -30 -6 -40 -4 -10 -5 -21 -1 -24 3 -3 1 -12 -5 -19 -14 -17 -4 -48 12 -39 6 4 9 16 6 26 -3 10 -1 22 5 25 5 3 8 15 5 25 -3 10 -1 22 5 25 5 3 8 16 7 27 -1 12 2 30 6 40 4 10 5 21 1 24 -3 3 -1 12 4 18 6 7 12 32 14 56 2 24 7 52 11 61 4 9 4 21 1 27 -4 5 -1 13 4 16 6 4 10 17 9 28 -1 12 1 29 5 38 4 9 6 20 5 25 -1 5 1 17 6 27 4 11 3 23 -3 29 -8 8 -13 7 -18 -6z M3395 4570 c-3 -5 -7 -24 -9 -42 -2 -18 -7 -41 -11 -51 -4 -10 -5 -21 -1 -24 3 -3 1 -12 -5 -19 -6 -8 -9 -20 -6 -29 4 -8 1 -17 -4 -21 -6 -3 -9 -15 -6 -25 3 -10 1 -22 -5 -25 -5 -3 -8 -15 -5 -25 3 -10 1 -22 -5 -25 -5 -3 -8 -15 -5 -25 3 -10 1 -22 -5 -25 -5 -3 -8 -15 -5 -25 3 -10 1 -22 -5 -25 -5 -3 -8 -15 -5 -25 3 -10 1 -22 -5 -25 -5 -3 -8 -16 -7 -27 1 -12 -1 -30 -5 -39 -4 -9 -5 -22 -1 -28 10 -16 27 0 22 21 -3 10 -1 22 5 25 5 3 8 16 7 27 -1 12 2 30 6 40 4 10 5 21 1 24 -3 3 -1 12 5 19 6 8 9 20 6 29 -4 8 -1 17 4 21 6 3 9 15 6 25 -3 10 -1 22 5 25 5 3 8 15 5 25 -3 10 -1 22 5 25 5 3 8 15 5 25 -3 10 -1 22 4 25 6 3 9 13 8 22 -1 10 1 25 6 35 4 10 5 21 1 24 -3 3 -2 11 3 17 14 18 23 74 12 80 -5 4 -12 2 -16 -4z M6164 4566 c-4 -9 -4 -20 0 -23 3 -3 1 -12 -5 -19 -13 -16 -4 -48 11 -39 6 4 10 14 9 23 -1 10 1 25 6 35 4 11 3 23 -3 29 -8 8 -13 7 -18 -6z M234 4556 c-4 -9 -4 -20 0 -23 3 -3 1 -12 -5 -19 -6 -8 -9 -20 -6 -29 4 -8 2 -17 -4 -21 -6 -3 -9 -16 -8 -27 1 -12 -2 -30 -6 -40 -4 -10 -5 -21 -1 -24 3 -3 1 -12 -4 -18 -6 -7 -12 -32 -14 -56 -2 -24 -7 -52 -11 -61 -4 -10 -5 -25 -2 -33 4 -8 2 -17 -4 -21 -5 -3 -9 -13 -7 -22 1 -10 -1 -22 -5 -29 -4 -7 -9 -31 -11 -55 -2 -24 -7 -51 -11 -61 -4 -10 -3 -23 3 -29 8 -8 13 -7 18 6 4 9 4 20 0 23 -3 3 -1 12 4 18 6 7 12 32 14 56 2 24 7 52 11 61 4 9 4 21 1 27 -4 5 -1 13 4 16 6 4 10 17 8 28 -1 12 1 27 5 34 4 7 9 31 11 55 2 24 7 51 11 60 4 9 4 21 1 27 -4 5 -1 13 4 16 6 4 10 17 9 28 -1 12 1 29 5 38 4 9 6 20 5 25 -1 5 1 17 6 27 4 11 3 23 -3 29 -8 8 -13 7 -18 -6z M2845 4540 c-4 -6 -4 -14 -1 -17 3 -3 1 -12 -5 -19 -6 -8 -9 -20 -6 -29 4 -8 1 -17 -4 -21 -6 -3 -9 -15 -6 -25 3 -10 1 -22 -5 -25 -5 -3 -7 -12 -4 -19 2 -7 0 -17 -6 -23 -13 -13 -2 -46 13 -37 6 4 9 16 6 26 -3 10 -1 22 5 25 5 3 7 12 4 20 -3 7 -1 16 5 20 5 3 9 13 8 22 -1 10 1 25 6 35 4 10 5 21 1 24 -3 3 -1 12 6 20 8 10 8 17 1 24 -8 8 -13 7 -18 -1z M5624 4537 c-3 -9 -3 -20 0 -26 4 -5 1 -13 -4 -16 -6 -4 -10 -17 -9 -28 1 -12 -1 -30 -5 -39 -4 -9 -5 -21 -2 -27 4 -5 1 -13 -4 -16 -6 -4 -10 -17 -9 -28 1 -12 -1 -30 -6 -39 -4 -10 -5 -25 -2 -33 4 -8 2 -17 -4 -21 -5 -3 -9 -13 -8 -22 1 -10 -1 -25 -6 -35 -4 -10 -5 -21 -1 -24 3 -3 1 -11 -4 -18 -5 -7 -11 -25 -13 -42 -2 -16 -25 -74 -51 -128 -78 -161 -218 -287 -371 -335 -46 -14 -61 -25 -47 -34 13 -8 115 28 169 60 128 74 284 274 313 399 1 6 7 21 12 34 5 14 7 30 4 37 -3 8 0 16 5 20 6 3 9 15 6 25 -3 10 -1 22 5 25 5 3 8 15 5 25 -3 10 -1 22 5 25 5 3 8 16 7 27 -1 12 1 30 6 40 4 9 5 24 2 32 -4 8 -1 17 4 21 6 3 9 15 6 25 -3 10 -1 22 5 25 5 3 8 16 7 27 -1 12 2 30 6 40 4 11 3 23 -3 29 -8 8 -13 7 -18 -5z M6144 4456 c-4 -9 -4 -20 0 -23 3 -3 1 -12 -5 -19 -6 -8 -9 -20 -6 -28 3 -7 1 -18 -5 -24 -13 -13 -2 -46 13 -37 6 4 9 16 6 26 -3 10 -1 22 4 25 6 3 9 13 8 22 -1 10 1 25 6 35 4 11 3 23 -3 29 -8 8 -13 7 -18 -6z M10134 4426 c-4 -9 -4 -20 0 -23 3 -3 1 -12 -5 -20 -6 -7 -9 -22 -6 -33 3 -11 1 -23 -5 -26 -5 -3 -8 -16 -7 -27 1 -12 -2 -30 -6 -40 -4 -10 -5 -21 -1 -24 3 -3 1 -12 -5 -19 -14 -17 -4 -48 12 -39 6 4 9 16 6 26 -3 10 -1 22 4 25 6 3 9 13 8 22 -1 10 1 25 6 35 4 9 5 24 2 32 -4 8 -2 17 4 21 6 3 9 16 8 27 -1 12 2 30 6 40 4 11 3 23 -3 29 -8 8 -13 7 -18 -6z M6894 4376 c-4 -9 -4 -20 0 -23 3 -3 1 -12 -5 -19 -6 -8 -9 -20 -6 -29 4 -8 2 -17 -4 -21 -6 -3 -9 -16 -8 -27 1 -12 -2 -30 -6 -40 -4 -10 -5 -21 -1 -24 3 -3 1 -12 -4 -18 -6 -7 -12 -32 -14 -56 -2 -24 -7 -52 -11 -62 -4 -10 -5 -21 -1 -24 3 -3 1 -12 -5 -19 -13 -16 -4 -48 11 -39 6 4 10 14 9 23 -1 10 1 25 6 35 4 10 5 21 1 24 -3 3 -1 12 4 18 6 7 12 32 14 56 2 24 7 52 11 61 4 9 4 21 1 27 -4 5 -1 13 4 16 6 4 10 17 9 28 -1 12 1 29 5 38 4 9 6 20 5 25 -1 5 1 17 6 27 4 11 3 23 -3 29 -8 8 -13 7 -18 -6z M9574 4337 c-3 -9 -3 -20 0 -26 4 -5 1 -13 -5 -16 -5 -4 -8 -13 -5 -21 3 -7 1 -16 -5 -20 -6 -3 -8 -12 -5 -19 2 -7 1 -16 -3 -21 -5 -5 -18 -43 -31 -84 -26 -87 -67 -182 -110 -251 -31 -51 -25 -78 8 -32 55 78 161 340 147 363 -3 5 0 12 6 15 5 4 8 13 5 21 -3 7 -1 16 5 19 5 4 9 12 8 18 -1 7 1 20 6 30 4 11 3 23 -3 29 -8 8 -13 7 -18 -5z M2794 4296 c-4 -9 -4 -20 0 -23 3 -3 1 -12 -5 -19 -6 -8 -9 -20 -6 -28 3 -7 1 -18 -5 -24 -13 -13 -2 -46 13 -37 6 4 9 16 6 26 -3 10 -1 22 4 25 6 3 9 13 8 22 -1 10 1 25 6 35 4 11 3 23 -3 29 -8 8 -13 7 -18 -6z M6114 4296 c-4 -9 -4 -20 0 -23 3 -3 1 -12 -5 -19 -6 -8 -9 -20 -6 -29 4 -8 2 -17 -4 -21 -6 -3 -9 -16 -8 -27 1 -12 -2 -30 -6 -40 -4 -10 -5 -21 -1 -24 3 -3 1 -12 -5 -19 -6 -8 -9 -20 -6 -29 4 -8 2 -17 -4 -21 -6 -3 -9 -16 -8 -27 1 -12 -2 -30 -6 -40 -4 -10 -5 -21 -1 -24 3 -3 1 -12 -5 -19 -6 -8 -9 -20 -6 -29 4 -8 2 -17 -4 -21 -6 -3 -9 -16 -8 -27 1 -12 -2 -30 -6 -40 -4 -10 -5 -21 -1 -24 3 -3 1 -12 -5 -19 -14 -17 -4 -48 12 -39 6 4 9 16 6 26 -3 10 -1 22 5 25 5 3 8 15 5 25 -3 10 -1 22 5 25 5 3 8 16 7 27 -1 12 2 30 6 40 4 10 5 21 1 24 -3 3 -1 12 5 19 6 8 9 20 6 29 -4 8 -2 17 4 21 6 3 9 16 8 27 -1 12 2 30 6 40 4 10 5 21 1 24 -3 3 -1 12 5 19 6 8 9 20 6 29 -4 8 -2 17 4 21 6 3 9 16 8 27 -1 12 1 29 5 38 4 9 6 20 5 25 -1 5 1 17 6 27 4 11 3 23 -3 29 -8 8 -13 7 -18 -6z M7965 4278 c-9 -23 -2 -83 10 -83 14 0 19 75 6 88 -7 7 -12 5 -16 -5z M8535 4278 c-8 -22 0 -163 10 -163 13 0 17 162 5 170 -6 3 -12 0 -15 -7z M10084 4147 c-3 -9 -3 -20 0 -26 4 -5 1 -13 -4 -16 -6 -4 -10 -17 -9 -28 1 -12 -1 -30 -5 -39 -4 -9 -5 -21 -2 -27 4 -5 1 -13 -4 -16 -6 -4 -10 -17 -9 -28 1 -12 -1 -30 -5 -39 -4 -9 -5 -21 -2 -27 4 -5 1 -13 -4 -16 -6 -4 -10 -17 -9 -28 1 -12 -1 -30 -5 -39 -4 -9 -5 -21 -2 -27 4 -5 1 -13 -4 -16 -6 -4 -10 -17 -9 -28 1 -12 -1 -30 -5 -39 -4 -9 -5 -21 -2 -27 4 -5 1 -13 -4 -16 -6 -4 -10 -17 -9 -28 1 -12 -1 -30 -5 -39 -4 -9 -5 -22 -1 -28 10 -16 27 0 22 21 -3 10 -1 22 5 25 5 3 8 16 6 27 -1 12 1 28 6 35 4 7 5 19 2 27 -3 8 -1 17 5 21 6 3 9 16 8 27 -1 12 1 30 5 39 4 9 5 21 2 27 -4 5 -1 13 4 16 6 4 10 17 9 28 -1 12 1 30 5 39 4 9 5 21 2 27 -4 5 -1 13 4 16 6 4 10 17 9 28 -1 12 1 30 5 39 4 9 5 21 2 27 -4 5 -1 13 4 16 6 4 10 17 9 28 -1 12 2 30 6 40 4 11 3 23 -3 29 -8 8 -13 7 -18 -5z M2764 4136 c-4 -10 -2 -22 4 -28 8 -8 13 -7 18 6 4 10 2 22 -4 28 -8 8 -13 7 -18 -6z M7394 4096 c-4 -9 -4 -20 0 -23 3 -3 1 -12 -5 -19 -6 -8 -9 -20 -6 -29 4 -8 2 -17 -4 -21 -6 -3 -9 -16 -8 -27 1 -12 -2 -30 -6 -40 -4 -10 -5 -21 -1 -24 3 -3 1 -12 -5 -19 -6 -8 -9 -20 -6 -29 4 -8 2 -17 -4 -21 -6 -3 -9 -16 -8 -27 1 -12 -2 -30 -6 -40 -4 -10 -5 -21 -1 -24 3 -3 1 -12 -5 -19 -6 -8 -9 -20 -6 -28 3 -7 1 -18 -5 -24 -13 -13 -2 -46 13 -37 6 4 9 16 6 26 -3 10 -1 22 5 25 5 3 8 15 5 25 -3 10 -1 22 5 25 5 3 8 15 5 25 -3 10 -1 22 5 25 5 3 8 16 7 27 -1 12 2 30 6 40 4 10 5 21 1 24 -3 3 -1 12 5 19 6 8 9 20 6 29 -4 8 -2 17 4 21 6 3 9 16 8 27 -1 12 1 29 5 38 4 9 6 20 5 25 -1 5 1 17 6 27 4 11 3 23 -3 29 -8 8 -13 7 -18 -6z M2754 4077 c-3 -8 -4 -21 -3 -28 1 -8 -1 -22 -5 -31 -10 -23 0 -51 15 -42 6 3 9 17 6 30 -2 14 0 27 4 30 12 7 11 41 -1 49 -6 3 -13 0 -16 -8z M8535 4077 c-9 -22 -2 -62 10 -60 6 1 11 14 13 29 4 32 -14 56 -23 31z M714 4027 c-3 -9 -3 -20 0 -26 4 -5 1 -13 -4 -16 -6 -4 -10 -17 -9 -28 1 -12 -1 -30 -5 -39 -4 -9 -5 -21 -2 -27 4 -5 1 -13 -4 -16 -6 -4 -10 -17 -9 -28 1 -12 -1 -30 -5 -39 -4 -9 -5 -21 -2 -27 4 -5 1 -13 -4 -16 -6 -4 -10 -17 -9 -28 1 -12 -1 -30 -5 -39 -4 -9 -5 -21 -2 -27 4 -5 1 -13 -4 -16 -6 -4 -10 -17 -9 -28 1 -12 -1 -30 -5 -39 -4 -9 -5 -21 -2 -27 4 -5 1 -13 -4 -16 -6 -4 -10 -17 -9 -28 1 -12 -1 -30 -5 -39 -4 -9 -5 -21 -2 -27 4 -5 1 -13 -4 -16 -6 -4 -10 -17 -9 -28 1 -12 -1 -30 -5 -39 -4 -9 -5 -21 -2 -27 4 -5 1 -13 -4 -16 -6 -4 -10 -17 -9 -28 1 -12 -1 -30 -5 -39 -4 -9 -5 -22 -1 -28 10 -16 27 0 22 21 -3 10 -1 22 5 25 5 3 8 16 7 27 -1 12 1 30 5 39 4 9 5 21 2 27 -4 5 -1 13 4 16 6 4 10 17 9 28 -1 12 1 30 5 39 4 9 5 21 2 27 -4 5 -1 13 4 16 6 4 10 17 9 28 -1 12 1 30 5 39 4 9 5 21 2 27 -4 5 -1 13 4 16 6 4 10 17 9 28 -1 12 1 30 5 39 4 9 5 21 2 27 -4 5 -1 13 4 16 6 4 10 17 9 28 -1 12 1 30 5 39 4 9 5 21 2 27 -4 5 -1 13 4 16 6 4 10 17 9 28 -1 12 1 30 5 39 4 9 5 21 2 27 -4 5 -1 13 4 16 6 4 10 17 9 28 -1 12 2 30 6 40 4 11 3 23 -3 29 -8 8 -13 7 -18 -5z M3284 4006 c-4 -10 -2 -22 4 -28 8 -8 13 -7 18 6 4 10 2 22 -4 28 -8 8 -13 7 -18 -6z M8544 3986 c-3 -9 -3 -24 2 -33 4 -10 6 -21 6 -25 -4 -16 43 -126 70 -165 48 -72 145 -138 212 -148 12 -1 29 -6 38 -10 22 -9 52 -3 50 10 -1 6 -15 11 -30 11 -28 1 -40 5 -111 36 -93 39 -153 107 -187 212 -9 28 -19 56 -23 61 -3 6 -4 20 -3 32 4 26 -16 41 -24 19z M4604 3977 c-8 -22 1 -83 12 -78 13 5 17 78 5 86 -6 3 -14 0 -17 -8z M124 3956 c-4 -9 -4 -20 0 -23 3 -3 1 -12 -5 -19 -6 -8 -9 -20 -6 -29 4 -8 2 -17 -4 -21 -6 -3 -9 -16 -8 -27 1 -12 -1 -30 -5 -39 -4 -9 -5 -21 -2 -27 4 -5 1 -13 -4 -16 -6 -4 -10 -17 -9 -28 1 -12 -2 -30 -6 -40 -4 -10 -5 -21 -1 -24 3 -3 1 -12 -5 -19 -14 -17 -4 -48 12 -39 6 4 9 16 6 26 -3 10 -1 22 5 25 5 3 8 15 5 25 -3 10 -1 22 5 25 5 3 8 16 7 27 -1 12 1 30 5 39 4 9 5 21 2 27 -4 5 -1 13 4 16 6 4 10 17 9 28 -1 12 1 29 5 38 4 9 6 20 5 25 -1 5 1 17 6 27 4 11 3 23 -3 29 -8 8 -13 7 -18 -6z M3274 3946 c-8 -21 3 -49 16 -41 5 3 10 15 10 25 0 25 -18 36 -26 16z M6814 3946 c-4 -9 -4 -20 0 -23 3 -3 1 -12 -5 -19 -6 -8 -9 -20 -6 -28 3 -7 1 -18 -5 -24 -13 -13 -2 -46 13 -37 6 4 9 16 6 26 -3 10 -1 22 4 25 6 3 9 13 8 22 -1 10 1 25 6 35 4 11 3 23 -3 29 -8 8 -13 7 -18 -6z M2734 3936 c-8 -21 3 -49 16 -41 5 3 10 15 10 25 0 25 -18 36 -26 16z M7965 3937 c-9 -22 -2 -62 10 -60 6 1 11 14 13 29 4 32 -14 56 -23 31z M4045 3928 c-9 -22 -2 -68 10 -71 14 -3 19 63 6 76 -7 7 -12 5 -16 -5z M3264 3877 c-7 -20 -2 -47 11 -50 14 -3 19 43 6 56 -7 7 -12 6 -17 -6z M2725 3868 c-9 -22 -2 -68 10 -71 14 -3 19 63 6 76 -7 7 -12 5 -16 -5z M4606 3873 c-10 -10 -7 -51 4 -58 6 -4 8 -10 5 -15 -10 -16 32 -85 73 -122 47 -43 145 -79 164 -60 9 9 8 12 -3 15 -109 32 -128 40 -156 69 -38 39 -67 103 -64 140 2 26 -10 43 -23 31z M7974 3846 c-4 -9 -1 -22 5 -30 6 -7 8 -15 5 -18 -27 -28 135 -362 166 -343 6 4 0 20 -14 38 -36 48 -91 165 -110 232 -9 33 -20 67 -23 75 -3 8 -5 22 -4 32 3 22 -18 33 -25 14z M9356 3801 c-10 -11 -13 -22 -8 -25 5 -3 17 3 26 13 10 11 13 22 8 25 -5 3 -17 -3 -26 -13z M3254 3797 c-8 -21 1 -97 11 -100 13 -3 18 100 6 108 -6 3 -14 0 -17 -8z M6784 3786 c-4 -9 -4 -20 0 -23 3 -3 1 -12 -5 -19 -13 -16 -4 -48 11 -39 6 4 10 14 9 23 -1 10 1 25 6 35 4 11 3 23 -3 29 -8 8 -13 7 -18 -6z M2717 3763 c-9 -16 -2 -183 8 -183 12 0 17 178 5 185 -5 3 -11 2 -13 -2z M4045 3747 c-9 -22 -2 -62 10 -60 6 1 11 14 13 29 4 32 -14 56 -23 31z M9295 3739 c-12 -18 -108 -75 -150 -89 -22 -7 -44 -15 -50 -19 -5 -3 -20 -4 -32 -3 -11 2 -24 -2 -28 -7 -8 -15 20 -25 43 -16 9 4 28 9 41 11 62 8 219 112 194 127 -7 4 -15 2 -18 -4z M6004 3706 c-4 -9 -4 -20 0 -23 3 -3 1 -12 -5 -19 -6 -8 -9 -20 -6 -28 3 -7 1 -18 -5 -24 -13 -13 -2 -46 13 -37 6 4 9 16 6 26 -3 10 -1 22 4 25 6 3 9 13 8 22 -1 10 1 25 6 35 4 11 3 23 -3 29 -8 8 -13 7 -18 -6z M6764 3676 c-4 -9 -4 -20 0 -23 3 -3 1 -12 -5 -19 -6 -8 -9 -20 -6 -29 4 -8 1 -17 -4 -21 -6 -3 -9 -15 -6 -25 3 -10 1 -22 -5 -25 -5 -3 -8 -16 -7 -27 1 -12 -2 -30 -6 -40 -4 -10 -5 -21 -1 -24 3 -3 1 -12 -5 -19 -14 -17 -4 -48 12 -39 6 4 9 16 6 26 -3 10 -1 22 5 25 5 3 8 15 5 25 -3 10 -1 22 5 25 5 3 8 16 7 27 -1 12 1 30 5 39 4 9 5 21 2 27 -4 5 -2 13 4 16 6 4 10 14 9 23 -1 10 1 25 6 35 4 11 3 23 -3 29 -8 8 -13 7 -18 -6z M4054 3656 c-3 -8 -2 -20 2 -27 4 -7 8 -25 9 -41 6 -65 112 -247 137 -232 5 4 1 15 -10 28 -27 29 -78 123 -92 171 -6 22 -14 47 -17 55 -3 8 -5 22 -4 32 3 22 -18 33 -25 14z M3256 3633 c-23 -24 24 -134 79 -182 47 -40 120 -75 142 -66 22 8 7 19 -42 33 -79 23 -154 112 -155 184 0 27 -12 43 -24 31z M5005 3630 c-8 -13 20 -24 41 -16 20 8 9 26 -16 26 -10 0 -22 -5 -25 -10z M4875 3620 c-3 -5 0 -13 8 -16 23 -8 102 0 102 11 0 14 -102 19 -110 5z M7304 3616 c-4 -9 -4 -20 0 -23 3 -3 1 -12 -5 -19 -6 -8 -9 -20 -6 -29 4 -8 2 -17 -4 -21 -6 -3 -9 -16 -8 -27 1 -12 -2 -30 -6 -40 -4 -10 -5 -21 -1 -24 3 -3 1 -12 -5 -19 -6 -8 -9 -20 -6 -29 4 -8 2 -17 -4 -21 -6 -3 -9 -16 -8 -27 1 -12 -1 -29 -5 -38 -4 -9 -6 -20 -5 -25 0 -5 -2 -19 -6 -31 l-7 -23 -258 0 -258 0 -4 25 c-3 14 -1 28 4 31 5 3 8 13 7 22 -1 10 1 25 5 34 4 9 5 22 1 28 -10 16 -27 0 -22 -21 3 -10 1 -22 -4 -25 -6 -3 -9 -13 -8 -22 1 -10 -1 -24 -5 -32 -3 -9 -5 -27 -3 -40 l4 -25 276 -3 c271 -2 276 -2 287 19 6 11 9 27 6 34 -3 8 0 17 5 21 6 3 9 15 6 25 -3 10 -1 22 5 25 5 3 8 16 7 27 -1 12 2 30 6 40 4 10 5 21 1 24 -3 3 -1 12 5 19 6 8 9 20 6 29 -4 8 -2 17 4 21 6 3 9 16 8 27 -1 12 1 29 5 38 4 9 6 20 5 25 -1 5 1 17 6 27 4 11 3 23 -3 29 -8 8 -13 7 -18 -6z M54 3576 c-4 -9 -4 -20 0 -23 3 -3 1 -12 -5 -19 -13 -16 -4 -48 11 -39 6 4 10 14 9 23 -1 10 1 25 6 35 4 11 3 23 -3 29 -8 8 -13 7 -18 -6z M5974 3546 c-4 -9 -4 -20 0 -23 3 -3 1 -12 -5 -19 -13 -16 -4 -48 11 -39 6 4 10 14 9 23 -1 10 1 25 6 35 4 11 3 23 -3 29 -8 8 -13 7 -18 -6z M2724 3536 c-3 -8 -2 -21 2 -28 4 -7 9 -22 10 -34 12 -107 184 -279 291 -289 16 -1 35 -6 44 -9 24 -11 154 -3 151 9 -1 6 -38 11 -83 11 -44 1 -83 4 -86 8 -4 3 -13 6 -22 6 -72 0 -204 109 -246 203 -34 78 -38 91 -36 109 3 22 -18 33 -25 14z M9974 3537 c-3 -9 -3 -20 0 -26 4 -5 1 -13 -4 -16 -6 -4 -10 -17 -9 -28 1 -12 -1 -30 -5 -39 -4 -9 -5 -21 -2 -27 4 -5 1 -13 -4 -16 -6 -4 -10 -17 -9 -28 1 -12 -1 -30 -5 -39 -4 -9 -5 -22 -1 -28 10 -16 27 0 22 21 -3 10 -1 22 5 25 5 3 8 16 7 27 -1 12 1 30 5 39 4 9 5 21 2 27 -4 5 -1 13 4 16 6 4 10 17 9 28 -1 12 2 30 6 40 4 11 3 23 -3 29 -8 8 -13 7 -18 -5z M34 3466 c-4 -9 -4 -20 0 -23 3 -3 1 -12 -5 -19 -13 -16 -4 -48 11 -39 6 4 10 14 9 23 -1 10 1 25 6 35 4 11 3 23 -3 29 -8 8 -13 7 -18 -6z M5954 3436 c-4 -9 -4 -20 0 -23 3 -3 1 -12 -5 -19 -6 -8 -9 -20 -6 -28 3 -7 1 -18 -5 -24 -13 -13 -2 -46 13 -37 6 4 9 16 6 26 -3 10 -1 22 4 25 6 3 9 13 8 22 -1 10 1 25 6 35 4 11 3 23 -3 29 -8 8 -13 7 -18 -6z M8156 3442 c-18 -30 228 -212 306 -226 13 -3 24 -5 26 -7 1 -1 5 -2 10 -4 4 -1 20 -7 37 -14 16 -7 43 -14 60 -16 16 -1 38 -6 47 -10 22 -9 50 -3 46 10 -2 6 -14 10 -28 11 -14 0 -30 3 -35 6 -11 6 -67 20 -100 24 -11 1 -21 3 -22 4 -2 2 -6 3 -10 4 -56 12 -201 104 -275 174 -31 29 -59 49 -62 44z M9374 3371 c-62 -68 -155 -125 -249 -152 -38 -11 -77 -23 -85 -26 -8 -3 -25 -5 -37 -4 -11 1 -24 -3 -28 -8 -8 -15 21 -25 43 -15 9 4 21 6 26 5 48 -11 236 82 317 156 34 32 65 56 68 54 3 -3 8 3 9 13 8 39 -15 31 -64 -23z M3486 3345 c-47 -57 -108 -99 -180 -123 -58 -20 -75 -39 -30 -35 65 5 192 90 244 163 33 47 6 43 -34 -5z M14 3357 c-3 -9 -3 -20 0 -26 4 -5 2 -12 -3 -15 -4 -3 -9 -33 -10 -66 l-1 -60 290 2 c183 2 291 7 293 13 1 6 -98 11 -279 13 l-282 2 -5 25 c-2 14 0 28 5 31 5 3 8 13 7 22 -1 10 1 25 6 35 4 11 3 23 -3 29 -8 8 -13 7 -18 -5z M5355 3348 c-47 -31 -187 -95 -235 -108 -23 -6 -54 -16 -69 -22 -14 -6 -33 -10 -43 -9 -9 1 -19 -3 -22 -8 -4 -6 -13 -8 -21 -4 -8 3 -23 2 -32 -2 -10 -4 -33 -8 -50 -9 -18 0 -33 -5 -33 -11 -1 -13 36 -19 58 -9 9 4 27 6 39 5 11 -1 24 2 27 8 4 6 13 8 21 4 9 -3 21 0 29 6 7 6 15 9 18 6 10 -10 165 48 255 95 l92 48 -3 -41 c-2 -23 -7 -50 -11 -59 -19 -48 -14 -48 282 -46 270 3 278 4 279 23 1 11 5 28 9 38 4 11 3 23 -3 29 -8 8 -13 7 -18 -6 -4 -9 -4 -20 0 -23 3 -3 1 -12 -5 -20 -17 -20 -514 -19 -522 1 -3 7 -2 17 3 22 4 5 11 28 15 51 9 54 -15 70 -60 41z M9404 3356 c-3 -9 -4 -23 -1 -31 4 -8 2 -17 -4 -21 -5 -3 -9 -13 -8 -22 1 -10 -1 -25 -5 -34 -23 -53 -23 -53 272 -53 173 0 273 4 275 10 1 6 -91 11 -259 13 -251 2 -262 3 -267 22 -3 11 -1 23 5 26 5 3 8 15 5 25 -3 10 -1 22 4 25 12 7 11 41 -1 49 -6 3 -13 -1 -16 -9z M4246 3311 c-5 -8 25 -40 51 -55 29 -16 19 14 -11 38 -19 14 -37 22 -40 17z M9924 3256 c-4 -10 -2 -22 4 -28 8 -8 13 -7 18 6 4 10 2 22 -4 28 -8 8 -13 7 -18 -6z M4325 3250 c-6 -10 60 -48 92 -53 10 -1 24 -6 31 -10 6 -5 12 -5 12 -1 0 3 6 2 13 -4 19 -16 84 -25 91 -14 9 15 -5 21 -55 26 -24 3 -45 6 -46 7 -2 1 -6 2 -10 4 -11 3 -85 35 -105 46 -10 6 -19 5 -23 -1z M4585 3171 c-3 -6 0 -14 8 -17 25 -9 227 0 227 11 0 14 -226 20 -235 6z M8725 3170 c-3 -5 0 -13 8 -15 24 -10 212 -1 212 10 0 14 -211 19 -220 5z"/>
  </g>
</svg>