<?xml version="1.0" encoding="UTF-8"?>
<svg xmlns="http://www.w3.org/2000/svg" viewBox="0 0 2380.000000 1406.000000" width="2380.000000pt" height="1406.000000pt">
  <title>FluidAlp Logo</title>
  <!-- gold -->
  <g fill="#a07820" fill-rule="evenodd">
    <path d="M14153 6468 c-5 -7 -26 -92 -46 -188 -20 -96 -119 -571 -221 -1055 -245 -1170 -259 -1246 -272 -1497 -13 -262 62 -426 235 -511 94 -46 291 -48 384 -5 73 34 131 80 168 131 32 44 30 57 -8 57 -91 0 -190 77 -217 169 -42 142 -27 231 290 1766 174 842 232 1131 228 1137 -9 14 -530 10 -541 -4z M12278 6413 c-12 -14 -1784 -2968 -1892 -3155 -21 -37 -25 -49 -14 -53 7 -3 141 -4 298 -3 l285 3 184 318 183 317 563 0 563 0 22 -147 c13 -82 35 -224 50 -318 l26 -170 289 -3 c160 -1 295 0 301 2 8 3 -1 68 -32 218 -76 375 -443 2181 -515 2538 -38 190 -75 372 -82 405 l-13 60 -100 3 c-86 2 -103 0 -116 -15z m2 -1468 c34 -220 70 -458 80 -529 11 -70 20 -130 20 -132 0 -2 -180 -4 -400 -4 -220 0 -400 3 -400 6 0 3 66 126 147 273 81 146 163 296 182 332 20 36 95 172 166 303 l130 237 7 -43 c5 -24 35 -223 68 -443z M15460 5524 c-135 -25 -248 -49 -252 -53 -4 -3 0 -47 9 -96 13 -66 17 -142 17 -280 l0 -190 -158 -830 c-280 -1479 -334 -1770 -330 -1777 3 -5 126 -8 274 -8 246 0 270 1 278 18 5 9 47 227 93 483 l83 466 53 -23 c154 -69 421 -94 638 -60 630 96 1074 595 1144 1285 76 742 -245 1126 -928 1109 -156 -4 -172 -6 -264 -37 -91 -31 -239 -108 -297 -153 l-25 -20 -7 29 c-42 175 -43 178 -63 180 -11 1 -130 -19 -265 -43z m929 -449 c259 -61 373 -262 343 -599 -50 -554 -333 -837 -837 -840 -177 -1 -235 13 -302 71 l-32 28 108 568 c121 638 103 586 222 663 173 113 333 148 498 109z"/>
  </g>
</svg>