<?xml version="1.0" encoding="UTF-8"?>
<svg xmlns="http://www.w3.org/2000/svg" viewBox="0 0 2380.000000 1406.000000" width="2380.000000pt" height="1406.000000pt">
  <title>FluidAlp Logo</title>
  <!-- teal_dark -->
  <g fill="#4d8b8b" fill-rule="evenodd">
    <path d="M7332 6605 c-64 -18 -93 -36 -155 -94 -80 -75 -102 -128 -102 -241 0 -113 22 -164 102 -242 228 -222 617 -68 617 243 0 227 -236 398 -462 334z M3256 6471 c-9 -13 -448 -2111 -482 -2301 -74 -409 -73 -634 0 -779 130 -255 495 -295 705 -76 69 72 70 80 8 87 -152 17 -225 127 -214 323 11 197 27 282 267 1445 33 162 81 392 105 510 24 118 70 344 103 502 33 158 57 290 54 293 -9 9 -541 5 -546 -4z M9986 6471 c-5 -7 -196 -1008 -196 -1024 0 -3 -35 13 -78 34 -336 168 -839 105 -1177 -147 -287 -212 -478 -538 -551 -939 -29 -160 -27 -500 4 -620 42 -162 101 -265 216 -380 176 -175 344 -238 636 -237 242 0 396 53 530 181 45 42 44 43 26 -54 -8 -38 -12 -73 -9 -77 8 -14 543 -10 548 5 3 6 46 237 95 512 50 275 179 988 286 1585 108 597 197 1103 198 1125 l1 40 -262 3 c-151 1 -264 -2 -267 -7z m-490 -1392 c85 -26 184 -116 184 -168 0 -48 -117 -647 -145 -746 -108 -372 -289 -545 -568 -545 -273 1 -417 180 -417 519 0 439 210 801 532 917 130 47 305 57 414 23z M575 6381 c-3 -5 -86 -450 -185 -988 -98 -538 -226 -1237 -284 -1553 -58 -317 -106 -590 -106 -608 l0 -32 289 0 c160 0 292 4 295 8 5 8 266 1435 266 1453 0 5 234 9 554 9 428 0 557 3 562 12 11 18 93 461 88 470 -3 5 -252 8 -555 8 -491 0 -549 2 -549 16 0 8 27 166 60 350 33 184 60 337 60 339 0 3 342 5 760 5 l760 0 10 23 c14 36 92 476 85 487 -8 13 -2102 14 -2110 1z M4346 5522 c-8 -13 -283 -1494 -297 -1597 -49 -372 117 -657 436 -746 66 -18 105 -22 220 -22 258 1 449 51 648 167 l48 28 -5 -23 c-19 -82 -24 -114 -20 -121 9 -14 540 -10 551 5 14 17 436 2294 428 2307 -7 12 -541 15 -549 2 -2 -4 -57 -302 -121 -662 -137 -774 -135 -763 -185 -865 -115 -237 -315 -365 -570 -365 -155 0 -237 37 -281 127 -46 93 -39 158 116 978 75 402 138 744 138 760 l2 30 -277 3 c-152 1 -279 -1 -282 -6z M6827 5523 c-11 -19 -88 -416 -83 -429 4 -11 33 -14 146 -14 130 0 141 -1 136 -17 -3 -10 -48 -250 -100 -533 -53 -283 -129 -695 -170 -914 -41 -220 -73 -403 -70 -408 8 -13 552 -10 560 3 11 19 434 2300 428 2310 -6 11 -841 12 -847 2z"/>
  </g>
</svg>