<?xml version="1.0" encoding="UTF-8"?>
<svg xmlns="http://www.w3.org/2000/svg" viewBox="0 0 2380.000000 1406.000000" width="2380.000000pt" height="1406.000000pt">
  <title>FluidAlp Logo</title>
  <!-- circle_line -->
  <g fill="#9ecece" fill-rule="evenodd">
    <path d="M7295 6597 c-10 -8 -14 -16 -9 -19 14 -9 56 11 49 22 -8 13 -18 13 -40 -3z M7535 6600 c-3 -5 -4 -11 -1 -11 3 -1 9 -2 14 -3 4 -1 21 -10 39 -19 19 -10 34 -13 38 -7 3 5 -8 16 -25 25 -16 8 -30 13 -30 9 0 -4 -6 -1 -14 5 -10 8 -16 9 -21 1z M7209 6552 c-29 -24 -11 -36 20 -13 14 11 19 21 13 25 -5 3 -20 -2 -33 -12z M3250 6470 c-14 -26 -2 -50 15 -27 10 14 47 16 267 19 253 3 256 3 254 -17 -1 -12 -6 -26 -10 -33 -4 -7 -4 -17 -1 -22 9 -15 27 -1 21 16 -3 7 -1 16 4 19 5 3 7 18 6 33 l-3 27 -271 3 c-265 3 -271 3 -282 -18z M9980 6470 c-14 -27 -2 -49 15 -27 10 14 43 17 251 19 325 4 317 22 -11 26 -237 2 -244 2 -255 -18z M10508 6483 c-8 -14 -3 -38 7 -41 12 -3 16 36 4 43 -4 3 -9 2 -11 -2z M7758 6404 c-9 -14 11 -56 22 -49 13 8 13 18 -3 40 -8 10 -16 14 -19 9z M7065 6297 c-9 -22 -2 -62 10 -60 6 1 11 14 13 29 4 32 -14 56 -23 31z M7075 6200 c-4 -6 -1 -17 5 -25 7 -8 9 -15 5 -15 -4 0 -3 -6 3 -12 6 -7 11 -16 11 -20 1 -5 3 -8 6 -8 3 0 8 0 11 0 4 0 1 7 -6 15 -7 8 -9 15 -4 15 4 0 3 5 -3 11 -6 6 -9 17 -7 24 7 16 -12 29 -21 15z M7765 6180 c-3 -5 -4 -10 -1 -10 3 0 -8 -22 -24 -50 -26 -44 -28 -79 -2 -47 16 21 43 77 36 77 -4 0 -1 6 5 14 8 9 8 16 2 20 -5 4 -12 2 -16 -4z M3715 6110 c-4 -6 -4 -14 -1 -17 3 -3 1 -12 -5 -19 -6 -7 -8 -18 -4 -24 9 -14 28 -1 21 15 -2 7 1 18 7 24 8 8 8 14 0 22 -8 8 -13 8 -18 -1z M7116 6102 c-3 -5 2 -20 12 -33 24 -29 36 -11 13 20 -11 14 -21 19 -25 13z M7580 5969 c-19 -12 -36 -21 -37 -20 -2 0 -3 -1 -3 -4 0 -3 0 -8 0 -11 0 -4 7 -1 15 6 8 7 15 10 15 6 0 -4 14 1 30 9 17 9 28 20 25 25 -8 13 -4 13 -45 -11z M7285 5960 c-7 -12 32 -33 45 -25 6 4 8 10 5 14 -7 13 -44 20 -50 11z M444 5716 c-4 -10 -2 -22 4 -28 8 -8 13 -7 18 6 4 10 2 22 -4 28 -8 8 -13 7 -18 -6z M1024 5716 c-4 -10 -2 -22 4 -28 8 -8 13 -7 18 6 4 10 2 22 -4 28 -8 8 -13 7 -18 -6z M9165 5571 c-7 -13 17 -24 40 -19 9 1 16 8 16 13 0 14 -48 19 -56 6z M9385 5570 c-8 -12 20 -24 35 -15 6 3 8 11 5 16 -8 12 -32 12 -40 -1z M9804 5556 c-4 -10 -2 -22 4 -28 8 -8 13 -7 18 6 4 10 2 22 -4 28 -8 8 -13 7 -18 -6z M3055 5550 c-4 -6 -4 -14 -1 -17 3 -3 1 -12 -5 -19 -6 -7 -8 -18 -4 -24 9 -14 28 -1 21 15 -2 7 1 18 7 24 8 8 8 14 0 22 -8 8 -13 8 -18 -1z M9506 5551 c-4 -5 -2 -12 4 -16 5 -3 10 -3 10 1 0 3 7 1 15 -6 9 -7 18 -10 22 -7 3 4 12 2 20 -4 7 -6 13 -8 13 -4 0 4 7 2 15 -5 8 -7 15 -9 15 -5 0 4 6 2 14 -4 10 -8 16 -9 21 -1 3 5 4 11 1 11 -16 4 -26 7 -31 9 -3 1 -9 4 -15 5 -5 1 -12 4 -15 5 -3 1 -8 3 -12 4 -5 1 -14 5 -21 10 -7 4 -16 5 -19 2 -3 -3 -12 -1 -19 5 -8 6 -14 6 -18 0z M4340 5520 c-15 -27 -1 -49 15 -26 11 15 41 17 274 17 144 0 266 -3 271 -6 5 -3 11 -1 14 4 16 25 -30 30 -292 30 -261 0 -272 0 -282 -19z M5807 5534 c-19 -20 28 -24 267 -24 186 0 265 -3 274 -12 13 -13 28 14 17 32 -7 11 -547 15 -558 4z M6825 5530 c-11 -18 20 -19 423 -19 227 0 416 -2 421 -6 5 -3 12 -1 16 4 3 6 -3 14 -13 20 -23 12 -839 14 -847 1z M9685 5490 c-3 -5 12 -18 34 -30 23 -11 42 -16 46 -10 3 5 -12 18 -34 30 -23 11 -42 16 -46 10z M8707 5449 c-21 -11 -35 -24 -32 -29 4 -6 23 -1 46 10 22 12 37 25 34 30 -7 12 -2 13 -48 -11z M5784 5446 c-4 -10 -2 -22 4 -28 8 -8 13 -7 18 6 4 10 2 22 -4 28 -8 8 -13 7 -18 -6z M3575 5430 c-4 -6 -4 -14 -1 -17 3 -3 1 -12 -5 -19 -6 -7 -8 -18 -4 -24 9 -14 28 -1 21 15 -2 7 1 18 7 24 8 8 8 14 0 22 -8 8 -13 8 -18 -1z M10304 5356 c-4 -10 -2 -22 4 -28 8 -8 13 -7 18 6 4 10 2 22 -4 28 -8 8 -13 7 -18 -6z M5764 5336 c-4 -10 -2 -22 4 -28 8 -8 13 -7 18 6 4 10 2 22 -4 28 -8 8 -13 7 -18 -6z M8441 5266 c-13 -13 -18 -26 -13 -30 5 -3 19 5 31 18 13 13 18 26 13 30 -5 3 -19 -5 -31 -18z M4274 5186 c-4 -10 -2 -22 4 -28 8 -8 13 -7 18 6 4 10 2 22 -4 28 -8 8 -13 7 -18 -6z M8336 5161 c-15 -16 -23 -31 -18 -35 5 -3 21 8 36 23 15 16 23 31 18 35 -5 3 -21 -8 -36 -23z M935 5160 c-3 -6 0 -12 7 -15 26 -10 1113 0 1111 10 -4 14 -1109 19 -1118 5z M6738 5113 c-18 -34 -5 -38 150 -43 85 -3 156 -2 159 3 13 21 -18 27 -146 27 -85 0 -141 4 -148 11 -6 6 -13 7 -15 2z M9255 5110 c-8 -13 20 -24 41 -16 20 8 9 26 -16 26 -10 0 -22 -5 -25 -10z M9395 5110 c-8 -13 20 -24 41 -16 20 8 9 26 -16 26 -10 0 -22 -5 -25 -10z M9102 5078 c-7 -7 -12 -8 -12 -4 0 5 -7 3 -15 -4 -8 -7 -15 -10 -15 -6 0 3 -23 -5 -50 -19 -28 -14 -48 -30 -45 -35 4 -6 29 2 58 17 29 15 55 28 60 29 4 1 9 3 12 4 3 1 10 3 15 4 6 0 10 5 11 9 1 15 -7 17 -19 5z M9556 5061 c-3 -5 5 -16 19 -25 24 -16 45 -6 22 11 -24 19 -36 23 -41 14z M6244 4986 c-4 -10 -2 -22 4 -28 8 -8 13 -7 18 6 4 10 2 22 -4 28 -8 8 -13 7 -18 -6z M8866 4951 c-10 -11 -13 -22 -8 -25 5 -3 17 3 26 13 10 11 13 22 8 25 -5 3 -17 -3 -26 -13z M2925 4930 c-4 -6 -4 -14 -1 -17 3 -3 1 -12 -5 -19 -6 -7 -8 -18 -4 -24 9 -14 28 -1 21 15 -2 7 1 18 7 24 8 8 8 14 0 22 -8 8 -13 8 -18 -1z M8125 4850 c-19 -38 -33 -70 -30 -70 3 0 -2 -11 -11 -25 -9 -14 -13 -25 -10 -25 4 0 -1 -11 -10 -25 -9 -14 -13 -25 -9 -25 4 0 2 -7 -5 -15 -7 -8 -9 -15 -5 -15 4 0 2 -6 -4 -14 -8 -10 -9 -16 -1 -21 5 -3 11 -4 11 -1 4 16 7 26 9 31 1 3 3 8 4 13 1 4 7 17 14 30 7 12 10 22 7 22 -3 0 3 12 12 27 10 15 17 28 15 30 -1 2 14 34 33 73 19 38 31 72 25 75 -5 3 -25 -26 -45 -65z M8766 4851 c-10 -11 -13 -22 -8 -25 5 -3 17 3 26 13 10 11 13 22 8 25 -5 3 -17 -3 -26 -13z M1956 4701 c-5 -8 -171 -11 -555 -11 -475 0 -550 -2 -561 -15 -7 -8 -9 -15 -4 -15 379 -7 1121 3 1133 15 11 11 12 18 4 26 -8 8 -13 8 -17 0z M244 4626 c-4 -10 -2 -22 4 -28 8 -8 13 -7 18 6 4 10 2 22 -4 28 -8 8 -13 7 -18 -6z M5634 4606 c-4 -10 -2 -22 4 -28 8 -8 13 -7 18 6 4 10 2 22 -4 28 -8 8 -13 7 -18 -6z M4164 4596 c-4 -10 -2 -22 4 -28 8 -8 13 -7 18 6 4 10 2 22 -4 28 -8 8 -13 7 -18 -6z M8619 4606 c-1 -3 -2 -9 -3 -13 -1 -5 -7 -18 -14 -30 -7 -13 -8 -24 -3 -28 6 -3 15 4 21 15 6 11 8 20 4 20 -3 0 -1 6 5 14 8 10 9 16 1 21 -5 3 -11 4 -11 1z M8005 4520 c-4 -6 -4 -14 -1 -17 3 -3 1 -12 -5 -19 -6 -7 -8 -18 -4 -24 9 -14 28 -1 21 15 -2 7 1 18 7 24 8 8 8 14 0 22 -8 8 -13 8 -18 -1z M794 4456 c-4 -10 -2 -22 4 -28 8 -8 13 -7 18 6 4 10 2 22 -4 28 -8 8 -13 7 -18 -6z M5604 4436 c-4 -10 -2 -22 4 -28 8 -8 13 -7 18 6 4 10 2 22 -4 28 -8 8 -13 7 -18 -6z M8544 4336 c-8 -21 3 -49 16 -41 5 3 10 15 10 25 0 25 -18 36 -26 16z M9566 4301 c-4 -6 -5 -15 -1 -20 3 -5 0 -13 -6 -16 -5 -4 -8 -13 -5 -21 3 -7 1 -16 -5 -20 -6 -3 -8 -12 -5 -20 3 -7 1 -16 -5 -19 -5 -4 -7 -11 -3 -16 3 -5 10 -7 15 -3 5 3 7 9 4 14 -3 5 0 12 6 15 5 4 8 13 5 21 -3 7 -1 16 5 20 6 3 8 12 5 19 -2 7 1 18 7 24 8 8 8 14 0 22 -8 8 -13 8 -17 0z M7964 4287 c-7 -20 -2 -47 11 -50 14 -3 19 43 6 56 -7 7 -12 6 -17 -6z M4654 4246 c-4 -10 -2 -22 4 -28 8 -8 13 -7 18 6 4 10 2 22 -4 28 -8 8 -13 7 -18 -6z M8537 4253 c-10 -16 -2 -198 8 -198 12 0 17 193 5 200 -5 3 -11 2 -13 -2z M2774 4206 c-4 -10 -2 -22 4 -28 8 -8 13 -7 18 6 4 10 2 22 -4 28 -8 8 -13 7 -18 -6z M7414 4196 c-4 -10 -2 -22 4 -28 8 -8 13 -7 18 6 4 10 2 22 -4 28 -8 8 -13 7 -18 -6z M5555 4160 c-4 -6 -4 -14 -1 -17 3 -3 1 -12 -5 -20 -6 -7 -8 -13 -4 -13 4 0 2 -7 -5 -15 -7 -8 -9 -15 -5 -15 4 0 2 -6 -4 -14 -8 -10 -9 -16 -1 -21 5 -3 11 -4 11 -1 1 3 2 9 3 14 1 4 5 13 9 20 5 6 5 12 1 12 -3 0 -1 7 6 15 7 8 9 15 5 15 -4 0 -2 7 5 15 9 11 10 19 3 26 -8 8 -13 7 -18 -1z M7955 4158 c-9 -24 -1 -188 10 -191 14 -3 19 183 6 196 -7 7 -12 5 -16 -5z M9529 4146 c-4 -16 -7 -26 -9 -31 -1 -3 -3 -8 -4 -12 -1 -5 -7 -18 -14 -30 -7 -13 -10 -23 -7 -23 3 0 -2 -11 -10 -24 -10 -15 -12 -26 -6 -30 5 -4 15 3 21 14 6 11 8 20 5 20 -3 0 2 11 11 25 9 14 13 25 9 25 -4 0 -2 7 5 15 7 8 9 15 5 15 -4 0 -2 6 4 14 8 10 9 16 1 21 -5 3 -11 4 -11 1z M2744 4026 c-4 -10 -2 -22 4 -28 8 -8 13 -7 18 6 4 10 2 22 -4 28 -8 8 -13 7 -18 -6z M10064 4026 c-4 -10 -2 -22 4 -28 8 -8 13 -7 18 6 4 10 2 22 -4 28 -8 8 -13 7 -18 -6z M4605 3948 c-9 -24 -1 -103 10 -103 14 0 19 95 6 108 -7 7 -12 5 -16 -5z M4046 3942 c-7 -12 -1 -47 9 -47 12 0 16 43 6 50 -5 3 -12 2 -15 -3z M8555 3940 c-4 -6 -1 -17 5 -25 7 -8 9 -15 5 -15 -4 0 -2 -7 5 -15 7 -8 9 -15 5 -15 -4 0 -2 -7 5 -15 7 -8 9 -15 6 -15 -4 0 -2 -9 4 -20 6 -11 15 -18 21 -15 5 4 4 15 -3 28 -7 12 -13 25 -14 30 -1 4 -3 9 -4 12 -1 3 -3 9 -4 14 0 5 -4 12 -8 16 -4 4 -4 13 -2 20 7 16 -12 29 -21 15z M7964 3896 c-4 -10 -2 -22 4 -28 8 -8 13 -7 18 6 4 10 2 22 -4 28 -8 8 -13 7 -18 -6z M2724 3876 c-8 -21 3 -49 16 -41 5 3 10 15 10 25 0 25 -18 36 -26 16z M3264 3846 c-4 -10 -2 -22 4 -28 8 -8 13 -7 18 6 4 10 2 22 -4 28 -8 8 -13 7 -18 -6z M5361 3806 c-18 -19 -29 -36 -23 -39 5 -4 23 9 41 27 18 19 29 36 23 39 -5 4 -23 -9 -41 -27z M9316 3761 c-21 -21 -34 -41 -29 -44 6 -4 27 11 47 32 21 21 34 41 29 44 -6 4 -27 -11 -47 -32z M2716 3768 c-9 -27 -1 -203 9 -201 13 4 16 201 4 209 -5 3 -11 -1 -13 -8z M3255 3758 c-9 -22 -2 -68 10 -71 14 -3 19 63 6 76 -7 7 -12 5 -16 -5z M7997 3744 c-4 -4 -3 -12 1 -18 4 -6 7 -14 8 -18 1 -5 3 -10 4 -13 1 -3 3 -9 4 -15 0 -5 4 -10 9 -10 4 0 10 0 13 0 4 0 1 7 -6 15 -7 8 -9 15 -5 15 4 0 1 7 -6 17 -8 9 -12 18 -11 20 6 8 -4 13 -11 7z M4656 3722 c-3 -5 5 -19 18 -31 13 -13 26 -18 30 -13 3 5 -5 19 -18 31 -13 13 -26 18 -30 13z M5193 3685 c-24 -13 -43 -21 -43 -18 0 3 -7 0 -15 -7 -8 -7 -15 -9 -15 -4 0 4 -5 3 -11 -3 -6 -6 -17 -9 -24 -7 -16 7 -29 -12 -15 -21 6 -4 17 -1 25 5 8 7 15 9 15 5 0 -4 7 -2 15 5 8 7 15 9 15 5 0 -4 7 -2 15 5 8 7 15 10 15 6 0 -4 18 3 40 14 23 12 38 25 35 30 -8 12 -3 14 -52 -15z M9183 3665 c-24 -13 -43 -21 -43 -17 0 3 -5 1 -11 -5 -6 -6 -17 -9 -24 -7 -16 7 -29 -12 -15 -21 6 -4 17 -1 25 5 8 7 15 9 15 5 0 -4 7 -2 15 5 8 7 15 10 15 6 0 -4 18 3 40 14 23 12 38 25 35 30 -8 12 -3 14 -52 -15z M8735 3670 c-3 -5 8 -16 25 -25 16 -8 30 -13 30 -9 0 4 7 1 15 -6 8 -7 15 -9 15 -5 0 4 7 2 15 -5 8 -6 19 -9 25 -5 14 9 1 28 -15 21 -7 -2 -16 -2 -20 2 -4 4 -10 7 -13 7 -4 1 -21 9 -39 18 -19 10 -34 13 -38 7z M3254 3636 c-8 -21 3 -49 16 -41 5 3 10 15 10 25 0 25 -18 36 -26 16z M5005 3630 c-8 -12 20 -24 35 -15 6 3 8 11 5 16 -8 12 -32 12 -40 -1z M8037 3634 c-9 -10 42 -106 53 -99 6 4 -1 27 -15 56 -27 51 -28 53 -38 43z M8885 3620 c-8 -13 20 -24 41 -16 20 8 9 26 -16 26 -10 0 -22 -5 -25 -10z M9025 3620 c-8 -12 20 -24 35 -15 6 3 8 11 5 16 -8 12 -32 12 -40 -1z M7304 3606 c-4 -10 -2 -22 4 -28 8 -8 13 -7 18 6 4 10 2 22 -4 28 -8 8 -13 7 -18 -6z M4067 3594 c-4 -4 -3 -12 1 -18 4 -6 7 -14 8 -18 1 -5 3 -10 4 -13 1 -3 3 -9 4 -15 0 -5 4 -10 9 -10 4 0 10 0 13 0 4 0 1 7 -6 15 -7 8 -9 15 -5 15 4 0 1 7 -6 17 -8 9 -12 18 -11 20 6 8 -4 13 -11 7z M634 3576 c-4 -10 -2 -22 4 -28 8 -8 13 -7 18 6 4 10 2 22 -4 28 -8 8 -13 7 -18 -6z M9406 3401 c-21 -23 -6 -36 20 -16 14 10 16 17 8 25 -7 7 -15 5 -28 -9z M5399 3373 c-1 -4 -1 -12 0 -16 1 -4 -5 -7 -13 -5 -8 2 -15 -1 -15 -7 -1 -5 9 -9 21 -9 22 0 34 29 17 40 -5 3 -10 2 -10 -3z M4186 3362 c-3 -5 8 -21 23 -36 16 -15 31 -23 35 -18 3 5 -8 21 -23 36 -16 15 -31 23 -35 18z M8236 3362 c-3 -5 3 -17 13 -26 11 -10 22 -13 25 -8 3 5 -3 17 -13 26 -11 10 -22 13 -25 8z M8345 3280 c-3 -5 17 -21 45 -35 27 -14 50 -23 50 -20 0 3 11 -2 25 -11 14 -9 25 -13 25 -9 0 4 6 2 14 -4 10 -8 16 -9 21 -1 3 5 4 11 1 11 -3 1 -9 2 -13 3 -5 1 -19 8 -33 16 -14 7 -26 13 -28 12 -1 -1 -24 9 -52 23 -28 14 -51 21 -55 15z M3353 3235 c-24 -13 -43 -21 -43 -17 0 3 -5 1 -11 -5 -6 -6 -17 -9 -24 -7 -16 7 -29 -12 -15 -21 6 -4 17 -1 25 5 8 7 15 9 15 5 0 -4 7 -2 15 5 8 7 15 10 15 6 0 -4 18 3 40 14 23 12 38 25 35 30 -8 12 -3 14 -52 -15z M5377 3253 c-7 -13 -1 -58 8 -56 11 4 16 51 5 58 -5 3 -11 2 -13 -2z M9387 3253 c-2 -5 -4 -19 -2 -33 l2 -25 271 0 c176 0 271 4 269 10 -1 6 -98 11 -262 12 -226 1 -260 3 -257 16 3 17 -14 32 -21 20z M573 3236 c-7 -13 -43 -16 -256 -18 -339 -4 -336 -22 5 -26 253 -2 257 -2 268 19 14 26 -3 50 -17 25z M2915 3240 c-3 -5 8 -16 25 -25 16 -8 30 -13 30 -9 0 4 7 1 15 -6 8 -7 15 -9 15 -5 0 4 6 2 14 -4 10 -8 16 -9 21 -1 3 5 4 11 1 11 -16 4 -26 7 -31 9 -3 1 -8 3 -12 4 -5 1 -22 10 -40 19 -19 10 -34 13 -38 7z M5146 3243 c-4 -5 -12 -9 -17 -9 -5 -1 -11 -3 -14 -4 -3 -1 -9 -3 -15 -4 -5 0 -10 -4 -10 -8 0 -5 0 -11 0 -14 0 -4 7 -1 15 6 8 7 15 9 15 5 0 -4 6 -3 13 3 6 6 15 11 20 11 8 1 11 11 5 17 -3 2 -8 1 -12 -3z M4365 3230 c-3 -5 8 -16 25 -25 16 -8 30 -13 30 -9 0 4 6 1 14 -5 10 -8 16 -9 21 -1 3 5 4 11 1 11 -3 1 -9 2 -13 3 -5 1 -22 10 -40 19 -19 10 -34 13 -38 7z M7234 3230 c-7 -7 -106 -12 -270 -13 -165 -1 -259 -6 -259 -12 0 -18 531 -17 546 1 15 18 -1 40 -17 24z M9156 3223 c-4 -5 -12 -9 -17 -9 -5 -1 -11 -3 -14 -4 -3 -1 -9 -3 -15 -4 -5 0 -10 -4 -10 -8 0 -5 0 -11 0 -14 0 -4 7 -1 15 6 8 7 15 9 15 5 0 -4 6 -3 13 3 6 6 15 11 20 11 8 1 11 11 5 17 -3 2 -8 1 -12 -3z M5425 3210 c-3 -6 0 -12 7 -15 26 -10 503 0 501 10 -4 14 -499 19 -508 5z M3065 3191 c-3 -5 -2 -12 3 -15 12 -7 47 -1 47 9 0 12 -43 16 -50 6z M3185 3190 c-8 -13 20 -24 41 -16 20 8 9 26 -16 26 -10 0 -22 -5 -25 -10z M8635 3180 c-8 -12 20 -24 35 -15 6 3 8 11 5 16 -8 12 -32 12 -40 -1z M8995 3180 c-8 -12 20 -24 35 -15 6 3 8 11 5 16 -8 12 -32 12 -40 -1z M4575 3171 c-7 -13 17 -24 40 -19 9 1 16 8 16 13 0 14 -48 19 -56 6z M4745 3169 c-8 -12 6 -16 45 -15 19 1 35 6 35 11 0 12 -73 16 -80 4z M8715 3171 c-3 -5 -2 -12 3 -15 12 -7 62 -1 65 9 3 11 -61 17 -68 6z M8874 3168 c-6 -10 6 -14 41 -13 17 0 30 5 30 10 0 11 -64 14 -71 3z"/>
  </g>
</svg>