<?xml version="1.0" encoding="UTF-8"?>
<svg xmlns="http://www.w3.org/2000/svg" viewBox="0 0 2380.000000 1406.000000" width="2380.000000pt" height="1406.000000pt">
  <title>FluidAlp Logo</title>
  <!-- orange -->
  <g fill="#e8952c" fill-rule="evenodd">
    <path d="M16610 13964 c-158 -112 -366 -265 -720 -528 -2185 -1624 -3472 -2500 -4920 -3348 -469 -274 -767 -441 -1255 -700 -1931 -1026 -3843 -1710 -5420 -1938 -44 -6 -91 -13 -105 -16 -22 -3 -299 -35 -430 -49 -25 -2 -88 -7 -140 -10 -52 -4 -108 -9 -125 -11 -16 -3 -212 -8 -435 -11 -223 -2 -407 -7 -409 -9 -2 -2 -10 1 -17 7 -15 13 -104 8 -104 -6 0 -5 24 -10 54 -11 29 -1 57 -4 62 -6 5 -3 58 -9 118 -13 61 -4 121 -9 135 -10 15 -2 91 -6 171 -10 80 -3 168 -8 195 -11 57 -5 898 -5 960 0 22 2 110 7 195 11 85 3 169 8 185 10 17 2 68 6 115 10 780 55 1705 225 2554 470 589 170 1111 354 1945 687 947 378 1203 459 1451 461 216 2 333 -80 396 -276 42 -134 43 -239 4 -361 -40 -124 -172 -383 -371 -731 -274 -477 -448 -810 -430 -828 6 -6 27 25 62 94 546 1091 1321 2007 2184 2580 713 474 1556 755 2416 807 231 13 723 6 885 -13 22 -2 102 -12 179 -20 170 -19 402 -57 590 -97 212 -44 327 -58 470 -57 510 4 1008 236 1575 734 80 70 164 143 187 162 61 50 46 55 -58 21 -1267 -407 -1961 213 -2039 1822 -7 156 -5 541 5 660 2 30 7 100 10 155 3 55 8 118 11 140 2 22 8 90 14 150 6 61 13 127 16 148 9 57 -13 49 -166 -59z M14145 6470 c-4 -6 -4 -14 -1 -17 3 -3 1 -12 -5 -19 -6 -7 -8 -18 -4 -24 9 -14 28 -1 21 15 -2 7 1 18 7 24 8 8 8 14 0 22 -8 8 -13 8 -18 -1z M12214 6318 c-20 -35 -39 -66 -41 -70 -2 -4 1 -9 6 -12 5 -3 22 15 37 41 15 27 34 58 41 70 9 13 10 23 4 27 -5 3 -26 -22 -47 -56z M14105 6280 c-4 -6 -4 -14 -1 -17 3 -3 1 -12 -5 -19 -6 -7 -8 -18 -4 -24 9 -14 28 -1 21 15 -2 7 1 18 7 24 8 8 8 14 0 22 -8 8 -13 8 -18 -1z M12034 6018 c-20 -35 -39 -66 -41 -70 -2 -4 1 -9 6 -12 5 -3 22 15 37 41 15 27 34 58 41 70 9 13 10 23 4 27 -5 3 -26 -22 -47 -56z M14595 6060 c-4 -6 -4 -14 -1 -17 3 -3 1 -12 -5 -19 -6 -7 -8 -18 -4 -24 9 -14 28 -1 21 15 -2 7 1 18 7 24 8 8 8 14 0 22 -8 8 -13 8 -18 -1z M14055 6040 c-4 -6 -4 -14 -1 -17 3 -3 1 -12 -5 -19 -6 -7 -8 -18 -4 -24 9 -14 28 -1 21 15 -2 7 1 18 7 24 8 8 8 14 0 22 -8 8 -13 8 -18 -1z M12584 5896 c-4 -10 -2 -22 4 -28 8 -8 13 -7 18 6 4 10 2 22 -4 28 -8 8 -13 7 -18 -6z M11914 5818 c-20 -35 -39 -66 -41 -70 -2 -4 1 -9 6 -12 5 -3 22 15 37 41 15 27 34 58 41 70 9 13 10 23 4 27 -5 3 -26 -22 -47 -56z M12615 5739 c-4 -6 -3 -15 3 -21 6 -6 8 -16 6 -23 -3 -7 -1 -16 5 -19 14 -9 25 14 13 26 -6 6 -8 16 -6 23 7 17 -12 29 -21 14z M11794 5618 c-20 -35 -39 -66 -41 -70 -2 -4 1 -9 6 -12 5 -3 22 15 37 41 15 27 34 58 41 70 9 13 10 23 4 27 -5 3 -26 -22 -47 -56z M13975 5660 c-4 -6 -4 -14 -1 -17 3 -3 1 -12 -5 -19 -6 -7 -8 -18 -4 -24 9 -14 28 -1 21 15 -2 7 1 18 7 24 8 8 8 14 0 22 -8 8 -13 8 -18 -1z M16305 5570 c-3 -5 0 -13 8 -15 24 -10 202 -1 202 10 0 14 -201 19 -210 5z M15727 5563 c-3 -5 0 -22 8 -36 8 -15 14 -30 15 -32 0 -7 10 -6 10 0 0 3 0 6 -1 8 0 1 -2 12 -3 25 -3 27 -21 48 -29 35z M16226 5561 c-4 -6 -13 -8 -20 -5 -8 3 -17 0 -21 -5 -3 -6 -11 -9 -16 -5 -5 3 -15 1 -22 -4 -7 -6 -15 -11 -19 -11 -5 -1 -9 -1 -10 -2 -2 0 -13 -2 -26 -5 -12 -2 -42 -14 -65 -26 -23 -12 -45 -22 -49 -23 -5 0 -8 -3 -8 -7 0 -7 5 -10 13 -7 1 0 9 2 17 4 8 2 38 13 65 26 28 12 53 23 57 23 3 1 9 4 13 8 4 4 13 4 20 2 7 -3 16 0 20 5 3 6 11 9 16 6 5 -4 15 -3 21 2 7 4 21 7 30 8 10 0 18 5 18 10 1 14 -27 19 -34 6z M16555 5560 c-8 -13 20 -24 41 -16 20 8 9 26 -16 26 -10 0 -22 -5 -25 -10z M16685 5541 c-7 -12 12 -24 24 -16 5 3 13 0 16 -6 4 -5 13 -8 20 -5 7 2 16 2 20 -2 4 -4 11 -8 16 -8 5 -1 11 -3 14 -4 3 -1 8 -3 13 -4 4 -1 17 -7 30 -14 12 -7 22 -10 22 -7 0 3 17 -5 38 -18 63 -40 80 -48 87 -38 5 10 -71 61 -97 65 -7 1 -23 8 -35 14 -13 7 -23 10 -23 6 0 -3 -7 -1 -15 6 -8 7 -15 9 -15 5 0 -4 -7 -2 -15 5 -8 7 -15 9 -15 5 0 -4 -7 -2 -15 5 -8 6 -19 9 -24 6 -5 -4 -12 -2 -16 4 -8 13 -22 13 -30 1z M15395 5510 c-8 -12 20 -24 35 -15 6 3 8 11 5 16 -8 12 -32 12 -40 -1z M15225 5480 c-8 -12 20 -24 35 -15 6 3 8 11 5 16 -8 12 -32 12 -40 -1z M13938 5475 c-3 -23 -5 -31 -13 -48 -4 -10 -5 -21 -1 -24 3 -3 1 -12 -5 -19 -6 -7 -8 -18 -4 -24 9 -14 28 -1 21 16 -3 7 -1 16 5 20 5 3 9 13 7 22 -1 10 1 23 6 30 5 8 4 18 -3 25 -6 6 -12 7 -13 2z M12191 5441 c-12 -21 -6 -28 19 -27 18 1 20 38 3 43 -6 2 -16 -5 -22 -16z M15917 5444 c-38 -20 -24 -38 14 -19 16 9 27 20 24 25 -7 12 -4 13 -38 -6z M12150 5371 c-11 -23 -16 -42 -10 -46 5 -3 18 12 30 34 11 23 16 42 10 46 -5 3 -18 -12 -30 -34z M15214 5386 c-4 -10 -2 -22 4 -28 8 -8 13 -7 18 6 4 10 2 22 -4 28 -8 8 -13 7 -18 -6z M17037 5383 c-4 -5 16 -31 42 -57 27 -26 51 -44 54 -39 4 5 -16 31 -42 57 -27 26 -51 44 -54 39z M15224 5316 c-4 -10 -2 -22 4 -28 8 -8 13 -7 18 6 4 10 2 22 -4 28 -8 8 -13 7 -18 -6z M12704 5306 c-4 -9 -1 -22 5 -30 6 -7 8 -16 5 -19 -4 -3 -4 -14 0 -23 5 -13 10 -14 18 -6 6 6 7 18 3 29 -5 10 -7 25 -6 35 3 22 -18 33 -25 14z M12067 5218 c-53 -97 -55 -102 -43 -106 13 -5 109 175 97 182 -5 4 -30 -31 -54 -76z M12234 5246 c-4 -10 -2 -22 4 -28 8 -8 13 -7 18 6 4 10 2 22 -4 28 -8 8 -13 7 -18 -6z M15235 5228 c-7 -23 0 -88 10 -88 13 0 17 88 5 95 -6 4 -12 0 -15 -7z M12725 5199 c-4 -6 -3 -15 3 -21 6 -6 8 -16 6 -23 -3 -7 -1 -16 5 -19 14 -9 25 14 13 26 -6 6 -8 16 -6 23 7 17 -12 29 -21 14z M17187 5204 c-9 -10 32 -86 43 -79 6 4 1 23 -10 46 -22 41 -23 43 -33 33z M16155 5100 c-3 -6 -11 -8 -16 -4 -5 3 -16 0 -24 -6 -8 -7 -15 -9 -15 -5 0 4 -7 2 -15 -5 -8 -7 -15 -9 -15 -5 0 4 -11 0 -25 -9 -14 -9 -25 -14 -25 -11 0 3 -23 -6 -50 -20 -28 -14 -48 -30 -45 -35 4 -6 27 1 55 15 28 14 51 24 52 23 2 -1 14 5 28 12 14 8 28 15 33 16 4 1 10 3 15 4 4 1 12 3 17 5 6 1 15 3 20 5 6 1 18 3 27 4 10 0 18 6 18 11 1 14 -27 18 -35 5z M16305 5100 c-8 -12 20 -24 35 -15 6 3 8 11 5 16 -8 12 -32 12 -40 -1z M11957 5018 c-53 -97 -55 -102 -43 -106 13 -5 109 175 97 182 -5 4 -30 -31 -54 -76z M17236 5091 c-4 -5 -2 -12 4 -16 6 -4 8 -10 5 -15 -3 -5 -1 -11 5 -15 6 -4 8 -10 5 -15 -3 -5 -1 -11 4 -15 6 -3 8 -12 5 -19 -3 -8 -1 -17 5 -20 6 -4 8 -13 5 -20 -7 -17 12 -30 21 -16 4 6 2 17 -4 24 -6 7 -8 16 -5 19 3 3 2 12 -2 19 -5 7 -9 16 -10 21 -1 4 -3 9 -4 12 -1 3 -4 10 -5 15 -1 6 -4 12 -5 15 -1 3 -3 9 -4 14 -2 16 -14 23 -20 12z M16415 5080 c-3 -5 -4 -11 -1 -11 3 -1 9 -2 14 -3 4 -1 17 -7 29 -14 13 -7 24 -8 28 -3 3 6 -4 15 -15 21 -11 6 -20 8 -20 4 0 -3 -6 -1 -14 5 -10 8 -16 9 -21 1z M13845 5040 c-4 -6 -4 -14 -1 -17 3 -3 1 -12 -5 -19 -6 -7 -8 -18 -4 -24 9 -14 28 -1 21 15 -2 7 1 18 7 24 8 8 8 14 0 22 -8 8 -13 8 -18 -1z M15237 5033 c-8 -15 -2 -68 8 -68 12 0 16 63 4 70 -4 3 -9 2 -12 -2z M15879 4982 c-29 -24 -11 -36 20 -13 14 11 19 21 13 25 -5 3 -20 -2 -33 -12z M12284 4916 c-4 -10 -2 -22 4 -28 8 -8 13 -7 18 6 4 10 2 22 -4 28 -8 8 -13 7 -18 -6z M16647 4924 c-3 -5 3 -20 12 -33 11 -14 21 -19 25 -13 3 5 -2 20 -12 33 -11 12 -21 18 -25 13z M17284 4906 c-4 -10 -2 -22 4 -28 8 -8 13 -7 18 6 4 10 2 22 -4 28 -8 8 -13 7 -18 -6z M11865 4851 c-14 -29 -21 -52 -15 -56 5 -3 21 17 35 44 14 29 21 52 15 56 -5 3 -21 -17 -35 -44z M15754 4866 c-4 -10 -2 -22 4 -28 8 -8 13 -7 18 6 4 10 2 22 -4 28 -8 8 -13 7 -18 -6z M12294 4856 c-4 -10 -2 -22 4 -28 8 -8 13 -7 18 6 4 10 2 22 -4 28 -8 8 -13 7 -18 -6z M16687 4864 c-3 -4 -1 -16 5 -28 7 -11 13 -24 14 -28 1 -5 3 -10 4 -13 1 -3 3 -9 4 -14 0 -5 4 -12 8 -16 4 -4 4 -13 2 -20 -7 -16 12 -29 21 -15 4 6 1 18 -7 27 -7 9 -12 18 -10 20 1 1 1 5 1 8 -1 3 -3 10 -4 15 -1 6 -3 11 -5 13 -1 1 -3 10 -5 21 -4 23 -19 39 -28 30z M13805 4850 c-4 -6 -4 -14 -1 -17 3 -3 1 -12 -5 -19 -6 -7 -8 -18 -4 -24 9 -14 28 -1 21 15 -2 7 1 18 7 24 8 8 8 14 0 22 -8 8 -13 8 -18 -1z M15214 4836 c-4 -10 -2 -22 4 -28 8 -8 13 -7 18 6 4 10 2 22 -4 28 -8 8 -13 7 -18 -6z M17294 4837 c-7 -20 -2 -47 11 -50 14 -3 19 43 6 56 -7 7 -12 6 -17 -6z M12304 4786 c-4 -10 -2 -22 4 -28 8 -8 13 -7 18 6 4 10 2 22 -4 28 -8 8 -13 7 -18 -6z M11810 4751 c-11 -23 -16 -42 -10 -46 5 -3 18 12 30 34 11 23 16 42 10 46 -5 3 -18 -12 -30 -34z M15724 4706 c-4 -10 -2 -22 4 -28 8 -8 13 -7 18 6 4 10 2 22 -4 28 -8 8 -13 7 -18 -6z M14315 4700 c-4 -6 -4 -14 -1 -17 3 -3 1 -12 -5 -19 -6 -7 -8 -18 -4 -24 9 -14 28 -1 21 15 -2 7 1 18 7 24 8 8 8 14 0 22 -8 8 -13 8 -18 -1z M11760 4661 c-11 -23 -16 -42 -10 -46 5 -3 18 12 30 34 11 23 16 42 10 46 -5 3 -18 -12 -30 -34z M16736 4688 c-9 -27 -1 -198 9 -198 12 0 16 198 4 206 -5 3 -11 -1 -13 -8z M12324 4656 c-4 -10 -2 -22 4 -28 8 -8 13 -7 18 6 4 10 2 22 -4 28 -8 8 -13 7 -18 -6z M13768 4665 c-3 -23 -5 -31 -13 -48 -4 -10 -5 -21 -1 -24 3 -3 1 -12 -5 -19 -6 -7 -8 -18 -4 -24 9 -14 28 -1 21 16 -3 7 -1 16 5 20 5 3 9 13 7 22 -1 10 1 23 6 30 5 8 4 18 -3 25 -6 6 -12 7 -13 2z M11700 4551 c-11 -23 -16 -42 -10 -46 5 -3 18 12 30 34 11 23 16 42 10 46 -5 3 -18 -12 -30 -34z M12344 4526 c-4 -10 -2 -22 4 -28 8 -8 13 -7 18 6 4 10 2 22 -4 28 -8 8 -13 7 -18 -6z M17294 4527 c-7 -20 -2 -47 11 -50 14 -3 19 43 6 56 -7 7 -12 6 -17 -6z M12865 4509 c-4 -6 -3 -15 3 -21 6 -6 8 -16 6 -23 -3 -7 -1 -16 5 -19 14 -9 25 14 13 26 -6 6 -8 16 -6 23 7 17 -12 29 -21 14z M11645 4451 c-14 -29 -21 -52 -15 -56 5 -3 21 17 35 44 14 29 21 52 15 56 -5 3 -21 -17 -35 -44z M12354 4456 c-4 -10 -2 -22 4 -28 8 -8 13 -7 18 6 4 10 2 22 -4 28 -8 8 -13 7 -18 -6z M11076 4418 c-22 -36 -27 -75 -6 -51 23 27 49 82 41 87 -5 4 -21 -13 -35 -36z M16728 4433 c-8 -14 -3 -38 7 -41 12 -3 16 36 4 43 -4 3 -9 2 -11 -2z M17284 4416 c-8 -21 3 -49 16 -41 5 3 10 15 10 25 0 25 -18 36 -26 16z M12364 4386 c-4 -10 -2 -22 4 -28 8 -8 13 -7 18 6 4 10 2 22 -4 28 -8 8 -13 7 -18 -6z M11581 4333 c-19 -35 -28 -60 -22 -66 6 -6 21 14 40 51 39 78 23 91 -18 15z M15124 4356 c-4 -9 -4 -20 0 -23 3 -3 1 -12 -5 -19 -13 -16 -4 -48 11 -39 6 4 10 14 9 23 -1 10 1 25 6 35 4 11 3 23 -3 29 -8 8 -13 7 -18 -6z M17274 4346 c-4 -10 -2 -22 4 -28 8 -8 13 -7 18 6 4 10 2 22 -4 28 -8 8 -13 7 -18 -6z M12374 4326 c-4 -10 -2 -22 4 -28 8 -8 13 -7 18 6 4 10 2 22 -4 28 -8 8 -13 7 -18 -6z M10974 4248 c-20 -35 -39 -66 -41 -70 -2 -4 1 -9 6 -12 5 -3 22 15 37 41 15 27 34 58 41 70 9 13 10 23 4 27 -5 3 -26 -22 -47 -56z M15644 4286 c-4 -10 -2 -22 4 -28 8 -8 13 -7 18 6 4 10 2 22 -4 28 -8 8 -13 7 -18 -6z M16698 4255 c-1 -13 -5 -28 -8 -37 -1 -5 -4 -12 -5 -18 -1 -5 -4 -12 -5 -15 -1 -3 -4 -9 -5 -15 -1 -5 -4 -12 -5 -15 -1 -3 -3 -8 -4 -12 -1 -5 -10 -22 -19 -40 -10 -19 -13 -34 -7 -38 5 -3 16 8 25 25 8 16 13 30 9 30 -4 0 -1 7 6 15 7 8 9 15 5 15 -4 0 -2 7 5 15 7 8 9 15 5 15 -4 0 -2 7 5 15 7 8 9 15 5 15 -4 0 -2 7 5 15 10 12 10 19 2 27 -7 7 -13 8 -14 3z M17239 4166 c-4 -16 -7 -26 -9 -31 -1 -3 -4 -9 -5 -15 -1 -5 -4 -12 -5 -15 -1 -3 -4 -9 -5 -15 -1 -5 -4 -12 -5 -15 -1 -3 -3 -8 -4 -12 -1 -5 -7 -18 -14 -30 -7 -13 -10 -23 -7 -23 3 0 -2 -11 -10 -24 -10 -15 -12 -26 -6 -30 5 -4 15 3 21 14 6 11 8 20 5 20 -3 0 2 11 11 25 9 14 13 25 9 25 -4 0 -2 7 5 15 7 8 9 15 5 15 -4 0 -2 7 5 15 7 8 9 15 5 15 -4 0 -2 7 5 15 7 8 9 15 5 15 -4 0 -2 6 4 14 8 10 9 16 1 21 -5 3 -11 4 -11 1z M15084 4146 c-4 -10 -2 -22 4 -28 8 -8 13 -7 18 6 4 10 2 22 -4 28 -8 8 -13 7 -18 -6z M10809 3973 c-29 -49 -54 -91 -56 -95 -2 -4 1 -9 6 -12 5 -3 28 27 52 67 23 39 49 82 56 94 9 13 10 23 4 27 -5 4 -33 -33 -62 -81z M16605 4021 c-9 -18 -11 -32 -5 -36 5 -3 16 8 25 24 9 18 11 32 5 36 -5 3 -16 -8 -25 -24z M14174 3986 c-4 -10 -2 -22 4 -28 8 -8 13 -7 18 6 4 10 2 22 -4 28 -8 8 -13 7 -18 -6z M16566 3955 c-16 -24 -6 -45 11 -22 19 24 23 36 14 41 -5 3 -16 -5 -25 -19z M14164 3926 c-4 -10 -2 -22 4 -28 8 -8 13 -7 18 6 4 10 2 22 -4 28 -8 8 -13 7 -18 -6z M16516 3891 c-10 -11 -13 -22 -8 -25 5 -3 17 3 26 13 10 11 13 22 8 25 -5 3 -17 -3 -26 -13z M10707 3803 c-20 -32 -33 -62 -30 -67 7 -10 31 20 63 76 34 61 5 53 -33 -9z M11295 3831 c-9 -18 -11 -32 -5 -36 5 -3 16 8 25 24 9 18 11 32 5 36 -5 3 -16 -8 -25 -24z M14154 3846 c-4 -10 -2 -22 4 -28 8 -8 13 -7 18 6 4 10 2 22 -4 28 -8 8 -13 7 -18 -6z M17095 3831 c-9 -18 -11 -32 -5 -36 5 -3 16 8 25 24 9 18 11 32 5 36 -5 3 -16 -8 -25 -24z M13005 3819 c-4 -6 -3 -15 3 -21 6 -6 8 -16 6 -23 -3 -7 -1 -16 5 -19 14 -9 25 14 13 26 -6 6 -8 16 -6 23 7 17 -12 29 -21 14z M16431 3806 c-13 -13 -18 -26 -13 -30 5 -3 19 5 31 18 13 13 18 26 13 30 -5 3 -19 -5 -31 -18z M13614 3797 c-7 -20 -2 -47 11 -50 14 -3 19 43 6 56 -7 7 -12 6 -17 -6z M11242 3738 c-26 -45 -34 -86 -12 -61 23 25 60 102 51 107 -5 3 -23 -17 -39 -46z M14147 3763 c-9 -14 -4 -164 5 -169 5 -3 6 -9 3 -14 -9 -15 15 -64 26 -53 6 6 6 19 -2 39 -7 16 -12 66 -11 111 1 73 -8 108 -21 86z M15549 3768 c-13 -30 10 -84 25 -59 4 5 2 12 -3 16 -6 3 -8 12 -5 19 4 11 -13 35 -17 24z M16318 3730 c-27 -17 -48 -28 -48 -25 0 3 -10 0 -22 -7 -13 -6 -29 -13 -36 -14 -8 -1 -21 -6 -30 -10 -9 -4 -20 -8 -24 -8 -5 -1 -8 -4 -8 -8 0 -5 0 -11 0 -14 0 -4 6 -1 13 5 8 6 17 8 20 5 4 -4 18 1 32 10 14 9 25 14 25 11 0 -3 10 0 23 7 12 6 28 13 34 14 24 4 83 46 77 55 -7 11 -1 13 -56 -21z M15595 3690 c-6 -10 93 -65 103 -56 3 3 11 1 18 -5 8 -7 14 -7 19 1 3 5 4 11 1 11 -22 5 -65 23 -106 44 -17 9 -31 11 -35 5z M11185 3641 c-9 -18 -11 -32 -5 -36 5 -3 16 8 25 24 9 18 11 32 5 36 -5 3 -16 -8 -25 -24z M16045 3640 c-8 -12 20 -24 35 -15 6 3 8 11 5 16 -8 12 -32 12 -40 -1z M16956 3631 c-10 -11 -13 -22 -8 -25 5 -3 17 3 26 13 10 11 13 22 8 25 -5 3 -17 -3 -26 -13z M15755 3630 c-8 -13 20 -24 41 -16 20 8 9 26 -16 26 -10 0 -22 -5 -25 -10z M15944 3629 c-6 -10 6 -14 33 -14 13 0 24 5 25 10 3 11 -51 15 -58 4z M10539 3523 c-29 -49 -54 -91 -56 -95 -2 -4 1 -9 6 -12 5 -3 28 27 52 67 23 39 49 82 56 94 9 13 10 23 4 27 -5 4 -33 -33 -62 -81z M11115 3518 c-26 -46 -49 -86 -52 -90 -2 -4 1 -9 6 -12 7 -5 39 44 108 166 2 4 -1 9 -6 12 -5 3 -30 -31 -56 -76z M13614 3576 c-4 -10 -2 -22 4 -28 8 -8 13 -7 18 6 4 10 2 22 -4 28 -8 8 -13 7 -18 -6z M14964 3506 c-4 -10 -2 -22 4 -28 8 -8 13 -7 18 6 4 10 2 22 -4 28 -8 8 -13 7 -18 -6z M14206 3482 c-3 -5 3 -17 13 -26 11 -10 22 -13 25 -8 3 5 -3 17 -13 26 -11 10 -22 13 -25 8z M13637 3473 c-4 -3 -2 -12 4 -20 6 -7 9 -13 5 -13 -4 0 3 -18 14 -40 12 -23 25 -38 30 -35 6 4 1 24 -12 48 -12 23 -22 45 -23 49 0 11 -11 18 -18 11z M14265 3431 c-6 -11 53 -46 63 -37 3 3 11 1 18 -5 7 -6 18 -8 24 -4 13 8 3 26 -13 24 -11 -2 -58 14 -78 26 -4 3 -10 1 -14 -4z M12514 3406 c-4 -10 -2 -22 4 -28 8 -8 13 -7 18 6 4 10 2 22 -4 28 -8 8 -13 7 -18 -6z M11035 3381 c-9 -18 -11 -32 -5 -36 5 -3 16 8 25 24 9 18 11 32 5 36 -5 3 -16 -8 -25 -24z M16568 3320 c-49 -27 -88 -47 -88 -44 0 3 -10 -1 -22 -8 -13 -7 -26 -13 -30 -14 -5 -1 -10 -3 -13 -4 -3 -1 -9 -4 -15 -5 -5 -1 -12 -4 -15 -5 -3 -1 -9 -3 -15 -4 -5 0 -10 -4 -10 -8 0 -5 0 -11 0 -14 0 -4 7 -1 15 6 8 7 15 9 15 5 0 -4 7 -2 15 5 8 7 15 9 15 5 0 -4 7 -2 15 5 8 7 15 9 15 5 0 -4 11 0 25 9 14 9 25 14 25 11 0 -6 128 58 154 78 47 35 -7 21 -86 -23z M14376 3341 c-10 -11 -13 -22 -8 -25 5 -3 17 3 26 13 10 11 13 22 8 25 -5 3 -17 -3 -26 -13z M12524 3336 c-4 -10 -2 -22 4 -28 8 -8 13 -7 18 6 4 10 2 22 -4 28 -8 8 -13 7 -18 -6z M14935 3340 c-4 -6 -4 -14 -1 -17 3 -3 1 -12 -5 -19 -13 -16 -4 -48 11 -39 6 4 10 14 8 23 -1 10 1 23 6 30 5 8 4 18 -2 24 -6 6 -12 6 -17 -2z M14306 3275 c-16 -13 -24 -25 -18 -29 6 -3 23 4 38 17 36 31 18 42 -20 12z M10965 3261 c-9 -18 -11 -32 -5 -36 5 -3 16 8 25 24 9 18 11 32 5 36 -5 3 -16 -8 -25 -24z M15454 3265 c-9 -23 5 -38 23 -23 9 7 18 12 20 11 15 -11 14 1 -1 12 -25 19 -35 19 -42 0z M10372 3243 c-23 -49 -27 -48 288 -48 192 0 294 4 293 10 -2 6 -106 10 -287 10 -263 0 -283 1 -275 17 6 10 5 19 0 23 -6 3 -14 -2 -19 -12z M13815 3240 c-3 -5 8 -16 25 -25 16 -8 30 -13 30 -9 0 4 7 1 15 -6 8 -7 15 -9 15 -5 0 4 7 2 15 -5 8 -6 19 -9 25 -5 14 9 1 28 -15 21 -7 -2 -16 -2 -20 2 -4 4 -10 7 -13 7 -4 1 -21 9 -39 18 -19 10 -34 13 -38 7z M14245 3237 c-11 -6 -29 -13 -40 -14 -11 -2 -24 -8 -29 -13 -4 -4 -14 -6 -21 -4 -16 7 -29 -12 -15 -21 6 -4 17 -2 24 4 7 6 15 8 19 5 3 -3 16 0 29 7 12 7 29 14 37 15 19 3 35 21 24 27 -5 3 -17 0 -28 -6z M15535 3240 c-3 -5 -4 -11 -1 -11 3 -1 9 -2 14 -3 4 -1 18 -8 30 -15 13 -7 26 -10 29 -7 4 3 12 1 20 -5 7 -6 13 -8 13 -4 0 4 7 2 15 -5 8 -6 19 -9 25 -5 14 9 1 28 -15 21 -7 -2 -16 -2 -20 2 -4 4 -10 7 -13 8 -4 0 -15 4 -24 8 -9 4 -22 8 -30 10 -7 1 -18 5 -25 9 -6 4 -14 3 -18 -3z M13125 3231 c-4 -8 -91 -11 -288 -11 -155 0 -286 0 -291 0 -5 0 -3 -7 4 -15 19 -23 571 -22 590 0 9 11 10 19 3 26 -8 8 -13 7 -18 0z M16316 3221 c-4 -6 -13 -8 -20 -5 -17 7 -30 -12 -16 -21 6 -4 16 -2 23 3 7 6 15 11 20 11 8 1 11 11 4 17 -3 3 -8 1 -11 -5z M13985 3190 c-3 -5 0 -13 8 -16 23 -8 102 0 102 11 0 14 -102 19 -110 5z M14904 3186 c-4 -10 -2 -22 4 -28 8 -8 13 -7 18 6 4 10 2 22 -4 28 -8 8 -13 7 -18 -6z M16085 3181 c-7 -13 17 -24 40 -19 9 1 16 8 16 13 0 14 -48 19 -56 6z M15835 3170 c-9 -15 8 -18 100 -16 54 0 89 5 88 11 -3 12 -181 16 -188 5z M15434 3156 c-4 -10 -2 -22 4 -28 8 -8 13 -7 18 6 4 10 2 22 -4 28 -8 8 -13 7 -18 -6z M14864 2976 c-4 -10 -2 -22 4 -28 8 -8 13 -7 18 6 4 10 2 22 -4 28 -8 8 -13 7 -18 -6z M14824 2766 c-4 -10 -2 -22 4 -28 8 -8 13 -7 18 6 4 10 2 22 -4 28 -8 8 -13 7 -18 -6z M15364 2766 c-4 -10 -2 -22 4 -28 8 -8 13 -7 18 6 4 10 2 22 -4 28 -8 8 -13 7 -18 -6z M15314 2486 c-4 -10 -2 -22 4 -28 8 -8 13 -7 18 6 4 10 2 22 -4 28 -8 8 -13 7 -18 -6z"/>
  </g>
</svg>