<?xml version="1.0" encoding="UTF-8"?>
<svg xmlns="http://www.w3.org/2000/svg" viewBox="0 0 2380.000000 1406.000000" width="2380.000000pt" height="1406.000000pt">
  <title>FluidAlp Logo</title>
  <!-- teal_dark -->
  <g fill="#4d8b8b" fill-rule="evenodd">
    <path d="M7332 6605 c-64 -18 -93 -36 -155 -94 -80 -75 -102 -128 -102 -241 0 -113 22 -164 102 -242 228 -222 617 -68 617 243 0 227 -236 398 -462 334z M3256 6471 c-9 -13 -448 -2111 -482 -2301 -74 -409 -73 -634 0 -779 130 -255 495 -295 705 -76 69 72 70 80 8 87 -152 17 -225 127 -214 323 11 197 27 282 267 1445 33 162 81 392 105 510 24 118 70 344 103 502 33 158 57 290 54 293 -9 9 -541 5 -546 -4z M9986 6471 c-5 -7 -196 -1008 -196 -1024 0 -3 -35 13 -78 34 -336 168 -839 105 -1177 -147 -287 -212 -478 -538 -551 -939 -29 -160 -27 -500 4 -620 42 -162 101 -265 216 -380 176 -175 344 -238 636 -237 242 0 396 53 530 181 45 42 44 43 26 -54 -8 -38 -12 -73 -9 -77 8 -14 543 -10 548 5 3 6 46 237 95 512 50 275 179 988 286 1585 108 597 197 1103 198 1125 l1 40 -262 3 c-151 1 -264 -2 -267 -7z m-490 -1392 c85 -26 184 -116 184 -168 0 -48 -117 -647 -145 -746 -108 -372 -289 -545 -568 -545 -273 1 -417 180 -417 519 0 439 210 801 532 917 130 47 305 57 414 23z M575 6381 c-3 -5 -86 -450 -185 -988 -98 -538 -226 -1237 -284 -1553 -58 -317 -106 -590 -106 -608 l0 -32 289 0 c160 0 292 4 295 8 5 8 266 1435 266 1453 0 5 234 9 554 9 428 0 557 3 562 12 11 18 93 461 88 470 -3 5 -252 8 -555 8 -491 0 -549 2 -549 16 0 8 27 166 60 350 33 184 60 337 60 339 0 3 342 5 760 5 l760 0 10 23 c14 36 92 476 85 487 -8 13 -2102 14 -2110 1z M4346 5522 c-8 -13 -283 -1494 -297 -1597 -49 -372 117 -657 436 -746 66 -18 105 -22 220 -22 258 1 449 51 648 167 l48 28 -5 -23 c-19 -82 -24 -114 -20 -121 9 -14 540 -10 551 5 14 17 436 2294 428 2307 -7 12 -541 15 -549 2 -2 -4 -57 -302 -121 -662 -137 -774 -135 -763 -185 -865 -115 -237 -315 -365 -570 -365 -155 0 -237 37 -281 127 -46 93 -39 158 116 978 75 402 138 744 138 760 l2 30 -277 3 c-152 1 -279 -1 -282 -6z M6827 5523 c-11 -19 -88 -416 -83 -429 4 -11 33 -14 146 -14 130 0 141 -1 136 -17 -3 -10 -48 -250 -100 -533 -53 -283 -129 -695 -170 -914 -41 -220 -73 -403 -70 -408 8 -13 552 -10 560 3 11 19 434 2300 428 2310 -6 11 -841 12 -847 2z"/>
  </g>
  <!-- teal_light -->
  <g fill="#7ec8c8" fill-rule="evenodd">
    <path d="M7355 6609 c-4 -5 -11 -7 -16 -4 -5 4 -15 3 -21 -2 -7 -4 -19 -8 -26 -9 -27 -4 -100 -55 -135 -93 -39 -43 -82 -119 -73 -129 3 -3 1 -11 -5 -18 -6 -8 -9 -20 -6 -29 4 -8 3 -17 -2 -19 -11 -7 -7 -62 5 -58 5 1 9 14 10 30 0 15 4 34 8 43 4 9 6 20 4 25 -4 17 39 100 72 138 30 34 129 99 155 102 5 0 12 2 15 3 13 6 167 2 185 -4 52 -18 117 -50 131 -66 9 -10 21 -16 26 -13 25 16 -127 112 -158 100 -7 -3 -16 -1 -19 4 -7 12 -143 11 -150 -1z M7697 6494 c-3 -3 8 -24 24 -47 16 -22 29 -44 29 -48 0 -4 5 -20 11 -36 6 -15 12 -53 13 -83 0 -30 6 -57 11 -60 12 -6 20 85 9 109 -4 9 -8 26 -10 37 -6 49 -71 144 -87 128z M3250 6469 c-7 -11 -9 -27 -6 -34 3 -8 0 -17 -5 -21 -6 -3 -9 -15 -6 -25 3 -10 1 -22 -4 -25 -6 -3 -9 -13 -8 -22 1 -10 -1 -25 -6 -35 -4 -10 -5 -21 -1 -24 3 -3 1 -12 -4 -19 -6 -6 -12 -27 -14 -45 -2 -19 -7 -42 -11 -52 -4 -10 -5 -21 -1 -24 3 -3 1 -12 -5 -19 -6 -8 -9 -20 -6 -29 4 -8 1 -17 -4 -21 -6 -3 -9 -15 -6 -25 3 -10 1 -22 -5 -25 -5 -3 -7 -12 -4 -20 3 -7 0 -16 -5 -20 -6 -3 -9 -15 -6 -25 3 -10 1 -22 -4 -25 -6 -3 -9 -13 -8 -22 1 -10 -1 -25 -6 -35 -4 -10 -5 -21 -1 -24 3 -3 1 -12 -4 -19 -6 -6 -12 -27 -14 -45 -2 -19 -7 -42 -11 -52 -4 -10 -5 -21 -1 -24 3 -3 1 -12 -5 -19 -6 -8 -9 -20 -6 -29 4 -8 1 -17 -4 -21 -6 -3 -9 -15 -6 -25 3 -10 1 -22 -5 -25 -5 -3 -7 -12 -4 -20 3 -7 0 -16 -5 -20 -6 -3 -9 -15 -6 -25 3 -10 1 -22 -5 -25 -5 -3 -8 -15 -5 -25 3 -10 1 -22 -5 -25 -5 -3 -8 -15 -5 -25 3 -10 1 -22 -5 -25 -5 -3 -7 -12 -4 -20 3 -7 0 -16 -5 -20 -6 -3 -9 -15 -6 -25 3 -10 1 -22 -5 -25 -5 -3 -8 -15 -5 -25 3 -10 1 -22 -5 -25 -5 -3 -8 -15 -5 -25 3 -10 1 -22 -5 -25 -5 -3 -8 -15 -5 -25 3 -10 1 -22 -5 -25 -5 -3 -7 -12 -4 -20 3 -7 0 -16 -5 -20 -6 -3 -9 -15 -6 -25 3 -10 1 -22 -5 -25 -5 -3 -8 -15 -5 -25 3 -10 1 -22 -5 -25 -5 -3 -8 -15 -5 -25 3 -10 1 -22 -5 -25 -5 -3 -7 -12 -4 -20 3 -7 0 -16 -5 -20 -6 -3 -9 -15 -6 -25 3 -10 1 -22 -4 -25 -6 -3 -9 -13 -8 -22 1 -10 -1 -25 -6 -35 -4 -10 -5 -21 -1 -24 3 -3 1 -12 -4 -19 -6 -6 -12 -27 -14 -45 -2 -19 -7 -42 -11 -52 -4 -10 -5 -21 -1 -24 3 -3 1 -12 -5 -19 -6 -8 -9 -20 -6 -28 3 -7 1 -18 -5 -24 -12 -12 -1 -35 13 -26 6 3 8 12 5 20 -3 7 -1 16 5 20 5 3 9 13 8 22 -1 10 1 25 6 35 4 10 5 21 1 24 -3 3 -1 12 4 19 6 6 12 27 14 45 2 19 7 42 11 52 4 10 5 21 1 24 -3 3 -1 12 5 19 6 8 9 20 6 29 -4 8 -1 17 4 21 6 3 9 15 6 25 -3 10 -1 22 5 25 5 3 7 12 4 20 -3 7 0 16 5 20 6 3 9 15 6 25 -3 10 -1 22 5 25 5 3 8 15 5 25 -3 10 -1 22 5 25 5 3 8 15 5 25 -3 10 -1 22 5 25 5 3 7 12 4 20 -3 7 0 16 5 20 6 3 9 15 6 25 -3 10 -1 22 5 25 5 3 8 15 5 25 -3 10 -1 22 5 25 5 3 8 15 5 25 -3 10 -1 22 5 25 5 3 8 15 5 25 -3 10 -1 22 5 25 5 3 7 12 4 20 -3 7 0 16 5 20 6 3 9 15 6 25 -3 10 -1 22 5 25 5 3 8 15 5 25 -3 10 -1 22 5 25 5 3 8 15 5 25 -3 10 -1 22 5 25 5 3 7 12 4 20 -3 7 0 16 5 20 6 3 9 15 6 25 -3 10 -1 22 4 25 6 3 9 13 8 22 -1 10 1 25 6 35 4 10 5 21 1 24 -3 3 -1 12 4 19 6 6 12 27 14 45 2 19 7 42 11 52 4 10 5 21 1 24 -3 3 -1 12 5 19 6 8 9 20 6 29 -4 8 -1 17 4 21 6 3 9 15 6 25 -3 10 -1 22 5 25 5 3 7 12 4 20 -3 7 0 16 5 20 6 3 9 15 6 25 -3 10 -1 22 4 25 6 3 9 13 8 22 -1 10 1 25 6 35 4 10 5 21 1 24 -3 3 -1 12 4 19 6 6 12 27 14 45 2 19 7 42 11 52 4 10 5 21 1 24 -3 3 -1 12 5 19 6 8 9 20 6 29 -4 8 -2 17 4 21 5 3 9 13 8 22 0 10 2 27 6 40 l7 22 253 0 c213 0 254 -2 258 -15 4 -8 2 -17 -4 -21 -5 -3 -9 -13 -7 -22 1 -10 0 -21 -4 -27 -12 -21 -19 -73 -9 -79 13 -8 21 7 25 46 2 18 7 40 10 49 4 9 6 20 5 25 -1 5 1 17 5 27 21 46 14 47 -273 47 -263 0 -271 -1 -281 -21z M9979 6469 c-6 -12 -9 -30 -6 -40 3 -10 1 -22 -5 -25 -5 -3 -8 -15 -5 -25 3 -10 1 -22 -5 -25 -5 -3 -8 -15 -5 -25 3 -10 1 -22 -5 -25 -5 -3 -8 -16 -7 -27 1 -12 -2 -30 -6 -40 -4 -10 -5 -21 -1 -24 3 -3 1 -12 -5 -19 -6 -8 -9 -20 -6 -29 4 -8 2 -17 -4 -21 -6 -3 -9 -16 -8 -27 1 -12 -2 -30 -6 -40 -4 -10 -5 -21 -1 -24 3 -3 1 -12 -5 -19 -6 -8 -9 -20 -6 -29 4 -8 2 -17 -4 -21 -6 -3 -9 -16 -8 -27 1 -12 -2 -30 -6 -40 -4 -10 -5 -21 -1 -24 3 -3 1 -12 -5 -19 -6 -8 -9 -20 -6 -29 4 -8 2 -17 -4 -21 -6 -3 -9 -16 -8 -27 1 -12 -2 -30 -6 -40 -4 -10 -5 -21 -1 -24 3 -3 1 -12 -5 -19 -6 -8 -9 -20 -6 -29 4 -8 2 -17 -4 -21 -6 -3 -9 -16 -8 -27 1 -12 -2 -30 -6 -40 -4 -10 -5 -21 -1 -24 3 -3 1 -12 -5 -19 -6 -8 -9 -20 -6 -29 4 -8 2 -17 -3 -20 -6 -4 -10 -17 -10 -31 0 -28 -7 -30 -35 -10 -27 18 -143 67 -169 71 -12 1 -34 8 -50 14 -16 7 -35 10 -42 7 -6 -2 -16 0 -22 6 -13 13 -46 2 -37 -12 4 -6 14 -10 23 -9 10 1 24 -1 33 -5 9 -4 27 -8 40 -10 13 -2 33 -7 44 -11 123 -47 155 -61 185 -81 40 -28 50 -21 55 32 1 22 6 47 10 57 4 10 5 21 1 24 -3 3 -1 12 5 19 6 8 9 20 6 29 -4 8 -2 17 4 21 6 3 9 16 8 27 -1 12 2 30 6 40 4 10 5 21 1 24 -3 3 -1 12 5 19 6 8 9 20 6 29 -4 8 -2 17 4 21 6 3 9 16 8 27 -1 12 2 30 6 40 4 10 5 21 1 24 -3 3 -1 12 5 19 6 8 9 20 6 29 -4 8 -2 17 4 21 6 3 9 16 8 27 -1 12 2 30 6 40 4 10 5 21 1 24 -3 3 -1 12 5 19 6 8 9 20 6 29 -4 8 -2 17 4 21 6 3 9 16 8 27 -1 12 2 30 6 40 4 10 5 21 1 24 -3 3 -1 12 5 19 6 8 9 20 6 29 -4 8 -2 17 4 21 6 3 9 16 8 27 -1 12 2 30 6 40 4 10 5 21 1 24 -3 3 -1 12 5 19 6 8 9 20 6 29 -4 8 -2 17 3 20 6 4 10 15 10 26 0 18 9 19 249 19 229 0 283 -5 251 -25 -6 -4 -10 -17 -9 -28 1 -12 -1 -30 -5 -39 -4 -9 -5 -21 -2 -27 4 -5 1 -13 -4 -16 -6 -4 -10 -17 -8 -28 1 -12 -1 -27 -5 -34 -4 -7 -9 -31 -11 -55 -2 -24 -7 -51 -11 -60 -4 -9 -4 -21 -1 -27 4 -5 1 -13 -4 -16 -6 -4 -10 -17 -9 -28 1 -12 -1 -30 -5 -39 -4 -9 -5 -22 -1 -28 10 -16 27 0 22 21 -3 10 -1 22 5 25 5 3 8 16 7 27 -1 12 2 30 6 40 4 10 5 21 1 24 -3 3 -1 12 4 18 6 7 12 32 14 56 2 24 7 52 11 62 4 9 5 24 2 32 -4 8 -1 17 4 21 6 3 9 15 6 25 -3 10 -1 22 5 25 5 3 8 16 7 27 -1 12 1 30 5 39 16 36 0 38 -269 38 -258 0 -265 0 -276 -21z M570 6369 c-7 -11 -9 -27 -6 -34 3 -8 0 -17 -5 -21 -6 -3 -9 -15 -6 -25 3 -10 1 -22 -5 -25 -5 -3 -8 -16 -7 -27 1 -12 -1 -30 -5 -39 -4 -9 -5 -21 -2 -27 4 -5 1 -13 -4 -16 -6 -4 -10 -17 -9 -28 1 -12 -1 -30 -5 -39 -4 -9 -5 -21 -2 -27 4 -5 1 -13 -4 -16 -6 -4 -10 -17 -9 -28 1 -12 -2 -30 -6 -40 -4 -10 -5 -21 -1 -24 3 -3 1 -12 -5 -19 -14 -17 -4 -48 12 -39 6 4 9 16 6 26 -3 10 -1 22 5 25 5 3 8 15 5 25 -3 10 -1 22 5 25 5 3 8 16 7 27 -1 12 1 30 5 39 4 9 5 21 2 27 -4 5 -1 13 4 16 6 4 10 17 9 28 -1 12 1 30 5 39 4 9 5 21 2 27 -4 5 -1 13 4 16 6 4 10 17 9 28 -1 12 1 29 5 38 4 9 6 20 5 25 0 5 2 19 6 32 l7 22 1037 0 1037 0 -2 -22 c-1 -13 -5 -31 -9 -40 -4 -10 -5 -25 -2 -33 4 -8 1 -17 -4 -21 -6 -3 -9 -15 -6 -25 3 -10 1 -22 -5 -25 -5 -3 -8 -15 -5 -25 3 -10 1 -22 -5 -25 -5 -3 -8 -16 -7 -27 1 -12 -1 -30 -5 -39 -4 -9 -5 -22 -1 -28 10 -16 27 0 22 21 -3 10 -1 22 5 25 5 3 8 16 7 27 -1 12 1 30 5 39 4 9 5 21 2 27 -4 5 -2 13 4 16 6 4 10 14 9 23 -1 10 1 25 6 35 4 9 5 24 2 32 -4 8 -2 17 3 20 5 3 8 20 6 38 l-3 32 -1051 3 -1051 2 -11 -21z M3745 6270 c-4 -6 -4 -14 -1 -17 3 -3 1 -12 -5 -19 -6 -8 -9 -20 -6 -29 4 -8 1 -17 -4 -21 -6 -3 -9 -15 -6 -25 3 -10 1 -22 -4 -25 -6 -3 -9 -13 -8 -22 1 -10 -1 -25 -6 -35 -4 -10 -5 -21 -1 -24 3 -3 2 -11 -3 -17 -14 -18 -23 -74 -12 -80 13 -8 21 7 25 46 2 18 7 41 11 51 4 10 5 21 1 24 -3 3 -1 12 5 19 6 8 9 20 6 29 -4 8 -2 17 4 21 5 3 9 13 8 22 -1 10 1 25 6 35 4 10 5 21 1 24 -3 3 -1 12 6 20 8 10 8 17 1 24 -8 8 -13 7 -18 -1z M7074 6216 c-4 -9 -1 -22 5 -30 6 -7 8 -15 5 -18 -17 -17 97 -175 117 -162 6 3 -7 24 -27 46 -39 44 -79 123 -76 150 4 22 -17 33 -24 14z M7764 6184 c-23 -64 -38 -89 -79 -133 -25 -27 -42 -52 -37 -55 29 -18 158 172 133 197 -7 7 -12 5 -17 -9z M2604 6017 c-3 -9 -3 -20 0 -26 4 -5 2 -13 -4 -16 -6 -4 -10 -14 -9 -23 1 -10 -1 -25 -6 -34 -9 -22 1 -51 16 -43 5 4 9 17 8 28 -1 12 1 29 5 38 4 9 6 20 5 25 -1 5 1 17 6 27 4 11 3 23 -3 29 -8 8 -13 7 -18 -5z M7215 6000 c-9 -14 67 -59 109 -64 11 -2 29 -7 38 -11 22 -9 53 -3 47 10 -2 6 -15 11 -29 12 -34 2 -65 12 -116 38 -25 12 -46 19 -49 15z M7588 5979 c-20 -10 -61 -22 -89 -27 -54 -7 -68 -25 -26 -30 29 -4 135 32 155 52 23 22 0 25 -40 5z M10414 5976 c-4 -9 -4 -20 0 -23 3 -3 1 -12 -5 -19 -13 -16 -4 -48 11 -39 6 4 10 14 9 23 -1 10 1 25 6 35 4 11 3 23 -3 29 -8 8 -13 7 -18 -6z M3675 5930 c-3 -5 -7 -24 -9 -42 -2 -18 -7 -41 -11 -50 -4 -9 -4 -21 -1 -27 4 -5 2 -13 -4 -16 -6 -4 -10 -14 -9 -23 1 -10 -1 -25 -6 -35 -4 -10 -5 -21 -1 -24 3 -3 1 -12 -4 -19 -6 -6 -12 -27 -14 -45 -2 -19 -7 -42 -11 -52 -4 -10 -5 -21 -1 -24 3 -3 1 -12 -5 -19 -6 -8 -9 -20 -6 -29 4 -8 1 -17 -4 -21 -6 -3 -9 -15 -6 -25 3 -10 1 -22 -5 -25 -5 -3 -8 -15 -5 -25 3 -10 1 -22 -5 -25 -5 -3 -8 -15 -5 -25 3 -10 1 -22 -5 -25 -5 -3 -8 -15 -5 -25 3 -10 1 -22 -5 -25 -5 -3 -7 -12 -4 -20 3 -7 0 -16 -5 -20 -6 -3 -9 -15 -6 -25 3 -10 1 -22 -5 -25 -5 -3 -8 -15 -5 -25 3 -10 1 -22 -5 -25 -5 -3 -8 -15 -5 -25 3 -10 1 -22 -5 -25 -5 -3 -8 -15 -5 -25 3 -10 1 -22 -4 -25 -6 -3 -9 -13 -8 -22 1 -10 -1 -25 -6 -35 -4 -10 -5 -21 -1 -24 3 -3 1 -12 -5 -19 -6 -7 -8 -18 -4 -24 9 -14 28 -1 21 16 -3 7 0 16 5 20 6 3 9 15 6 25 -3 10 -1 22 5 25 5 3 8 15 5 25 -3 10 -1 22 5 25 5 3 8 15 5 25 -3 10 -1 22 5 25 5 3 8 15 5 25 -3 10 -1 22 5 25 5 3 8 15 5 25 -3 10 -1 22 5 25 5 3 8 15 5 25 -3 10 -1 22 5 25 5 3 7 12 4 20 -3 7 0 16 5 20 6 3 9 15 6 25 -3 10 -1 22 5 25 5 3 8 15 5 25 -3 10 -1 22 5 25 5 3 8 15 5 25 -3 10 -1 22 5 25 5 3 8 15 5 25 -3 10 -1 22 4 25 6 3 9 13 8 22 -1 10 1 25 6 35 4 10 5 21 1 24 -3 3 -1 12 4 19 6 6 12 27 14 45 2 19 7 42 11 51 4 9 4 21 1 27 -4 5 -2 13 4 16 6 4 10 14 9 23 -1 10 1 25 6 35 4 10 5 21 1 24 -3 3 -2 11 3 17 14 18 23 74 12 80 -5 4 -12 2 -16 -4z M1059 5886 c-3 -13 -6 -22 -13 -38 -5 -10 -6 -25 -3 -33 4 -8 1 -17 -4 -21 -6 -3 -9 -15 -6 -25 3 -10 1 -22 -5 -25 -5 -3 -8 -16 -7 -27 1 -12 -1 -30 -6 -39 -4 -10 -5 -25 -2 -33 4 -8 1 -17 -4 -21 -6 -3 -9 -15 -6 -25 3 -10 1 -22 -5 -25 -5 -3 -8 -16 -7 -27 1 -12 -1 -30 -5 -39 -4 -9 -5 -22 -1 -28 10 -16 27 0 22 21 -3 10 -1 22 5 25 5 3 8 16 7 27 -1 12 1 30 5 39 4 9 5 21 2 27 -4 5 -1 13 4 16 6 4 10 17 9 28 -1 12 1 30 6 40 4 9 5 24 2 32 -4 8 -1 17 4 21 6 3 9 15 6 25 -3 10 -1 22 5 25 5 3 8 16 6 27 -1 12 1 27 5 34 4 6 3 14 -3 18 -5 3 -11 4 -11 1z M474 5866 c-4 -9 -4 -20 0 -23 3 -3 1 -12 -5 -19 -13 -16 -4 -48 11 -39 6 4 10 14 9 23 -1 10 1 25 6 35 4 11 3 23 -3 29 -8 8 -13 7 -18 -6z M10394 5867 c-3 -9 -3 -20 0 -26 4 -5 1 -13 -4 -16 -6 -4 -10 -17 -9 -28 1 -12 -1 -30 -5 -39 -4 -9 -5 -21 -2 -27 4 -5 1 -13 -4 -16 -6 -4 -10 -17 -9 -28 1 -12 -1 -30 -5 -39 -4 -9 -5 -21 -2 -27 4 -5 1 -13 -4 -16 -6 -4 -10 -17 -8 -28 1 -12 -1 -27 -5 -34 -4 -7 -9 -31 -11 -55 -2 -24 -7 -51 -11 -61 -4 -10 -3 -23 3 -29 8 -8 13 -7 18 6 4 9 4 20 0 23 -3 3 -1 12 4 18 6 7 12 32 14 56 2 24 7 52 11 62 4 9 5 24 2 32 -4 8 -1 17 4 21 6 3 9 15 6 25 -3 10 -1 22 5 25 5 3 8 16 7 27 -1 12 1 30 5 39 4 9 5 21 2 27 -4 5 -1 13 4 16 6 4 10 17 9 28 -1 12 2 30 6 40 4 11 3 23 -3 29 -8 8 -13 7 -18 -5z M454 5756 c-4 -9 -4 -20 0 -23 3 -3 1 -12 -5 -19 -6 -8 -9 -20 -6 -29 4 -8 2 -17 -4 -21 -6 -3 -9 -16 -8 -27 1 -12 -1 -30 -5 -39 -4 -9 -5 -21 -2 -27 4 -5 1 -13 -4 -16 -6 -4 -10 -17 -9 -28 1 -12 -1 -30 -5 -39 -4 -9 -5 -21 -2 -27 4 -5 1 -13 -4 -16 -6 -4 -10 -17 -9 -28 1 -12 -2 -30 -6 -40 -4 -10 -5 -21 -1 -24 3 -3 1 -12 -5 -19 -6 -8 -9 -20 -6 -29 4 -8 2 -17 -4 -21 -6 -3 -9 -16 -8 -27 1 -12 -1 -30 -6 -39 -4 -10 -5 -25 -2 -33 4 -8 2 -17 -4 -21 -5 -3 -9 -13 -8 -22 1 -10 -1 -25 -5 -34 -4 -9 -5 -22 -1 -28 10 -16 27 0 22 21 -3 10 -1 22 5 25 5 3 8 15 5 25 -3 10 -1 22 5 25 5 3 8 16 7 27 -1 12 1 30 6 40 4 9 5 24 2 32 -4 8 -1 17 4 21 6 3 9 15 6 25 -3 10 -1 22 5 25 5 3 8 15 5 25 -3 10 -1 22 5 25 5 3 8 16 7 27 -1 12 1 30 5 39 4 9 5 21 2 27 -4 5 -1 13 4 16 6 4 10 17 9 28 -1 12 1 30 5 39 4 9 5 21 2 27 -4 5 -1 13 4 16 6 4 10 17 9 28 -1 12 1 29 5 38 4 9 6 20 5 25 -1 5 1 17 6 27 4 11 3 23 -3 29 -8 8 -13 7 -18 -6z M9175 5570 c-3 -5 0 -13 8 -15 24 -10 232 -1 230 10 -4 14 -229 19 -238 5z M9095 5560 c-8 -13 20 -24 41 -16 20 8 9 26 -16 26 -10 0 -22 -5 -25 -10z M9036 5551 c-4 -6 -13 -8 -21 -5 -8 3 -19 2 -26 -2 -7 -4 -24 -8 -38 -10 -14 -1 -39 -8 -56 -14 -16 -7 -38 -15 -49 -17 -98 -19 -401 -206 -367 -227 5 -4 12 -2 16 4 23 37 331 207 390 215 37 5 86 19 90 26 3 4 12 6 20 3 8 -3 20 -2 27 2 7 5 21 8 30 9 10 0 18 5 18 10 1 14 -27 19 -34 6z M4347 5534 c-19 -20 28 -24 272 -24 248 0 268 -1 267 -17 -1 -10 4 -19 9 -20 6 -2 10 12 9 30 l0 32 -275 3 c-152 1 -278 -1 -282 -4z M5806 5531 c-12 -19 14 -20 285 -21 220 -1 274 1 274 12 0 16 -550 25 -559 9z M6819 5513 c-6 -15 -8 -35 -6 -45 3 -10 1 -21 -5 -24 -5 -3 -7 -12 -4 -20 3 -7 0 -16 -5 -20 -6 -3 -9 -15 -6 -25 3 -10 1 -22 -4 -25 -6 -3 -9 -13 -8 -22 1 -10 -1 -25 -6 -35 -4 -10 -5 -21 -1 -24 3 -3 1 -12 -4 -19 -6 -6 -12 -27 -14 -45 -2 -19 -7 -42 -11 -52 -4 -10 -5 -21 -1 -24 3 -3 1 -12 -5 -20 -8 -9 -8 -17 -1 -26 13 -15 69 -17 62 -2 -3 6 -12 9 -20 8 -20 -2 -31 18 -18 34 5 7 8 19 5 27 -3 7 -1 18 4 23 5 5 11 25 13 44 2 19 7 42 11 52 4 10 5 21 1 24 -3 3 -1 12 5 19 6 8 9 20 6 29 -4 8 -1 17 4 21 6 3 9 15 6 25 -3 10 -1 22 5 25 5 3 7 12 4 20 -3 7 -1 16 4 19 6 4 10 17 10 31 l0 24 408 0 408 0 -2 -22 c-1 -13 -5 -31 -9 -40 -4 -10 -5 -25 -2 -33 4 -8 1 -17 -4 -21 -6 -3 -9 -15 -6 -25 3 -10 1 -22 -5 -25 -5 -3 -8 -15 -5 -25 3 -10 1 -22 -5 -25 -5 -3 -8 -16 -7 -27 1 -12 -2 -30 -6 -40 -4 -10 -5 -21 -1 -24 3 -3 1 -12 -5 -19 -6 -8 -9 -20 -6 -29 4 -8 2 -17 -4 -21 -6 -3 -9 -16 -8 -27 1 -12 -1 -30 -5 -39 -4 -9 -5 -21 -2 -27 4 -5 1 -13 -4 -16 -6 -4 -10 -17 -9 -28 1 -12 -1 -29 -5 -38 -4 -9 -6 -20 -5 -25 1 -5 -1 -17 -6 -27 -4 -10 -5 -21 -1 -24 3 -3 1 -12 -5 -19 -14 -17 -4 -48 12 -39 6 4 9 16 6 26 -3 10 -1 22 5 25 5 3 8 15 5 25 -3 10 -1 22 5 25 5 3 8 15 5 25 -3 10 -1 22 5 25 5 3 8 16 7 27 -1 12 1 30 5 39 4 9 5 21 2 27 -4 5 -1 13 4 16 6 4 10 17 9 28 -1 12 2 30 6 40 4 10 5 21 1 24 -3 3 -1 12 5 19 6 8 9 20 6 29 -4 8 -2 17 4 21 6 3 9 16 8 27 -1 12 1 30 5 39 4 9 5 21 2 27 -4 5 -2 13 4 16 6 4 10 14 9 23 -1 10 1 25 6 35 4 9 5 24 2 32 -4 8 -2 17 3 20 5 3 8 20 6 38 l-3 32 -422 3 -421 2 -11 -27z M4334 5496 c-4 -9 -4 -20 0 -23 3 -3 1 -12 -5 -19 -13 -16 -4 -48 11 -39 6 4 10 14 9 23 -1 10 1 25 6 35 4 11 3 23 -3 29 -8 8 -13 7 -18 -6z M5794 5496 c-3 -9 -4 -23 -1 -31 4 -8 1 -17 -4 -21 -6 -3 -9 -15 -6 -25 3 -10 1 -22 -5 -25 -5 -3 -8 -16 -7 -27 1 -12 -1 -30 -5 -39 -4 -9 -5 -22 -1 -28 10 -16 27 0 22 21 -3 10 -1 22 5 25 5 3 8 16 7 27 -1 12 1 30 5 39 4 9 5 21 2 27 -4 5 -2 12 4 16 13 8 13 42 0 50 -6 3 -13 -1 -16 -9z M6334 5476 c-4 -9 -4 -20 0 -23 3 -3 1 -12 -5 -19 -6 -8 -9 -20 -6 -29 4 -8 2 -17 -4 -21 -6 -3 -9 -16 -8 -27 1 -12 -2 -30 -6 -40 -4 -10 -5 -21 -1 -24 3 -3 1 -12 -5 -19 -6 -8 -9 -20 -6 -29 4 -8 2 -17 -4 -21 -6 -3 -9 -16 -8 -27 1 -12 -2 -30 -6 -40 -4 -10 -5 -21 -1 -24 3 -3 1 -12 -5 -19 -14 -17 -4 -48 12 -39 6 4 9 16 6 26 -3 10 -1 22 5 25 5 3 8 15 5 25 -3 10 -1 22 5 25 5 3 8 16 7 27 -1 12 2 30 6 40 4 10 5 21 1 24 -3 3 -1 12 5 19 6 8 9 20 6 29 -4 8 -2 17 4 21 6 3 9 16 8 27 -1 12 1 29 5 38 4 9 6 20 5 25 -1 5 1 17 6 27 4 11 3 23 -3 29 -8 8 -13 7 -18 -6z M974 5446 c-4 -9 -4 -20 0 -23 3 -3 1 -12 -5 -19 -13 -16 -4 -48 11 -39 6 4 10 14 9 23 -1 10 1 25 6 35 4 11 3 23 -3 29 -8 8 -13 7 -18 -6z M4874 5436 c-4 -9 -4 -20 0 -23 3 -3 1 -12 -5 -19 -6 -8 -9 -20 -6 -28 3 -7 1 -18 -5 -24 -13 -13 -2 -46 13 -37 6 4 9 16 6 26 -3 10 -1 22 4 25 6 3 9 13 8 22 -1 10 1 25 6 35 4 11 3 23 -3 29 -8 8 -13 7 -18 -6z M4314 5386 c-4 -9 -4 -20 0 -23 3 -3 1 -12 -5 -19 -6 -8 -9 -20 -6 -29 4 -8 2 -17 -4 -21 -6 -3 -9 -16 -8 -27 1 -12 -2 -30 -6 -40 -4 -10 -5 -21 -1 -24 3 -3 1 -12 -5 -19 -14 -17 -4 -48 12 -39 6 4 9 16 6 26 -3 10 -1 22 5 25 5 3 8 15 5 25 -3 10 -1 22 5 25 5 3 8 16 7 27 -1 12 1 29 5 38 4 9 6 20 5 25 -1 5 1 17 6 27 4 11 3 23 -3 29 -8 8 -13 7 -18 -6z M10304 5367 c-3 -9 -3 -20 0 -26 4 -5 1 -13 -4 -16 -6 -4 -10 -17 -9 -28 1 -12 -2 -30 -6 -40 -4 -10 -5 -21 -1 -24 3 -3 1 -12 -5 -19 -14 -17 -4 -48 12 -39 6 4 9 16 6 26 -3 10 -1 22 5 25 5 3 8 15 5 25 -3 10 -1 22 5 25 5 3 8 16 7 27 -1 12 2 30 6 40 4 11 3 23 -3 29 -8 8 -13 7 -18 -5z M954 5336 c-4 -9 -4 -20 0 -23 3 -3 1 -12 -5 -19 -13 -16 -4 -48 11 -39 6 4 10 14 9 23 -1 10 1 25 6 35 4 11 3 23 -3 29 -8 8 -13 7 -18 -6z M4844 5276 c-4 -9 -4 -20 0 -23 3 -3 2 -11 -3 -17 -14 -18 -23 -84 -12 -90 14 -9 22 9 26 52 2 20 6 45 10 55 4 10 3 23 -3 29 -8 8 -13 7 -18 -6z M5754 5266 c-4 -9 -4 -20 0 -23 3 -3 1 -12 -5 -20 -6 -7 -9 -22 -6 -33 3 -11 1 -23 -5 -26 -5 -3 -8 -16 -7 -27 1 -12 -2 -30 -6 -40 -4 -10 -5 -21 -1 -24 3 -3 1 -12 -5 -19 -14 -17 -4 -48 12 -39 6 4 9 16 6 26 -3 10 -1 22 4 25 6 3 9 13 8 22 -1 10 1 25 6 35 4 9 5 24 2 32 -4 8 -2 17 4 21 6 3 9 16 8 27 -1 12 2 30 6 40 4 11 3 23 -3 29 -8 8 -13 7 -18 -6z M8391 5216 c-35 -35 -59 -66 -54 -69 5 -3 38 22 72 57 35 35 59 66 54 69 -5 3 -38 -22 -72 -57z M934 5226 c-4 -9 -4 -20 0 -23 3 -3 1 -12 -5 -19 -13 -16 -4 -48 11 -39 6 4 10 14 9 23 -1 10 1 25 6 35 4 11 3 23 -3 29 -8 8 -13 7 -18 -6z M2005 5161 c-7 -12 12 -24 24 -17 5 3 5 -12 0 -36 -11 -45 4 -78 18 -42 16 43 9 97 -14 100 -12 2 -25 0 -28 -5z M10264 5147 c-3 -9 -3 -20 0 -26 4 -5 1 -13 -4 -16 -6 -4 -10 -17 -9 -28 1 -12 -1 -30 -5 -39 -4 -9 -5 -21 -2 -27 4 -5 1 -13 -4 -16 -6 -4 -10 -17 -9 -28 1 -12 -1 -30 -5 -39 -4 -9 -5 -22 -1 -28 10 -16 27 0 22 21 -3 10 -1 22 5 25 5 3 8 16 7 27 -1 12 1 30 5 39 4 9 5 21 2 27 -4 5 -1 13 4 16 6 4 10 17 9 28 -1 12 2 30 6 40 4 11 3 23 -3 29 -8 8 -13 7 -18 -5z M8301 5116 c-13 -13 -18 -26 -13 -30 5 -3 19 5 31 18 13 13 18 26 13 30 -5 3 -19 -5 -31 -18z M4264 5116 c-4 -9 -4 -20 0 -23 3 -3 1 -12 -5 -19 -6 -8 -9 -20 -6 -28 3 -7 1 -18 -5 -24 -13 -13 -2 -46 13 -37 6 4 9 16 6 26 -3 10 -1 22 4 25 6 3 9 13 8 22 -1 10 1 25 6 35 4 11 3 23 -3 29 -8 8 -13 7 -18 -6z M4814 5116 c-4 -9 -4 -20 0 -23 3 -3 1 -12 -5 -19 -6 -8 -9 -20 -6 -29 4 -8 2 -17 -4 -21 -6 -3 -9 -16 -8 -27 1 -12 -2 -30 -6 -40 -4 -10 -5 -21 -1 -24 3 -3 1 -12 -4 -18 -6 -7 -12 -32 -14 -56 -2 -24 -7 -52 -11 -61 -4 -9 -4 -21 -1 -27 4 -5 1 -13 -4 -16 -6 -4 -10 -17 -9 -28 1 -12 -2 -30 -6 -40 -4 -10 -5 -21 -1 -24 3 -3 1 -12 -5 -19 -6 -8 -9 -20 -6 -29 4 -8 2 -17 -4 -21 -6 -3 -9 -16 -8 -27 1 -12 -1 -30 -5 -39 -4 -9 -5 -21 -2 -27 4 -5 1 -13 -4 -16 -6 -4 -10 -17 -9 -28 1 -12 -2 -30 -6 -40 -4 -10 -5 -21 -1 -24 3 -3 1 -12 -5 -19 -6 -8 -9 -20 -6 -29 4 -8 2 -17 -4 -21 -6 -3 -9 -16 -8 -27 1 -12 -2 -30 -6 -40 -4 -10 -5 -21 -1 -24 3 -3 1 -12 -5 -19 -6 -8 -9 -20 -6 -29 4 -8 2 -17 -4 -21 -6 -3 -9 -16 -8 -27 1 -12 -1 -29 -5 -38 -4 -9 -6 -20 -5 -25 1 -5 -1 -17 -5 -26 -10 -22 0 -51 15 -43 5 4 9 17 8 28 -1 12 1 30 5 39 4 9 5 21 2 27 -4 5 -1 13 4 16 6 4 10 17 9 28 -1 12 2 30 6 40 4 10 5 21 1 24 -3 3 -1 12 5 19 6 8 9 20 6 29 -4 8 -2 17 4 21 6 3 9 16 8 27 -1 12 2 30 6 40 4 10 5 21 1 24 -3 3 -1 12 5 19 6 8 9 20 6 29 -4 8 -2 17 4 21 6 3 9 16 8 27 -1 12 1 30 5 39 4 9 5 21 2 27 -4 5 -1 13 4 16 6 4 10 17 9 28 -1 12 2 30 6 40 4 10 5 21 1 24 -3 3 -1 12 5 19 6 8 9 20 6 29 -4 8 -2 17 4 21 6 3 9 16 8 27 -1 12 2 30 6 40 4 10 5 21 1 24 -3 3 -1 12 4 18 6 7 12 32 14 56 2 24 7 52 11 61 4 9 4 21 1 27 -4 5 -1 13 4 16 6 4 10 17 9 28 -1 12 1 29 5 38 4 9 6 20 5 25 -1 5 1 17 6 27 4 11 3 23 -3 29 -8 8 -13 7 -18 -6z M9225 5110 c-3 -5 0 -13 9 -16 21 -8 61 -1 61 11 0 14 -62 19 -70 5z M9405 5110 c-7 -11 15 -23 36 -19 8 1 23 -1 34 -6 11 -4 35 -14 53 -21 19 -8 51 -27 72 -44 21 -17 41 -26 44 -21 13 21 -150 121 -173 106 -5 -3 -12 -1 -16 5 -8 13 -42 13 -50 0z M9092 5081 c-45 -16 -107 -44 -137 -62 -68 -41 -187 -147 -179 -160 3 -5 35 18 72 51 77 70 178 126 277 155 66 19 93 37 63 42 -7 2 -50 -10 -96 -26z M6964 5089 c-6 -10 7 -16 33 -14 22 2 39 -30 21 -41 -5 -3 -8 -16 -7 -27 1 -12 -2 -30 -6 -40 -4 -10 -5 -21 -1 -24 3 -3 1 -12 -5 -19 -14 -17 -4 -48 12 -39 6 4 9 16 6 26 -3 10 -1 22 5 25 5 3 8 15 5 25 -3 10 -1 22 5 25 5 3 8 16 7 27 -1 12 1 30 5 39 5 10 6 23 4 30 -4 12 -77 18 -84 7z M324 5046 c-4 -9 -4 -20 0 -23 3 -3 1 -12 -5 -19 -13 -16 -4 -48 11 -39 6 4 10 14 9 23 -1 10 1 25 6 35 4 11 3 23 -3 29 -8 8 -13 7 -18 -6z M6254 5046 c-4 -9 -4 -20 0 -23 3 -3 1 -12 -5 -19 -6 -8 -9 -20 -6 -28 3 -7 1 -18 -5 -24 -13 -13 -2 -46 13 -37 6 4 9 16 6 26 -3 10 -1 22 4 25 6 3 9 13 8 22 -1 10 1 25 6 35 4 11 3 23 -3 29 -8 8 -13 7 -18 -6z M2014 5026 c-4 -9 -4 -20 0 -23 3 -3 1 -12 -5 -19 -6 -8 -9 -20 -6 -28 3 -7 1 -18 -5 -24 -13 -13 -2 -46 13 -37 6 4 9 16 6 26 -3 10 -1 22 4 25 6 3 9 13 8 22 -1 10 1 25 6 35 4 11 3 23 -3 29 -8 8 -13 7 -18 -6z M8200 4978 c-78 -120 -190 -384 -175 -409 3 -4 0 -11 -6 -14 -5 -4 -8 -13 -5 -21 3 -7 1 -16 -5 -20 -6 -3 -8 -12 -5 -20 3 -7 0 -16 -5 -20 -6 -3 -9 -15 -6 -25 3 -10 1 -22 -5 -25 -5 -3 -8 -16 -7 -27 1 -12 -1 -30 -5 -39 -10 -21 -4 -49 9 -48 6 0 11 13 11 28 1 15 5 35 9 45 4 9 5 24 2 32 -4 8 -1 17 4 21 6 3 9 15 6 25 -3 10 -1 22 5 25 5 3 7 12 4 20 -3 7 -1 16 5 20 6 3 8 12 5 19 -2 7 -1 16 4 21 4 5 20 47 35 94 31 94 95 230 149 314 19 30 31 58 26 61 -6 3 -28 -22 -50 -57z M5704 4987 c-3 -9 -3 -20 0 -26 4 -5 1 -13 -4 -16 -6 -4 -10 -17 -9 -28 1 -12 -1 -30 -5 -39 -4 -9 -5 -22 -1 -28 10 -16 27 0 22 21 -3 10 -1 22 5 25 5 3 8 16 7 27 -1 12 2 30 6 40 4 11 3 23 -3 29 -8 8 -13 7 -18 -5z M9646 4982 c-3 -6 1 -15 8 -21 21 -17 37 -69 25 -77 -6 -3 -9 -16 -8 -27 1 -12 -2 -30 -6 -40 -4 -10 -5 -21 -1 -24 3 -3 1 -12 -5 -19 -6 -8 -9 -20 -6 -29 4 -8 2 -17 -4 -21 -6 -3 -9 -16 -8 -27 1 -12 -2 -30 -6 -40 -4 -10 -5 -21 -1 -24 3 -3 1 -12 -5 -19 -6 -8 -9 -20 -6 -28 3 -7 1 -18 -4 -23 -5 -5 -11 -29 -13 -54 -2 -24 -7 -52 -11 -62 -4 -10 -5 -21 -1 -24 3 -3 1 -12 -5 -19 -13 -16 -4 -48 11 -39 6 4 10 14 9 23 -1 10 1 25 6 35 4 10 5 21 1 24 -3 3 -1 12 4 18 6 7 12 32 14 56 2 24 7 52 11 62 4 10 5 21 1 24 -3 3 -1 12 5 19 6 8 9 20 6 29 -4 8 -2 17 4 21 6 3 9 16 8 27 -1 12 2 30 6 40 4 10 5 21 1 24 -3 3 -1 12 5 19 6 8 9 20 6 29 -4 8 -2 17 4 21 6 3 9 16 7 27 -1 12 1 27 5 34 9 14 -13 63 -36 82 -9 7 -18 8 -21 3z M4234 4956 c-4 -9 -4 -20 0 -23 3 -3 1 -12 -5 -19 -6 -8 -9 -20 -6 -28 3 -7 1 -18 -5 -24 -13 -13 -2 -46 13 -37 6 4 9 16 6 26 -3 10 -1 22 4 25 6 3 9 13 8 22 -1 10 1 25 6 35 4 11 3 23 -3 29 -8 8 -13 7 -18 -6z M304 4936 c-4 -9 -4 -20 0 -23 3 -3 1 -12 -5 -19 -6 -8 -9 -20 -6 -29 4 -8 2 -17 -4 -21 -6 -3 -9 -16 -8 -27 1 -12 -1 -30 -5 -39 -4 -9 -5 -21 -2 -27 4 -5 1 -13 -4 -16 -6 -4 -10 -17 -9 -28 1 -12 -2 -30 -6 -40 -4 -10 -5 -21 -1 -24 3 -3 1 -12 -5 -19 -14 -17 -4 -48 12 -39 6 4 9 16 6 26 -3 10 -1 22 5 25 5 3 8 15 5 25 -3 10 -1 22 5 25 5 3 8 16 7 27 -1 12 1 30 5 39 4 9 5 21 2 27 -4 5 -1 13 4 16 6 4 10 17 9 28 -1 12 1 29 5 38 4 9 6 20 5 25 -1 5 1 17 6 27 4 11 3 23 -3 29 -8 8 -13 7 -18 -6z M3465 4910 c-3 -5 -7 -24 -9 -42 -2 -18 -7 -41 -11 -51 -4 -10 -5 -21 -1 -24 3 -3 1 -12 -5 -19 -6 -8 -9 -20 -6 -29 4 -8 2 -17 -4 -21 -5 -3 -9 -13 -8 -22 1 -10 -1 -25 -6 -35 -4 -10 -5 -21 -1 -24 3 -3 1 -12 -5 -19 -6 -7 -8 -18 -4 -24 9 -14 28 -1 21 16 -3 7 0 16 5 20 6 3 9 15 6 25 -3 10 -1 22 5 25 5 3 8 15 5 25 -3 10 -1 22 4 25 6 3 9 13 8 22 -1 10 1 25 6 35 4 10 5 21 1 24 -3 3 -2 11 3 17 14 18 23 74 12 80 -5 4 -12 2 -16 -4z M6224 4886 c-4 -9 -4 -20 0 -23 3 -3 1 -12 -5 -19 -6 -8 -9 -20 -6 -29 4 -8 2 -17 -4 -21 -6 -3 -9 -16 -8 -27 1 -12 -1 -29 -5 -38 -4 -9 -6 -20 -5 -25 1 -5 -1 -17 -6 -27 -4 -10 -5 -21 -1 -24 3 -3 1 -12 -5 -19 -14 -17 -4 -48 12 -39 6 4 9 16 6 26 -3 10 -1 22 5 25 5 3 8 15 5 25 -3 10 -1 22 5 25 5 3 8 15 5 25 -3 10 -1 22 5 25 5 3 8 16 7 27 -1 12 1 29 5 38 4 9 6 20 5 25 -1 5 1 17 6 27 4 11 3 23 -3 29 -8 8 -13 7 -18 -6z M1984 4867 c-3 -9 -3 -20 0 -26 4 -5 2 -12 -3 -15 -5 -3 -12 -28 -16 -55 -4 -26 -13 -60 -20 -75 -15 -29 -1 -47 20 -25 11 13 38 126 34 146 -1 4 1 16 6 26 4 11 3 23 -3 29 -8 8 -13 7 -18 -5z M10214 4867 c-3 -9 -3 -20 0 -26 4 -5 1 -13 -4 -16 -6 -4 -10 -17 -9 -28 1 -12 -2 -30 -6 -40 -4 -10 -5 -21 -1 -24 3 -3 1 -12 -5 -19 -14 -17 -4 -48 12 -39 6 4 9 16 6 26 -3 10 -1 22 5 25 5 3 8 15 5 25 -3 10 -1 22 5 25 5 3 8 16 7 27 -1 12 2 30 6 40 4 11 3 23 -3 29 -8 8 -13 7 -18 -5z M6984 4856 c-4 -9 -4 -20 0 -23 3 -3 1 -12 -5 -19 -6 -8 -9 -20 -6 -28 3 -7 1 -18 -5 -24 -13 -13 -2 -46 13 -37 6 4 9 16 6 26 -3 10 -1 22 4 25 6 3 9 13 8 22 -1 10 1 25 6 35 4 11 3 23 -3 29 -8 8 -13 7 -18 -6z M8731 4812 c-63 -81 -158 -284 -165 -356 -2 -17 -7 -38 -10 -47 -4 -9 -6 -20 -5 -25 1 -5 -1 -17 -5 -26 -10 -21 -4 -49 9 -48 6 0 11 13 11 28 1 15 4 34 8 43 4 9 6 20 5 25 -1 5 0 16 4 24 3 8 13 42 22 75 24 84 76 195 129 270 49 70 47 99 -3 37z M5674 4817 c-3 -9 -3 -20 0 -26 4 -5 1 -13 -4 -16 -6 -4 -10 -17 -9 -28 1 -12 -1 -30 -5 -39 -4 -9 -5 -21 -2 -27 4 -5 1 -13 -4 -16 -6 -4 -10 -17 -9 -28 1 -12 -1 -30 -5 -39 -4 -9 -5 -22 -1 -28 10 -16 27 0 22 21 -3 10 -1 22 5 25 5 3 8 16 7 27 -1 12 1 30 5 39 4 9 5 21 2 27 -4 5 -1 13 4 16 6 4 10 17 9 28 -1 12 2 30 6 40 4 11 3 23 -3 29 -8 8 -13 7 -18 -5z M4204 4796 c-4 -9 -4 -20 0 -23 3 -3 1 -12 -5 -19 -6 -8 -9 -20 -6 -28 3 -7 1 -18 -5 -24 -13 -13 -2 -46 13 -37 6 4 9 16 6 26 -3 10 -1 22 4 25 6 3 9 13 8 22 -1 10 1 25 6 35 4 11 3 23 -3 29 -8 8 -13 7 -18 -6z M7524 4796 c-4 -9 -4 -20 0 -23 3 -3 1 -12 -5 -19 -6 -8 -9 -20 -6 -28 3 -7 1 -18 -5 -24 -13 -13 -2 -46 13 -37 6 4 9 16 6 26 -3 10 -1 22 4 25 6 3 9 13 8 22 -1 10 1 25 6 35 4 11 3 23 -3 29 -8 8 -13 7 -18 -6z M6954 4696 c-4 -9 -4 -20 0 -23 3 -3 1 -12 -5 -19 -6 -8 -9 -20 -6 -29 4 -8 2 -17 -4 -21 -6 -3 -9 -16 -8 -27 1 -12 -1 -29 -5 -38 -4 -9 -6 -20 -5 -25 1 -5 -1 -17 -6 -27 -4 -10 -5 -21 -1 -24 3 -3 1 -12 -5 -19 -14 -17 -4 -48 12 -39 6 4 9 16 6 26 -3 10 -1 22 5 25 5 3 8 15 5 25 -3 10 -1 22 5 25 5 3 8 15 5 25 -3 10 -1 22 5 25 5 3 8 16 7 27 -1 12 1 29 5 38 4 9 6 20 5 25 -1 5 1 17 6 27 4 11 3 23 -3 29 -8 8 -13 7 -18 -6z M835 4680 c-3 -5 -4 -14 0 -19 3 -5 0 -13 -5 -16 -6 -4 -10 -17 -9 -28 1 -12 -1 -30 -5 -39 -4 -9 -5 -21 -2 -27 4 -5 1 -13 -4 -16 -6 -4 -10 -17 -8 -28 1 -12 -1 -28 -6 -35 -4 -7 -5 -19 -2 -27 3 -8 1 -17 -5 -21 -6 -3 -9 -16 -8 -27 1 -12 -1 -30 -5 -39 -4 -9 -5 -21 -2 -27 4 -5 1 -13 -4 -16 -6 -4 -10 -17 -9 -28 1 -12 -1 -30 -5 -39 -4 -9 -5 -21 -2 -27 4 -5 1 -13 -4 -16 -6 -4 -10 -17 -9 -28 1 -12 -2 -30 -6 -40 -4 -10 -5 -21 -1 -24 3 -3 1 -12 -5 -19 -14 -17 -4 -48 12 -39 6 4 9 16 6 26 -3 10 -1 22 5 25 5 3 8 15 5 25 -3 10 -1 22 5 25 5 3 8 16 6 27 -1 12 1 28 6 35 4 7 5 19 2 27 -3 8 -1 17 5 21 6 3 9 16 8 27 -1 12 1 30 5 39 4 9 5 21 2 27 -4 5 -1 13 4 16 6 4 10 17 9 28 -1 12 1 30 5 39 4 9 5 21 2 27 -4 5 -1 13 4 16 6 4 10 17 9 28 -1 12 2 30 6 40 4 10 5 21 1 24 -3 3 -1 12 5 20 6 7 9 22 6 33 -3 14 1 24 14 31 11 5 17 14 14 20 -8 12 -32 12 -40 -1z M10174 4647 c-3 -9 -3 -20 0 -26 4 -5 1 -13 -4 -16 -6 -4 -10 -17 -9 -28 1 -12 -2 -30 -6 -40 -4 -10 -5 -21 -1 -24 3 -3 1 -12 -5 -19 -14 -17 -4 -48 12 -39 6 4 9 16 6 26 -3 10 -1 22 5 25 5 3 8 15 5 25 -3 10 -1 22 5 25 5 3 8 16 7 27 -1 12 2 30 6 40 4 11 3 23 -3 29 -8 8 -13 7 -18 -5z M4174 4636 c-4 -9 -4 -20 0 -23 3 -3 1 -12 -5 -19 -6 -8 -9 -20 -6 -29 4 -8 2 -17 -4 -21 -6 -3 -9 -16 -8 -27 1 -12 -2 -30 -6 -40 -4 -10 -5 -21 -1 -24 3 -3 1 -12 -5 -19 -6 -8 -9 -20 -6 -29 4 -8 2 -17 -4 -21 -6 -3 -9 -16 -8 -27 1 -12 -2 -30 -6 -40 -4 -10 -5 -21 -1 -24 3 -3 1 -12 -5 -19 -6 -8 -9 -20 -6 -29 4 -8 2 -17 -4 -21 -6 -3 -9 -16 -8 -27 1 -12 -2 -30 -6 -40 -4 -10 -5 -21 -1 -24 3 -3 1 -12 -5 -19 -6 -8 -9 -20 -6 -29 4 -8 2 -17 -4 -21 -6 -3 -9 -16 -8 -27 1 -12 -1 -30 -6 -39 -9 -22 1 -51 16 -43 5 4 9 17 8 28 -1 12 1 30 6 40 4 9 5 24 2 32 -4 8 -1 17 4 21 6 3 9 15 6 25 -3 10 -1 22 5 25 5 3 8 15 5 25 -3 10 -1 22 5 25 5 3 8 16 7 27 -1 12 2 30 6 40 4 10 5 21 1 24 -3 3 -1 12 5 19 6 8 9 20 6 29 -4 8 -2 17 4 21 6 3 9 16 8 27 -1 12 2 30 6 40 4 10 5 21 1 24 -3 3 -1 12 5 19 6 8 9 20 6 29 -4 8 -2 17 4 21 6 3 9 16 8 27 -1 12 1 29 5 38 4 9 6 20 5 25 -1 5 1 17 6 27 4 11 3 23 -3 29 -8 8 -13 7 -18 -6z M7494 4636 c-4 -9 -4 -20 0 -23 3 -3 1 -12 -5 -19 -6 -8 -9 -20 -6 -29 4 -8 2 -17 -4 -21 -6 -3 -9 -16 -8 -27 1 -12 -2 -30 -6 -40 -4 -10 -5 -21 -1 -24 3 -3 1 -12 -4 -18 -6 -7 -12 -32 -14 -56 -2 -24 -7 -52 -11 -61 -4 -9 -4 -21 -1 -27 4 -5 1 -13 -4 -16 -6 -4 -10 -17 -9 -28 1 -12 -2 -30 -6 -40 -4 -10 -5 -21 -1 -24 3 -3 1 -12 -5 -19 -14 -17 -4 -48 12 -39 6 4 9 16 6 26 -3 10 -1 22 5 25 5 3 8 15 5 25 -3 10 -1 22 5 25 5 3 8 16 7 27 -1 12 2 30 6 40 4 10 5 21 1 24 -3 3 -1 12 4 18 6 7 12 32 14 56 2 24 7 52 11 61 4 9 4 21 1 27 -4 5 -1 13 4 16 6 4 10 17 9 28 -1 12 1 29 5 38 4 9 6 20 5 25 -1 5 1 17 6 27 4 11 3 23 -3 29 -8 8 -13 7 -18 -6z M3395 4570 c-3 -5 -7 -24 -9 -42 -2 -18 -7 -41 -11 -51 -4 -10 -5 -21 -1 -24 3 -3 1 -12 -5 -19 -6 -8 -9 -20 -6 -29 4 -8 1 -17 -4 -21 -6 -3 -9 -15 -6 -25 3 -10 1 -22 -5 -25 -5 -3 -8 -15 -5 -25 3 -10 1 -22 -5 -25 -5 -3 -8 -15 -5 -25 3 -10 1 -22 -5 -25 -5 -3 -8 -15 -5 -25 3 -10 1 -22 -5 -25 -5 -3 -8 -15 -5 -25 3 -10 1 -22 -5 -25 -5 -3 -8 -16 -7 -27 1 -12 -1 -30 -5 -39 -4 -9 -5 -22 -1 -28 10 -16 27 0 22 21 -3 10 -1 22 5 25 5 3 8 16 7 27 -1 12 2 30 6 40 4 10 5 21 1 24 -3 3 -1 12 5 19 6 8 9 20 6 29 -4 8 -1 17 4 21 6 3 9 15 6 25 -3 10 -1 22 5 25 5 3 8 15 5 25 -3 10 -1 22 5 25 5 3 8 15 5 25 -3 10 -1 22 4 25 6 3 9 13 8 22 -1 10 1 25 6 35 4 10 5 21 1 24 -3 3 -2 11 3 17 14 18 23 74 12 80 -5 4 -12 2 -16 -4z M6164 4566 c-4 -9 -4 -20 0 -23 3 -3 1 -12 -5 -19 -13 -16 -4 -48 11 -39 6 4 10 14 9 23 -1 10 1 25 6 35 4 11 3 23 -3 29 -8 8 -13 7 -18 -6z M234 4556 c-4 -9 -4 -20 0 -23 3 -3 1 -12 -5 -19 -6 -8 -9 -20 -6 -29 4 -8 2 -17 -4 -21 -6 -3 -9 -16 -8 -27 1 -12 -2 -30 -6 -40 -4 -10 -5 -21 -1 -24 3 -3 1 -12 -4 -18 -6 -7 -12 -32 -14 -56 -2 -24 -7 -52 -11 -61 -4 -10 -5 -25 -2 -33 4 -8 2 -17 -4 -21 -5 -3 -9 -13 -7 -22 1 -10 -1 -22 -5 -29 -4 -7 -9 -31 -11 -55 -2 -24 -7 -51 -11 -61 -4 -10 -3 -23 3 -29 8 -8 13 -7 18 6 4 9 4 20 0 23 -3 3 -1 12 4 18 6 7 12 32 14 56 2 24 7 52 11 61 4 9 4 21 1 27 -4 5 -1 13 4 16 6 4 10 17 8 28 -1 12 1 27 5 34 4 7 9 31 11 55 2 24 7 51 11 60 4 9 4 21 1 27 -4 5 -1 13 4 16 6 4 10 17 9 28 -1 12 1 29 5 38 4 9 6 20 5 25 -1 5 1 17 6 27 4 11 3 23 -3 29 -8 8 -13 7 -18 -6z M2845 4540 c-4 -6 -4 -14 -1 -17 3 -3 1 -12 -5 -19 -6 -8 -9 -20 -6 -29 4 -8 1 -17 -4 -21 -6 -3 -9 -15 -6 -25 3 -10 1 -22 -5 -25 -5 -3 -7 -12 -4 -19 2 -7 0 -17 -6 -23 -13 -13 -2 -46 13 -37 6 4 9 16 6 26 -3 10 -1 22 5 25 5 3 7 12 4 20 -3 7 -1 16 5 20 5 3 9 13 8 22 -1 10 1 25 6 35 4 10 5 21 1 24 -3 3 -1 12 6 20 8 10 8 17 1 24 -8 8 -13 7 -18 -1z M5624 4537 c-3 -9 -3 -20 0 -26 4 -5 1 -13 -4 -16 -6 -4 -10 -17 -9 -28 1 -12 -1 -30 -5 -39 -4 -9 -5 -21 -2 -27 4 -5 1 -13 -4 -16 -6 -4 -10 -17 -9 -28 1 -12 -1 -30 -6 -39 -4 -10 -5 -25 -2 -33 4 -8 2 -17 -4 -21 -5 -3 -9 -13 -8 -22 1 -10 -1 -25 -6 -35 -4 -10 -5 -21 -1 -24 3 -3 1 -11 -4 -18 -5 -7 -11 -25 -13 -42 -2 -16 -25 -74 -51 -128 -78 -161 -218 -287 -371 -335 -46 -14 -61 -25 -47 -34 13 -8 115 28 169 60 128 74 284 274 313 399 1 6 7 21 12 34 5 14 7 30 4 37 -3 8 0 16 5 20 6 3 9 15 6 25 -3 10 -1 22 5 25 5 3 8 15 5 25 -3 10 -1 22 5 25 5 3 8 16 7 27 -1 12 1 30 6 40 4 9 5 24 2 32 -4 8 -1 17 4 21 6 3 9 15 6 25 -3 10 -1 22 5 25 5 3 8 16 7 27 -1 12 2 30 6 40 4 11 3 23 -3 29 -8 8 -13 7 -18 -5z M6144 4456 c-4 -9 -4 -20 0 -23 3 -3 1 -12 -5 -19 -6 -8 -9 -20 -6 -28 3 -7 1 -18 -5 -24 -13 -13 -2 -46 13 -37 6 4 9 16 6 26 -3 10 -1 22 4 25 6 3 9 13 8 22 -1 10 1 25 6 35 4 11 3 23 -3 29 -8 8 -13 7 -18 -6z M10134 4426 c-4 -9 -4 -20 0 -23 3 -3 1 -12 -5 -20 -6 -7 -9 -22 -6 -33 3 -11 1 -23 -5 -26 -5 -3 -8 -16 -7 -27 1 -12 -2 -30 -6 -40 -4 -10 -5 -21 -1 -24 3 -3 1 -12 -5 -19 -14 -17 -4 -48 12 -39 6 4 9 16 6 26 -3 10 -1 22 4 25 6 3 9 13 8 22 -1 10 1 25 6 35 4 9 5 24 2 32 -4 8 -2 17 4 21 6 3 9 16 8 27 -1 12 2 30 6 40 4 11 3 23 -3 29 -8 8 -13 7 -18 -6z M6894 4376 c-4 -9 -4 -20 0 -23 3 -3 1 -12 -5 -19 -6 -8 -9 -20 -6 -29 4 -8 2 -17 -4 -21 -6 -3 -9 -16 -8 -27 1 -12 -2 -30 -6 -40 -4 -10 -5 -21 -1 -24 3 -3 1 -12 -4 -18 -6 -7 -12 -32 -14 -56 -2 -24 -7 -52 -11 -62 -4 -10 -5 -21 -1 -24 3 -3 1 -12 -5 -19 -13 -16 -4 -48 11 -39 6 4 10 14 9 23 -1 10 1 25 6 35 4 10 5 21 1 24 -3 3 -1 12 4 18 6 7 12 32 14 56 2 24 7 52 11 61 4 9 4 21 1 27 -4 5 -1 13 4 16 6 4 10 17 9 28 -1 12 1 29 5 38 4 9 6 20 5 25 -1 5 1 17 6 27 4 11 3 23 -3 29 -8 8 -13 7 -18 -6z M9574 4337 c-3 -9 -3 -20 0 -26 4 -5 1 -13 -5 -16 -5 -4 -8 -13 -5 -21 3 -7 1 -16 -5 -20 -6 -3 -8 -12 -5 -19 2 -7 1 -16 -3 -21 -5 -5 -18 -43 -31 -84 -26 -87 -67 -182 -110 -251 -31 -51 -25 -78 8 -32 55 78 161 340 147 363 -3 5 0 12 6 15 5 4 8 13 5 21 -3 7 -1 16 5 19 5 4 9 12 8 18 -1 7 1 20 6 30 4 11 3 23 -3 29 -8 8 -13 7 -18 -5z M2794 4296 c-4 -9 -4 -20 0 -23 3 -3 1 -12 -5 -19 -6 -8 -9 -20 -6 -28 3 -7 1 -18 -5 -24 -13 -13 -2 -46 13 -37 6 4 9 16 6 26 -3 10 -1 22 4 25 6 3 9 13 8 22 -1 10 1 25 6 35 4 11 3 23 -3 29 -8 8 -13 7 -18 -6z M6114 4296 c-4 -9 -4 -20 0 -23 3 -3 1 -12 -5 -19 -6 -8 -9 -20 -6 -29 4 -8 2 -17 -4 -21 -6 -3 -9 -16 -8 -27 1 -12 -2 -30 -6 -40 -4 -10 -5 -21 -1 -24 3 -3 1 -12 -5 -19 -6 -8 -9 -20 -6 -29 4 -8 2 -17 -4 -21 -6 -3 -9 -16 -8 -27 1 -12 -2 -30 -6 -40 -4 -10 -5 -21 -1 -24 3 -3 1 -12 -5 -19 -6 -8 -9 -20 -6 -29 4 -8 2 -17 -4 -21 -6 -3 -9 -16 -8 -27 1 -12 -2 -30 -6 -40 -4 -10 -5 -21 -1 -24 3 -3 1 -12 -5 -19 -14 -17 -4 -48 12 -39 6 4 9 16 6 26 -3 10 -1 22 5 25 5 3 8 15 5 25 -3 10 -1 22 5 25 5 3 8 16 7 27 -1 12 2 30 6 40 4 10 5 21 1 24 -3 3 -1 12 5 19 6 8 9 20 6 29 -4 8 -2 17 4 21 6 3 9 16 8 27 -1 12 2 30 6 40 4 10 5 21 1 24 -3 3 -1 12 5 19 6 8 9 20 6 29 -4 8 -2 17 4 21 6 3 9 16 8 27 -1 12 1 29 5 38 4 9 6 20 5 25 -1 5 1 17 6 27 4 11 3 23 -3 29 -8 8 -13 7 -18 -6z M7965 4278 c-9 -23 -2 -83 10 -83 14 0 19 75 6 88 -7 7 -12 5 -16 -5z M8535 4278 c-8 -22 0 -163 10 -163 13 0 17 162 5 170 -6 3 -12 0 -15 -7z M10084 4147 c-3 -9 -3 -20 0 -26 4 -5 1 -13 -4 -16 -6 -4 -10 -17 -9 -28 1 -12 -1 -30 -5 -39 -4 -9 -5 -21 -2 -27 4 -5 1 -13 -4 -16 -6 -4 -10 -17 -9 -28 1 -12 -1 -30 -5 -39 -4 -9 -5 -21 -2 -27 4 -5 1 -13 -4 -16 -6 -4 -10 -17 -9 -28 1 -12 -1 -30 -5 -39 -4 -9 -5 -21 -2 -27 4 -5 1 -13 -4 -16 -6 -4 -10 -17 -9 -28 1 -12 -1 -30 -5 -39 -4 -9 -5 -21 -2 -27 4 -5 1 -13 -4 -16 -6 -4 -10 -17 -9 -28 1 -12 -1 -30 -5 -39 -4 -9 -5 -22 -1 -28 10 -16 27 0 22 21 -3 10 -1 22 5 25 5 3 8 16 6 27 -1 12 1 28 6 35 4 7 5 19 2 27 -3 8 -1 17 5 21 6 3 9 16 8 27 -1 12 1 30 5 39 4 9 5 21 2 27 -4 5 -1 13 4 16 6 4 10 17 9 28 -1 12 1 30 5 39 4 9 5 21 2 27 -4 5 -1 13 4 16 6 4 10 17 9 28 -1 12 1 30 5 39 4 9 5 21 2 27 -4 5 -1 13 4 16 6 4 10 17 9 28 -1 12 2 30 6 40 4 11 3 23 -3 29 -8 8 -13 7 -18 -5z M2764 4136 c-4 -10 -2 -22 4 -28 8 -8 13 -7 18 6 4 10 2 22 -4 28 -8 8 -13 7 -18 -6z M7394 4096 c-4 -9 -4 -20 0 -23 3 -3 1 -12 -5 -19 -6 -8 -9 -20 -6 -29 4 -8 2 -17 -4 -21 -6 -3 -9 -16 -8 -27 1 -12 -2 -30 -6 -40 -4 -10 -5 -21 -1 -24 3 -3 1 -12 -5 -19 -6 -8 -9 -20 -6 -29 4 -8 2 -17 -4 -21 -6 -3 -9 -16 -8 -27 1 -12 -2 -30 -6 -40 -4 -10 -5 -21 -1 -24 3 -3 1 -12 -5 -19 -6 -8 -9 -20 -6 -28 3 -7 1 -18 -5 -24 -13 -13 -2 -46 13 -37 6 4 9 16 6 26 -3 10 -1 22 5 25 5 3 8 15 5 25 -3 10 -1 22 5 25 5 3 8 15 5 25 -3 10 -1 22 5 25 5 3 8 16 7 27 -1 12 2 30 6 40 4 10 5 21 1 24 -3 3 -1 12 5 19 6 8 9 20 6 29 -4 8 -2 17 4 21 6 3 9 16 8 27 -1 12 1 29 5 38 4 9 6 20 5 25 -1 5 1 17 6 27 4 11 3 23 -3 29 -8 8 -13 7 -18 -6z M2754 4077 c-3 -8 -4 -21 -3 -28 1 -8 -1 -22 -5 -31 -10 -23 0 -51 15 -42 6 3 9 17 6 30 -2 14 0 27 4 30 12 7 11 41 -1 49 -6 3 -13 0 -16 -8z M8535 4077 c-9 -22 -2 -62 10 -60 6 1 11 14 13 29 4 32 -14 56 -23 31z M714 4027 c-3 -9 -3 -20 0 -26 4 -5 1 -13 -4 -16 -6 -4 -10 -17 -9 -28 1 -12 -1 -30 -5 -39 -4 -9 -5 -21 -2 -27 4 -5 1 -13 -4 -16 -6 -4 -10 -17 -9 -28 1 -12 -1 -30 -5 -39 -4 -9 -5 -21 -2 -27 4 -5 1 -13 -4 -16 -6 -4 -10 -17 -9 -28 1 -12 -1 -30 -5 -39 -4 -9 -5 -21 -2 -27 4 -5 1 -13 -4 -16 -6 -4 -10 -17 -9 -28 1 -12 -1 -30 -5 -39 -4 -9 -5 -21 -2 -27 4 -5 1 -13 -4 -16 -6 -4 -10 -17 -9 -28 1 -12 -1 -30 -5 -39 -4 -9 -5 -21 -2 -27 4 -5 1 -13 -4 -16 -6 -4 -10 -17 -9 -28 1 -12 -1 -30 -5 -39 -4 -9 -5 -21 -2 -27 4 -5 1 -13 -4 -16 -6 -4 -10 -17 -9 -28 1 -12 -1 -30 -5 -39 -4 -9 -5 -22 -1 -28 10 -16 27 0 22 21 -3 10 -1 22 5 25 5 3 8 16 7 27 -1 12 1 30 5 39 4 9 5 21 2 27 -4 5 -1 13 4 16 6 4 10 17 9 28 -1 12 1 30 5 39 4 9 5 21 2 27 -4 5 -1 13 4 16 6 4 10 17 9 28 -1 12 1 30 5 39 4 9 5 21 2 27 -4 5 -1 13 4 16 6 4 10 17 9 28 -1 12 1 30 5 39 4 9 5 21 2 27 -4 5 -1 13 4 16 6 4 10 17 9 28 -1 12 1 30 5 39 4 9 5 21 2 27 -4 5 -1 13 4 16 6 4 10 17 9 28 -1 12 1 30 5 39 4 9 5 21 2 27 -4 5 -1 13 4 16 6 4 10 17 9 28 -1 12 2 30 6 40 4 11 3 23 -3 29 -8 8 -13 7 -18 -5z M3284 4006 c-4 -10 -2 -22 4 -28 8 -8 13 -7 18 6 4 10 2 22 -4 28 -8 8 -13 7 -18 -6z M8544 3986 c-3 -9 -3 -24 2 -33 4 -10 6 -21 6 -25 -4 -16 43 -126 70 -165 48 -72 145 -138 212 -148 12 -1 29 -6 38 -10 22 -9 52 -3 50 10 -1 6 -15 11 -30 11 -28 1 -40 5 -111 36 -93 39 -153 107 -187 212 -9 28 -19 56 -23 61 -3 6 -4 20 -3 32 4 26 -16 41 -24 19z M4604 3977 c-8 -22 1 -83 12 -78 13 5 17 78 5 86 -6 3 -14 0 -17 -8z M124 3956 c-4 -9 -4 -20 0 -23 3 -3 1 -12 -5 -19 -6 -8 -9 -20 -6 -29 4 -8 2 -17 -4 -21 -6 -3 -9 -16 -8 -27 1 -12 -1 -30 -5 -39 -4 -9 -5 -21 -2 -27 4 -5 1 -13 -4 -16 -6 -4 -10 -17 -9 -28 1 -12 -2 -30 -6 -40 -4 -10 -5 -21 -1 -24 3 -3 1 -12 -5 -19 -14 -17 -4 -48 12 -39 6 4 9 16 6 26 -3 10 -1 22 5 25 5 3 8 15 5 25 -3 10 -1 22 5 25 5 3 8 16 7 27 -1 12 1 30 5 39 4 9 5 21 2 27 -4 5 -1 13 4 16 6 4 10 17 9 28 -1 12 1 29 5 38 4 9 6 20 5 25 -1 5 1 17 6 27 4 11 3 23 -3 29 -8 8 -13 7 -18 -6z M3274 3946 c-8 -21 3 -49 16 -41 5 3 10 15 10 25 0 25 -18 36 -26 16z M6814 3946 c-4 -9 -4 -20 0 -23 3 -3 1 -12 -5 -19 -6 -8 -9 -20 -6 -28 3 -7 1 -18 -5 -24 -13 -13 -2 -46 13 -37 6 4 9 16 6 26 -3 10 -1 22 4 25 6 3 9 13 8 22 -1 10 1 25 6 35 4 11 3 23 -3 29 -8 8 -13 7 -18 -6z M2734 3936 c-8 -21 3 -49 16 -41 5 3 10 15 10 25 0 25 -18 36 -26 16z M7965 3937 c-9 -22 -2 -62 10 -60 6 1 11 14 13 29 4 32 -14 56 -23 31z M4045 3928 c-9 -22 -2 -68 10 -71 14 -3 19 63 6 76 -7 7 -12 5 -16 -5z M3264 3877 c-7 -20 -2 -47 11 -50 14 -3 19 43 6 56 -7 7 -12 6 -17 -6z M2725 3868 c-9 -22 -2 -68 10 -71 14 -3 19 63 6 76 -7 7 -12 5 -16 -5z M4606 3873 c-10 -10 -7 -51 4 -58 6 -4 8 -10 5 -15 -10 -16 32 -85 73 -122 47 -43 145 -79 164 -60 9 9 8 12 -3 15 -109 32 -128 40 -156 69 -38 39 -67 103 -64 140 2 26 -10 43 -23 31z M7974 3846 c-4 -9 -1 -22 5 -30 6 -7 8 -15 5 -18 -27 -28 135 -362 166 -343 6 4 0 20 -14 38 -36 48 -91 165 -110 232 -9 33 -20 67 -23 75 -3 8 -5 22 -4 32 3 22 -18 33 -25 14z M9356 3801 c-10 -11 -13 -22 -8 -25 5 -3 17 3 26 13 10 11 13 22 8 25 -5 3 -17 -3 -26 -13z M3254 3797 c-8 -21 1 -97 11 -100 13 -3 18 100 6 108 -6 3 -14 0 -17 -8z M6784 3786 c-4 -9 -4 -20 0 -23 3 -3 1 -12 -5 -19 -13 -16 -4 -48 11 -39 6 4 10 14 9 23 -1 10 1 25 6 35 4 11 3 23 -3 29 -8 8 -13 7 -18 -6z M2717 3763 c-9 -16 -2 -183 8 -183 12 0 17 178 5 185 -5 3 -11 2 -13 -2z M4045 3747 c-9 -22 -2 -62 10 -60 6 1 11 14 13 29 4 32 -14 56 -23 31z M9295 3739 c-12 -18 -108 -75 -150 -89 -22 -7 -44 -15 -50 -19 -5 -3 -20 -4 -32 -3 -11 2 -24 -2 -28 -7 -8 -15 20 -25 43 -16 9 4 28 9 41 11 62 8 219 112 194 127 -7 4 -15 2 -18 -4z M6004 3706 c-4 -9 -4 -20 0 -23 3 -3 1 -12 -5 -19 -6 -8 -9 -20 -6 -28 3 -7 1 -18 -5 -24 -13 -13 -2 -46 13 -37 6 4 9 16 6 26 -3 10 -1 22 4 25 6 3 9 13 8 22 -1 10 1 25 6 35 4 11 3 23 -3 29 -8 8 -13 7 -18 -6z M6764 3676 c-4 -9 -4 -20 0 -23 3 -3 1 -12 -5 -19 -6 -8 -9 -20 -6 -29 4 -8 1 -17 -4 -21 -6 -3 -9 -15 -6 -25 3 -10 1 -22 -5 -25 -5 -3 -8 -16 -7 -27 1 -12 -2 -30 -6 -40 -4 -10 -5 -21 -1 -24 3 -3 1 -12 -5 -19 -14 -17 -4 -48 12 -39 6 4 9 16 6 26 -3 10 -1 22 5 25 5 3 8 15 5 25 -3 10 -1 22 5 25 5 3 8 16 7 27 -1 12 1 30 5 39 4 9 5 21 2 27 -4 5 -2 13 4 16 6 4 10 14 9 23 -1 10 1 25 6 35 4 11 3 23 -3 29 -8 8 -13 7 -18 -6z M4054 3656 c-3 -8 -2 -20 2 -27 4 -7 8 -25 9 -41 6 -65 112 -247 137 -232 5 4 1 15 -10 28 -27 29 -78 123 -92 171 -6 22 -14 47 -17 55 -3 8 -5 22 -4 32 3 22 -18 33 -25 14z M3256 3633 c-23 -24 24 -134 79 -182 47 -40 120 -75 142 -66 22 8 7 19 -42 33 -79 23 -154 112 -155 184 0 27 -12 43 -24 31z M5005 3630 c-8 -13 20 -24 41 -16 20 8 9 26 -16 26 -10 0 -22 -5 -25 -10z M4875 3620 c-3 -5 0 -13 8 -16 23 -8 102 0 102 11 0 14 -102 19 -110 5z M7304 3616 c-4 -9 -4 -20 0 -23 3 -3 1 -12 -5 -19 -6 -8 -9 -20 -6 -29 4 -8 2 -17 -4 -21 -6 -3 -9 -16 -8 -27 1 -12 -2 -30 -6 -40 -4 -10 -5 -21 -1 -24 3 -3 1 -12 -5 -19 -6 -8 -9 -20 -6 -29 4 -8 2 -17 -4 -21 -6 -3 -9 -16 -8 -27 1 -12 -1 -29 -5 -38 -4 -9 -6 -20 -5 -25 0 -5 -2 -19 -6 -31 l-7 -23 -258 0 -258 0 -4 25 c-3 14 -1 28 4 31 5 3 8 13 7 22 -1 10 1 25 5 34 4 9 5 22 1 28 -10 16 -27 0 -22 -21 3 -10 1 -22 -4 -25 -6 -3 -9 -13 -8 -22 1 -10 -1 -24 -5 -32 -3 -9 -5 -27 -3 -40 l4 -25 276 -3 c271 -2 276 -2 287 19 6 11 9 27 6 34 -3 8 0 17 5 21 6 3 9 15 6 25 -3 10 -1 22 5 25 5 3 8 16 7 27 -1 12 2 30 6 40 4 10 5 21 1 24 -3 3 -1 12 5 19 6 8 9 20 6 29 -4 8 -2 17 4 21 6 3 9 16 8 27 -1 12 1 29 5 38 4 9 6 20 5 25 -1 5 1 17 6 27 4 11 3 23 -3 29 -8 8 -13 7 -18 -6z M54 3576 c-4 -9 -4 -20 0 -23 3 -3 1 -12 -5 -19 -13 -16 -4 -48 11 -39 6 4 10 14 9 23 -1 10 1 25 6 35 4 11 3 23 -3 29 -8 8 -13 7 -18 -6z M5974 3546 c-4 -9 -4 -20 0 -23 3 -3 1 -12 -5 -19 -13 -16 -4 -48 11 -39 6 4 10 14 9 23 -1 10 1 25 6 35 4 11 3 23 -3 29 -8 8 -13 7 -18 -6z M2724 3536 c-3 -8 -2 -21 2 -28 4 -7 9 -22 10 -34 12 -107 184 -279 291 -289 16 -1 35 -6 44 -9 24 -11 154 -3 151 9 -1 6 -38 11 -83 11 -44 1 -83 4 -86 8 -4 3 -13 6 -22 6 -72 0 -204 109 -246 203 -34 78 -38 91 -36 109 3 22 -18 33 -25 14z M9974 3537 c-3 -9 -3 -20 0 -26 4 -5 1 -13 -4 -16 -6 -4 -10 -17 -9 -28 1 -12 -1 -30 -5 -39 -4 -9 -5 -21 -2 -27 4 -5 1 -13 -4 -16 -6 -4 -10 -17 -9 -28 1 -12 -1 -30 -5 -39 -4 -9 -5 -22 -1 -28 10 -16 27 0 22 21 -3 10 -1 22 5 25 5 3 8 16 7 27 -1 12 1 30 5 39 4 9 5 21 2 27 -4 5 -1 13 4 16 6 4 10 17 9 28 -1 12 2 30 6 40 4 11 3 23 -3 29 -8 8 -13 7 -18 -5z M34 3466 c-4 -9 -4 -20 0 -23 3 -3 1 -12 -5 -19 -13 -16 -4 -48 11 -39 6 4 10 14 9 23 -1 10 1 25 6 35 4 11 3 23 -3 29 -8 8 -13 7 -18 -6z M5954 3436 c-4 -9 -4 -20 0 -23 3 -3 1 -12 -5 -19 -6 -8 -9 -20 -6 -28 3 -7 1 -18 -5 -24 -13 -13 -2 -46 13 -37 6 4 9 16 6 26 -3 10 -1 22 4 25 6 3 9 13 8 22 -1 10 1 25 6 35 4 11 3 23 -3 29 -8 8 -13 7 -18 -6z M8156 3442 c-18 -30 228 -212 306 -226 13 -3 24 -5 26 -7 1 -1 5 -2 10 -4 4 -1 20 -7 37 -14 16 -7 43 -14 60 -16 16 -1 38 -6 47 -10 22 -9 50 -3 46 10 -2 6 -14 10 -28 11 -14 0 -30 3 -35 6 -11 6 -67 20 -100 24 -11 1 -21 3 -22 4 -2 2 -6 3 -10 4 -56 12 -201 104 -275 174 -31 29 -59 49 -62 44z M9374 3371 c-62 -68 -155 -125 -249 -152 -38 -11 -77 -23 -85 -26 -8 -3 -25 -5 -37 -4 -11 1 -24 -3 -28 -8 -8 -15 21 -25 43 -15 9 4 21 6 26 5 48 -11 236 82 317 156 34 32 65 56 68 54 3 -3 8 3 9 13 8 39 -15 31 -64 -23z M3486 3345 c-47 -57 -108 -99 -180 -123 -58 -20 -75 -39 -30 -35 65 5 192 90 244 163 33 47 6 43 -34 -5z M14 3357 c-3 -9 -3 -20 0 -26 4 -5 2 -12 -3 -15 -4 -3 -9 -33 -10 -66 l-1 -60 290 2 c183 2 291 7 293 13 1 6 -98 11 -279 13 l-282 2 -5 25 c-2 14 0 28 5 31 5 3 8 13 7 22 -1 10 1 25 6 35 4 11 3 23 -3 29 -8 8 -13 7 -18 -5z M5355 3348 c-47 -31 -187 -95 -235 -108 -23 -6 -54 -16 -69 -22 -14 -6 -33 -10 -43 -9 -9 1 -19 -3 -22 -8 -4 -6 -13 -8 -21 -4 -8 3 -23 2 -32 -2 -10 -4 -33 -8 -50 -9 -18 0 -33 -5 -33 -11 -1 -13 36 -19 58 -9 9 4 27 6 39 5 11 -1 24 2 27 8 4 6 13 8 21 4 9 -3 21 0 29 6 7 6 15 9 18 6 10 -10 165 48 255 95 l92 48 -3 -41 c-2 -23 -7 -50 -11 -59 -19 -48 -14 -48 282 -46 270 3 278 4 279 23 1 11 5 28 9 38 4 11 3 23 -3 29 -8 8 -13 7 -18 -6 -4 -9 -4 -20 0 -23 3 -3 1 -12 -5 -20 -17 -20 -514 -19 -522 1 -3 7 -2 17 3 22 4 5 11 28 15 51 9 54 -15 70 -60 41z M9404 3356 c-3 -9 -4 -23 -1 -31 4 -8 2 -17 -4 -21 -5 -3 -9 -13 -8 -22 1 -10 -1 -25 -5 -34 -23 -53 -23 -53 272 -53 173 0 273 4 275 10 1 6 -91 11 -259 13 -251 2 -262 3 -267 22 -3 11 -1 23 5 26 5 3 8 15 5 25 -3 10 -1 22 4 25 12 7 11 41 -1 49 -6 3 -13 -1 -16 -9z M4246 3311 c-5 -8 25 -40 51 -55 29 -16 19 14 -11 38 -19 14 -37 22 -40 17z M9924 3256 c-4 -10 -2 -22 4 -28 8 -8 13 -7 18 6 4 10 2 22 -4 28 -8 8 -13 7 -18 -6z M4325 3250 c-6 -10 60 -48 92 -53 10 -1 24 -6 31 -10 6 -5 12 -5 12 -1 0 3 6 2 13 -4 19 -16 84 -25 91 -14 9 15 -5 21 -55 26 -24 3 -45 6 -46 7 -2 1 -6 2 -10 4 -11 3 -85 35 -105 46 -10 6 -19 5 -23 -1z M4585 3171 c-3 -6 0 -14 8 -17 25 -9 227 0 227 11 0 14 -226 20 -235 6z M8725 3170 c-3 -5 0 -13 8 -15 24 -10 212 -1 212 10 0 14 -211 19 -220 5z"/>
  </g>
  <!-- orange -->
  <g fill="#e8952c" fill-rule="evenodd">
    <path d="M16610 13964 c-158 -112 -366 -265 -720 -528 -2185 -1624 -3472 -2500 -4920 -3348 -469 -274 -767 -441 -1255 -700 -1931 -1026 -3843 -1710 -5420 -1938 -44 -6 -91 -13 -105 -16 -22 -3 -299 -35 -430 -49 -25 -2 -88 -7 -140 -10 -52 -4 -108 -9 -125 -11 -16 -3 -212 -8 -435 -11 -223 -2 -407 -7 -409 -9 -2 -2 -10 1 -17 7 -15 13 -104 8 -104 -6 0 -5 24 -10 54 -11 29 -1 57 -4 62 -6 5 -3 58 -9 118 -13 61 -4 121 -9 135 -10 15 -2 91 -6 171 -10 80 -3 168 -8 195 -11 57 -5 898 -5 960 0 22 2 110 7 195 11 85 3 169 8 185 10 17 2 68 6 115 10 780 55 1705 225 2554 470 589 170 1111 354 1945 687 947 378 1203 459 1451 461 216 2 333 -80 396 -276 42 -134 43 -239 4 -361 -40 -124 -172 -383 -371 -731 -274 -477 -448 -810 -430 -828 6 -6 27 25 62 94 546 1091 1321 2007 2184 2580 713 474 1556 755 2416 807 231 13 723 6 885 -13 22 -2 102 -12 179 -20 170 -19 402 -57 590 -97 212 -44 327 -58 470 -57 510 4 1008 236 1575 734 80 70 164 143 187 162 61 50 46 55 -58 21 -1267 -407 -1961 213 -2039 1822 -7 156 -5 541 5 660 2 30 7 100 10 155 3 55 8 118 11 140 2 22 8 90 14 150 6 61 13 127 16 148 9 57 -13 49 -166 -59z M14145 6470 c-4 -6 -4 -14 -1 -17 3 -3 1 -12 -5 -19 -6 -7 -8 -18 -4 -24 9 -14 28 -1 21 15 -2 7 1 18 7 24 8 8 8 14 0 22 -8 8 -13 8 -18 -1z M12214 6318 c-20 -35 -39 -66 -41 -70 -2 -4 1 -9 6 -12 5 -3 22 15 37 41 15 27 34 58 41 70 9 13 10 23 4 27 -5 3 -26 -22 -47 -56z M14105 6280 c-4 -6 -4 -14 -1 -17 3 -3 1 -12 -5 -19 -6 -7 -8 -18 -4 -24 9 -14 28 -1 21 15 -2 7 1 18 7 24 8 8 8 14 0 22 -8 8 -13 8 -18 -1z M12034 6018 c-20 -35 -39 -66 -41 -70 -2 -4 1 -9 6 -12 5 -3 22 15 37 41 15 27 34 58 41 70 9 13 10 23 4 27 -5 3 -26 -22 -47 -56z M14595 6060 c-4 -6 -4 -14 -1 -17 3 -3 1 -12 -5 -19 -6 -7 -8 -18 -4 -24 9 -14 28 -1 21 15 -2 7 1 18 7 24 8 8 8 14 0 22 -8 8 -13 8 -18 -1z M14055 6040 c-4 -6 -4 -14 -1 -17 3 -3 1 -12 -5 -19 -6 -7 -8 -18 -4 -24 9 -14 28 -1 21 15 -2 7 1 18 7 24 8 8 8 14 0 22 -8 8 -13 8 -18 -1z M12584 5896 c-4 -10 -2 -22 4 -28 8 -8 13 -7 18 6 4 10 2 22 -4 28 -8 8 -13 7 -18 -6z M11914 5818 c-20 -35 -39 -66 -41 -70 -2 -4 1 -9 6 -12 5 -3 22 15 37 41 15 27 34 58 41 70 9 13 10 23 4 27 -5 3 -26 -22 -47 -56z M12615 5739 c-4 -6 -3 -15 3 -21 6 -6 8 -16 6 -23 -3 -7 -1 -16 5 -19 14 -9 25 14 13 26 -6 6 -8 16 -6 23 7 17 -12 29 -21 14z M11794 5618 c-20 -35 -39 -66 -41 -70 -2 -4 1 -9 6 -12 5 -3 22 15 37 41 15 27 34 58 41 70 9 13 10 23 4 27 -5 3 -26 -22 -47 -56z M13975 5660 c-4 -6 -4 -14 -1 -17 3 -3 1 -12 -5 -19 -6 -7 -8 -18 -4 -24 9 -14 28 -1 21 15 -2 7 1 18 7 24 8 8 8 14 0 22 -8 8 -13 8 -18 -1z M16305 5570 c-3 -5 0 -13 8 -15 24 -10 202 -1 202 10 0 14 -201 19 -210 5z M15727 5563 c-3 -5 0 -22 8 -36 8 -15 14 -30 15 -32 0 -7 10 -6 10 0 0 3 0 6 -1 8 0 1 -2 12 -3 25 -3 27 -21 48 -29 35z M16226 5561 c-4 -6 -13 -8 -20 -5 -8 3 -17 0 -21 -5 -3 -6 -11 -9 -16 -5 -5 3 -15 1 -22 -4 -7 -6 -15 -11 -19 -11 -5 -1 -9 -1 -10 -2 -2 0 -13 -2 -26 -5 -12 -2 -42 -14 -65 -26 -23 -12 -45 -22 -49 -23 -5 0 -8 -3 -8 -7 0 -7 5 -10 13 -7 1 0 9 2 17 4 8 2 38 13 65 26 28 12 53 23 57 23 3 1 9 4 13 8 4 4 13 4 20 2 7 -3 16 0 20 5 3 6 11 9 16 6 5 -4 15 -3 21 2 7 4 21 7 30 8 10 0 18 5 18 10 1 14 -27 19 -34 6z M16555 5560 c-8 -13 20 -24 41 -16 20 8 9 26 -16 26 -10 0 -22 -5 -25 -10z M16685 5541 c-7 -12 12 -24 24 -16 5 3 13 0 16 -6 4 -5 13 -8 20 -5 7 2 16 2 20 -2 4 -4 11 -8 16 -8 5 -1 11 -3 14 -4 3 -1 8 -3 13 -4 4 -1 17 -7 30 -14 12 -7 22 -10 22 -7 0 3 17 -5 38 -18 63 -40 80 -48 87 -38 5 10 -71 61 -97 65 -7 1 -23 8 -35 14 -13 7 -23 10 -23 6 0 -3 -7 -1 -15 6 -8 7 -15 9 -15 5 0 -4 -7 -2 -15 5 -8 7 -15 9 -15 5 0 -4 -7 -2 -15 5 -8 6 -19 9 -24 6 -5 -4 -12 -2 -16 4 -8 13 -22 13 -30 1z M15395 5510 c-8 -12 20 -24 35 -15 6 3 8 11 5 16 -8 12 -32 12 -40 -1z M15225 5480 c-8 -12 20 -24 35 -15 6 3 8 11 5 16 -8 12 -32 12 -40 -1z M13938 5475 c-3 -23 -5 -31 -13 -48 -4 -10 -5 -21 -1 -24 3 -3 1 -12 -5 -19 -6 -7 -8 -18 -4 -24 9 -14 28 -1 21 16 -3 7 -1 16 5 20 5 3 9 13 7 22 -1 10 1 23 6 30 5 8 4 18 -3 25 -6 6 -12 7 -13 2z M12191 5441 c-12 -21 -6 -28 19 -27 18 1 20 38 3 43 -6 2 -16 -5 -22 -16z M15917 5444 c-38 -20 -24 -38 14 -19 16 9 27 20 24 25 -7 12 -4 13 -38 -6z M12150 5371 c-11 -23 -16 -42 -10 -46 5 -3 18 12 30 34 11 23 16 42 10 46 -5 3 -18 -12 -30 -34z M15214 5386 c-4 -10 -2 -22 4 -28 8 -8 13 -7 18 6 4 10 2 22 -4 28 -8 8 -13 7 -18 -6z M17037 5383 c-4 -5 16 -31 42 -57 27 -26 51 -44 54 -39 4 5 -16 31 -42 57 -27 26 -51 44 -54 39z M15224 5316 c-4 -10 -2 -22 4 -28 8 -8 13 -7 18 6 4 10 2 22 -4 28 -8 8 -13 7 -18 -6z M12704 5306 c-4 -9 -1 -22 5 -30 6 -7 8 -16 5 -19 -4 -3 -4 -14 0 -23 5 -13 10 -14 18 -6 6 6 7 18 3 29 -5 10 -7 25 -6 35 3 22 -18 33 -25 14z M12067 5218 c-53 -97 -55 -102 -43 -106 13 -5 109 175 97 182 -5 4 -30 -31 -54 -76z M12234 5246 c-4 -10 -2 -22 4 -28 8 -8 13 -7 18 6 4 10 2 22 -4 28 -8 8 -13 7 -18 -6z M15235 5228 c-7 -23 0 -88 10 -88 13 0 17 88 5 95 -6 4 -12 0 -15 -7z M12725 5199 c-4 -6 -3 -15 3 -21 6 -6 8 -16 6 -23 -3 -7 -1 -16 5 -19 14 -9 25 14 13 26 -6 6 -8 16 -6 23 7 17 -12 29 -21 14z M17187 5204 c-9 -10 32 -86 43 -79 6 4 1 23 -10 46 -22 41 -23 43 -33 33z M16155 5100 c-3 -6 -11 -8 -16 -4 -5 3 -16 0 -24 -6 -8 -7 -15 -9 -15 -5 0 4 -7 2 -15 -5 -8 -7 -15 -9 -15 -5 0 4 -11 0 -25 -9 -14 -9 -25 -14 -25 -11 0 3 -23 -6 -50 -20 -28 -14 -48 -30 -45 -35 4 -6 27 1 55 15 28 14 51 24 52 23 2 -1 14 5 28 12 14 8 28 15 33 16 4 1 10 3 15 4 4 1 12 3 17 5 6 1 15 3 20 5 6 1 18 3 27 4 10 0 18 6 18 11 1 14 -27 18 -35 5z M16305 5100 c-8 -12 20 -24 35 -15 6 3 8 11 5 16 -8 12 -32 12 -40 -1z M11957 5018 c-53 -97 -55 -102 -43 -106 13 -5 109 175 97 182 -5 4 -30 -31 -54 -76z M17236 5091 c-4 -5 -2 -12 4 -16 6 -4 8 -10 5 -15 -3 -5 -1 -11 5 -15 6 -4 8 -10 5 -15 -3 -5 -1 -11 4 -15 6 -3 8 -12 5 -19 -3 -8 -1 -17 5 -20 6 -4 8 -13 5 -20 -7 -17 12 -30 21 -16 4 6 2 17 -4 24 -6 7 -8 16 -5 19 3 3 2 12 -2 19 -5 7 -9 16 -10 21 -1 4 -3 9 -4 12 -1 3 -4 10 -5 15 -1 6 -4 12 -5 15 -1 3 -3 9 -4 14 -2 16 -14 23 -20 12z M16415 5080 c-3 -5 -4 -11 -1 -11 3 -1 9 -2 14 -3 4 -1 17 -7 29 -14 13 -7 24 -8 28 -3 3 6 -4 15 -15 21 -11 6 -20 8 -20 4 0 -3 -6 -1 -14 5 -10 8 -16 9 -21 1z M13845 5040 c-4 -6 -4 -14 -1 -17 3 -3 1 -12 -5 -19 -6 -7 -8 -18 -4 -24 9 -14 28 -1 21 15 -2 7 1 18 7 24 8 8 8 14 0 22 -8 8 -13 8 -18 -1z M15237 5033 c-8 -15 -2 -68 8 -68 12 0 16 63 4 70 -4 3 -9 2 -12 -2z M15879 4982 c-29 -24 -11 -36 20 -13 14 11 19 21 13 25 -5 3 -20 -2 -33 -12z M12284 4916 c-4 -10 -2 -22 4 -28 8 -8 13 -7 18 6 4 10 2 22 -4 28 -8 8 -13 7 -18 -6z M16647 4924 c-3 -5 3 -20 12 -33 11 -14 21 -19 25 -13 3 5 -2 20 -12 33 -11 12 -21 18 -25 13z M17284 4906 c-4 -10 -2 -22 4 -28 8 -8 13 -7 18 6 4 10 2 22 -4 28 -8 8 -13 7 -18 -6z M11865 4851 c-14 -29 -21 -52 -15 -56 5 -3 21 17 35 44 14 29 21 52 15 56 -5 3 -21 -17 -35 -44z M15754 4866 c-4 -10 -2 -22 4 -28 8 -8 13 -7 18 6 4 10 2 22 -4 28 -8 8 -13 7 -18 -6z M12294 4856 c-4 -10 -2 -22 4 -28 8 -8 13 -7 18 6 4 10 2 22 -4 28 -8 8 -13 7 -18 -6z M16687 4864 c-3 -4 -1 -16 5 -28 7 -11 13 -24 14 -28 1 -5 3 -10 4 -13 1 -3 3 -9 4 -14 0 -5 4 -12 8 -16 4 -4 4 -13 2 -20 -7 -16 12 -29 21 -15 4 6 1 18 -7 27 -7 9 -12 18 -10 20 1 1 1 5 1 8 -1 3 -3 10 -4 15 -1 6 -3 11 -5 13 -1 1 -3 10 -5 21 -4 23 -19 39 -28 30z M13805 4850 c-4 -6 -4 -14 -1 -17 3 -3 1 -12 -5 -19 -6 -7 -8 -18 -4 -24 9 -14 28 -1 21 15 -2 7 1 18 7 24 8 8 8 14 0 22 -8 8 -13 8 -18 -1z M15214 4836 c-4 -10 -2 -22 4 -28 8 -8 13 -7 18 6 4 10 2 22 -4 28 -8 8 -13 7 -18 -6z M17294 4837 c-7 -20 -2 -47 11 -50 14 -3 19 43 6 56 -7 7 -12 6 -17 -6z M12304 4786 c-4 -10 -2 -22 4 -28 8 -8 13 -7 18 6 4 10 2 22 -4 28 -8 8 -13 7 -18 -6z M11810 4751 c-11 -23 -16 -42 -10 -46 5 -3 18 12 30 34 11 23 16 42 10 46 -5 3 -18 -12 -30 -34z M15724 4706 c-4 -10 -2 -22 4 -28 8 -8 13 -7 18 6 4 10 2 22 -4 28 -8 8 -13 7 -18 -6z M14315 4700 c-4 -6 -4 -14 -1 -17 3 -3 1 -12 -5 -19 -6 -7 -8 -18 -4 -24 9 -14 28 -1 21 15 -2 7 1 18 7 24 8 8 8 14 0 22 -8 8 -13 8 -18 -1z M11760 4661 c-11 -23 -16 -42 -10 -46 5 -3 18 12 30 34 11 23 16 42 10 46 -5 3 -18 -12 -30 -34z M16736 4688 c-9 -27 -1 -198 9 -198 12 0 16 198 4 206 -5 3 -11 -1 -13 -8z M12324 4656 c-4 -10 -2 -22 4 -28 8 -8 13 -7 18 6 4 10 2 22 -4 28 -8 8 -13 7 -18 -6z M13768 4665 c-3 -23 -5 -31 -13 -48 -4 -10 -5 -21 -1 -24 3 -3 1 -12 -5 -19 -6 -7 -8 -18 -4 -24 9 -14 28 -1 21 16 -3 7 -1 16 5 20 5 3 9 13 7 22 -1 10 1 23 6 30 5 8 4 18 -3 25 -6 6 -12 7 -13 2z M11700 4551 c-11 -23 -16 -42 -10 -46 5 -3 18 12 30 34 11 23 16 42 10 46 -5 3 -18 -12 -30 -34z M12344 4526 c-4 -10 -2 -22 4 -28 8 -8 13 -7 18 6 4 10 2 22 -4 28 -8 8 -13 7 -18 -6z M17294 4527 c-7 -20 -2 -47 11 -50 14 -3 19 43 6 56 -7 7 -12 6 -17 -6z M12865 4509 c-4 -6 -3 -15 3 -21 6 -6 8 -16 6 -23 -3 -7 -1 -16 5 -19 14 -9 25 14 13 26 -6 6 -8 16 -6 23 7 17 -12 29 -21 14z M11645 4451 c-14 -29 -21 -52 -15 -56 5 -3 21 17 35 44 14 29 21 52 15 56 -5 3 -21 -17 -35 -44z M12354 4456 c-4 -10 -2 -22 4 -28 8 -8 13 -7 18 6 4 10 2 22 -4 28 -8 8 -13 7 -18 -6z M11076 4418 c-22 -36 -27 -75 -6 -51 23 27 49 82 41 87 -5 4 -21 -13 -35 -36z M16728 4433 c-8 -14 -3 -38 7 -41 12 -3 16 36 4 43 -4 3 -9 2 -11 -2z M17284 4416 c-8 -21 3 -49 16 -41 5 3 10 15 10 25 0 25 -18 36 -26 16z M12364 4386 c-4 -10 -2 -22 4 -28 8 -8 13 -7 18 6 4 10 2 22 -4 28 -8 8 -13 7 -18 -6z M11581 4333 c-19 -35 -28 -60 -22 -66 6 -6 21 14 40 51 39 78 23 91 -18 15z M15124 4356 c-4 -9 -4 -20 0 -23 3 -3 1 -12 -5 -19 -13 -16 -4 -48 11 -39 6 4 10 14 9 23 -1 10 1 25 6 35 4 11 3 23 -3 29 -8 8 -13 7 -18 -6z M17274 4346 c-4 -10 -2 -22 4 -28 8 -8 13 -7 18 6 4 10 2 22 -4 28 -8 8 -13 7 -18 -6z M12374 4326 c-4 -10 -2 -22 4 -28 8 -8 13 -7 18 6 4 10 2 22 -4 28 -8 8 -13 7 -18 -6z M10974 4248 c-20 -35 -39 -66 -41 -70 -2 -4 1 -9 6 -12 5 -3 22 15 37 41 15 27 34 58 41 70 9 13 10 23 4 27 -5 3 -26 -22 -47 -56z M15644 4286 c-4 -10 -2 -22 4 -28 8 -8 13 -7 18 6 4 10 2 22 -4 28 -8 8 -13 7 -18 -6z M16698 4255 c-1 -13 -5 -28 -8 -37 -1 -5 -4 -12 -5 -18 -1 -5 -4 -12 -5 -15 -1 -3 -4 -9 -5 -15 -1 -5 -4 -12 -5 -15 -1 -3 -3 -8 -4 -12 -1 -5 -10 -22 -19 -40 -10 -19 -13 -34 -7 -38 5 -3 16 8 25 25 8 16 13 30 9 30 -4 0 -1 7 6 15 7 8 9 15 5 15 -4 0 -2 7 5 15 7 8 9 15 5 15 -4 0 -2 7 5 15 7 8 9 15 5 15 -4 0 -2 7 5 15 10 12 10 19 2 27 -7 7 -13 8 -14 3z M17239 4166 c-4 -16 -7 -26 -9 -31 -1 -3 -4 -9 -5 -15 -1 -5 -4 -12 -5 -15 -1 -3 -4 -9 -5 -15 -1 -5 -4 -12 -5 -15 -1 -3 -3 -8 -4 -12 -1 -5 -7 -18 -14 -30 -7 -13 -10 -23 -7 -23 3 0 -2 -11 -10 -24 -10 -15 -12 -26 -6 -30 5 -4 15 3 21 14 6 11 8 20 5 20 -3 0 2 11 11 25 9 14 13 25 9 25 -4 0 -2 7 5 15 7 8 9 15 5 15 -4 0 -2 7 5 15 7 8 9 15 5 15 -4 0 -2 7 5 15 7 8 9 15 5 15 -4 0 -2 6 4 14 8 10 9 16 1 21 -5 3 -11 4 -11 1z M15084 4146 c-4 -10 -2 -22 4 -28 8 -8 13 -7 18 6 4 10 2 22 -4 28 -8 8 -13 7 -18 -6z M10809 3973 c-29 -49 -54 -91 -56 -95 -2 -4 1 -9 6 -12 5 -3 28 27 52 67 23 39 49 82 56 94 9 13 10 23 4 27 -5 4 -33 -33 -62 -81z M16605 4021 c-9 -18 -11 -32 -5 -36 5 -3 16 8 25 24 9 18 11 32 5 36 -5 3 -16 -8 -25 -24z M14174 3986 c-4 -10 -2 -22 4 -28 8 -8 13 -7 18 6 4 10 2 22 -4 28 -8 8 -13 7 -18 -6z M16566 3955 c-16 -24 -6 -45 11 -22 19 24 23 36 14 41 -5 3 -16 -5 -25 -19z M14164 3926 c-4 -10 -2 -22 4 -28 8 -8 13 -7 18 6 4 10 2 22 -4 28 -8 8 -13 7 -18 -6z M16516 3891 c-10 -11 -13 -22 -8 -25 5 -3 17 3 26 13 10 11 13 22 8 25 -5 3 -17 -3 -26 -13z M10707 3803 c-20 -32 -33 -62 -30 -67 7 -10 31 20 63 76 34 61 5 53 -33 -9z M11295 3831 c-9 -18 -11 -32 -5 -36 5 -3 16 8 25 24 9 18 11 32 5 36 -5 3 -16 -8 -25 -24z M14154 3846 c-4 -10 -2 -22 4 -28 8 -8 13 -7 18 6 4 10 2 22 -4 28 -8 8 -13 7 -18 -6z M17095 3831 c-9 -18 -11 -32 -5 -36 5 -3 16 8 25 24 9 18 11 32 5 36 -5 3 -16 -8 -25 -24z M13005 3819 c-4 -6 -3 -15 3 -21 6 -6 8 -16 6 -23 -3 -7 -1 -16 5 -19 14 -9 25 14 13 26 -6 6 -8 16 -6 23 7 17 -12 29 -21 14z M16431 3806 c-13 -13 -18 -26 -13 -30 5 -3 19 5 31 18 13 13 18 26 13 30 -5 3 -19 -5 -31 -18z M13614 3797 c-7 -20 -2 -47 11 -50 14 -3 19 43 6 56 -7 7 -12 6 -17 -6z M11242 3738 c-26 -45 -34 -86 -12 -61 23 25 60 102 51 107 -5 3 -23 -17 -39 -46z M14147 3763 c-9 -14 -4 -164 5 -169 5 -3 6 -9 3 -14 -9 -15 15 -64 26 -53 6 6 6 19 -2 39 -7 16 -12 66 -11 111 1 73 -8 108 -21 86z M15549 3768 c-13 -30 10 -84 25 -59 4 5 2 12 -3 16 -6 3 -8 12 -5 19 4 11 -13 35 -17 24z M16318 3730 c-27 -17 -48 -28 -48 -25 0 3 -10 0 -22 -7 -13 -6 -29 -13 -36 -14 -8 -1 -21 -6 -30 -10 -9 -4 -20 -8 -24 -8 -5 -1 -8 -4 -8 -8 0 -5 0 -11 0 -14 0 -4 6 -1 13 5 8 6 17 8 20 5 4 -4 18 1 32 10 14 9 25 14 25 11 0 -3 10 0 23 7 12 6 28 13 34 14 24 4 83 46 77 55 -7 11 -1 13 -56 -21z M15595 3690 c-6 -10 93 -65 103 -56 3 3 11 1 18 -5 8 -7 14 -7 19 1 3 5 4 11 1 11 -22 5 -65 23 -106 44 -17 9 -31 11 -35 5z M11185 3641 c-9 -18 -11 -32 -5 -36 5 -3 16 8 25 24 9 18 11 32 5 36 -5 3 -16 -8 -25 -24z M16045 3640 c-8 -12 20 -24 35 -15 6 3 8 11 5 16 -8 12 -32 12 -40 -1z M16956 3631 c-10 -11 -13 -22 -8 -25 5 -3 17 3 26 13 10 11 13 22 8 25 -5 3 -17 -3 -26 -13z M15755 3630 c-8 -13 20 -24 41 -16 20 8 9 26 -16 26 -10 0 -22 -5 -25 -10z M15944 3629 c-6 -10 6 -14 33 -14 13 0 24 5 25 10 3 11 -51 15 -58 4z M10539 3523 c-29 -49 -54 -91 -56 -95 -2 -4 1 -9 6 -12 5 -3 28 27 52 67 23 39 49 82 56 94 9 13 10 23 4 27 -5 4 -33 -33 -62 -81z M11115 3518 c-26 -46 -49 -86 -52 -90 -2 -4 1 -9 6 -12 7 -5 39 44 108 166 2 4 -1 9 -6 12 -5 3 -30 -31 -56 -76z M13614 3576 c-4 -10 -2 -22 4 -28 8 -8 13 -7 18 6 4 10 2 22 -4 28 -8 8 -13 7 -18 -6z M14964 3506 c-4 -10 -2 -22 4 -28 8 -8 13 -7 18 6 4 10 2 22 -4 28 -8 8 -13 7 -18 -6z M14206 3482 c-3 -5 3 -17 13 -26 11 -10 22 -13 25 -8 3 5 -3 17 -13 26 -11 10 -22 13 -25 8z M13637 3473 c-4 -3 -2 -12 4 -20 6 -7 9 -13 5 -13 -4 0 3 -18 14 -40 12 -23 25 -38 30 -35 6 4 1 24 -12 48 -12 23 -22 45 -23 49 0 11 -11 18 -18 11z M14265 3431 c-6 -11 53 -46 63 -37 3 3 11 1 18 -5 7 -6 18 -8 24 -4 13 8 3 26 -13 24 -11 -2 -58 14 -78 26 -4 3 -10 1 -14 -4z M12514 3406 c-4 -10 -2 -22 4 -28 8 -8 13 -7 18 6 4 10 2 22 -4 28 -8 8 -13 7 -18 -6z M11035 3381 c-9 -18 -11 -32 -5 -36 5 -3 16 8 25 24 9 18 11 32 5 36 -5 3 -16 -8 -25 -24z M16568 3320 c-49 -27 -88 -47 -88 -44 0 3 -10 -1 -22 -8 -13 -7 -26 -13 -30 -14 -5 -1 -10 -3 -13 -4 -3 -1 -9 -4 -15 -5 -5 -1 -12 -4 -15 -5 -3 -1 -9 -3 -15 -4 -5 0 -10 -4 -10 -8 0 -5 0 -11 0 -14 0 -4 7 -1 15 6 8 7 15 9 15 5 0 -4 7 -2 15 5 8 7 15 9 15 5 0 -4 7 -2 15 5 8 7 15 9 15 5 0 -4 11 0 25 9 14 9 25 14 25 11 0 -6 128 58 154 78 47 35 -7 21 -86 -23z M14376 3341 c-10 -11 -13 -22 -8 -25 5 -3 17 3 26 13 10 11 13 22 8 25 -5 3 -17 -3 -26 -13z M12524 3336 c-4 -10 -2 -22 4 -28 8 -8 13 -7 18 6 4 10 2 22 -4 28 -8 8 -13 7 -18 -6z M14935 3340 c-4 -6 -4 -14 -1 -17 3 -3 1 -12 -5 -19 -13 -16 -4 -48 11 -39 6 4 10 14 8 23 -1 10 1 23 6 30 5 8 4 18 -2 24 -6 6 -12 6 -17 -2z M14306 3275 c-16 -13 -24 -25 -18 -29 6 -3 23 4 38 17 36 31 18 42 -20 12z M10965 3261 c-9 -18 -11 -32 -5 -36 5 -3 16 8 25 24 9 18 11 32 5 36 -5 3 -16 -8 -25 -24z M15454 3265 c-9 -23 5 -38 23 -23 9 7 18 12 20 11 15 -11 14 1 -1 12 -25 19 -35 19 -42 0z M10372 3243 c-23 -49 -27 -48 288 -48 192 0 294 4 293 10 -2 6 -106 10 -287 10 -263 0 -283 1 -275 17 6 10 5 19 0 23 -6 3 -14 -2 -19 -12z M13815 3240 c-3 -5 8 -16 25 -25 16 -8 30 -13 30 -9 0 4 7 1 15 -6 8 -7 15 -9 15 -5 0 4 7 2 15 -5 8 -6 19 -9 25 -5 14 9 1 28 -15 21 -7 -2 -16 -2 -20 2 -4 4 -10 7 -13 7 -4 1 -21 9 -39 18 -19 10 -34 13 -38 7z M14245 3237 c-11 -6 -29 -13 -40 -14 -11 -2 -24 -8 -29 -13 -4 -4 -14 -6 -21 -4 -16 7 -29 -12 -15 -21 6 -4 17 -2 24 4 7 6 15 8 19 5 3 -3 16 0 29 7 12 7 29 14 37 15 19 3 35 21 24 27 -5 3 -17 0 -28 -6z M15535 3240 c-3 -5 -4 -11 -1 -11 3 -1 9 -2 14 -3 4 -1 18 -8 30 -15 13 -7 26 -10 29 -7 4 3 12 1 20 -5 7 -6 13 -8 13 -4 0 4 7 2 15 -5 8 -6 19 -9 25 -5 14 9 1 28 -15 21 -7 -2 -16 -2 -20 2 -4 4 -10 7 -13 8 -4 0 -15 4 -24 8 -9 4 -22 8 -30 10 -7 1 -18 5 -25 9 -6 4 -14 3 -18 -3z M13125 3231 c-4 -8 -91 -11 -288 -11 -155 0 -286 0 -291 0 -5 0 -3 -7 4 -15 19 -23 571 -22 590 0 9 11 10 19 3 26 -8 8 -13 7 -18 0z M16316 3221 c-4 -6 -13 -8 -20 -5 -17 7 -30 -12 -16 -21 6 -4 16 -2 23 3 7 6 15 11 20 11 8 1 11 11 4 17 -3 3 -8 1 -11 -5z M13985 3190 c-3 -5 0 -13 8 -16 23 -8 102 0 102 11 0 14 -102 19 -110 5z M14904 3186 c-4 -10 -2 -22 4 -28 8 -8 13 -7 18 6 4 10 2 22 -4 28 -8 8 -13 7 -18 -6z M16085 3181 c-7 -13 17 -24 40 -19 9 1 16 8 16 13 0 14 -48 19 -56 6z M15835 3170 c-9 -15 8 -18 100 -16 54 0 89 5 88 11 -3 12 -181 16 -188 5z M15434 3156 c-4 -10 -2 -22 4 -28 8 -8 13 -7 18 6 4 10 2 22 -4 28 -8 8 -13 7 -18 -6z M14864 2976 c-4 -10 -2 -22 4 -28 8 -8 13 -7 18 6 4 10 2 22 -4 28 -8 8 -13 7 -18 -6z M14824 2766 c-4 -10 -2 -22 4 -28 8 -8 13 -7 18 6 4 10 2 22 -4 28 -8 8 -13 7 -18 -6z M15364 2766 c-4 -10 -2 -22 4 -28 8 -8 13 -7 18 6 4 10 2 22 -4 28 -8 8 -13 7 -18 -6z M15314 2486 c-4 -10 -2 -22 4 -28 8 -8 13 -7 18 6 4 10 2 22 -4 28 -8 8 -13 7 -18 -6z"/>
  </g>
  <!-- gold -->
  <g fill="#a07820" fill-rule="evenodd">
    <path d="M14153 6468 c-5 -7 -26 -92 -46 -188 -20 -96 -119 -571 -221 -1055 -245 -1170 -259 -1246 -272 -1497 -13 -262 62 -426 235 -511 94 -46 291 -48 384 -5 73 34 131 80 168 131 32 44 30 57 -8 57 -91 0 -190 77 -217 169 -42 142 -27 231 290 1766 174 842 232 1131 228 1137 -9 14 -530 10 -541 -4z M12278 6413 c-12 -14 -1784 -2968 -1892 -3155 -21 -37 -25 -49 -14 -53 7 -3 141 -4 298 -3 l285 3 184 318 183 317 563 0 563 0 22 -147 c13 -82 35 -224 50 -318 l26 -170 289 -3 c160 -1 295 0 301 2 8 3 -1 68 -32 218 -76 375 -443 2181 -515 2538 -38 190 -75 372 -82 405 l-13 60 -100 3 c-86 2 -103 0 -116 -15z m2 -1468 c34 -220 70 -458 80 -529 11 -70 20 -130 20 -132 0 -2 -180 -4 -400 -4 -220 0 -400 3 -400 6 0 3 66 126 147 273 81 146 163 296 182 332 20 36 95 172 166 303 l130 237 7 -43 c5 -24 35 -223 68 -443z M15460 5524 c-135 -25 -248 -49 -252 -53 -4 -3 0 -47 9 -96 13 -66 17 -142 17 -280 l0 -190 -158 -830 c-280 -1479 -334 -1770 -330 -1777 3 -5 126 -8 274 -8 246 0 270 1 278 18 5 9 47 227 93 483 l83 466 53 -23 c154 -69 421 -94 638 -60 630 96 1074 595 1144 1285 76 742 -245 1126 -928 1109 -156 -4 -172 -6 -264 -37 -91 -31 -239 -108 -297 -153 l-25 -20 -7 29 c-42 175 -43 178 -63 180 -11 1 -130 -19 -265 -43z m929 -449 c259 -61 373 -262 343 -599 -50 -554 -333 -837 -837 -840 -177 -1 -235 13 -302 71 l-32 28 108 568 c121 638 103 586 222 663 173 113 333 148 498 109z"/>
  </g>
  <!-- circle_line -->
  <g fill="#9ecece" fill-rule="evenodd">
    <path d="M7295 6597 c-10 -8 -14 -16 -9 -19 14 -9 56 11 49 22 -8 13 -18 13 -40 -3z M7535 6600 c-3 -5 -4 -11 -1 -11 3 -1 9 -2 14 -3 4 -1 21 -10 39 -19 19 -10 34 -13 38 -7 3 5 -8 16 -25 25 -16 8 -30 13 -30 9 0 -4 -6 -1 -14 5 -10 8 -16 9 -21 1z M7209 6552 c-29 -24 -11 -36 20 -13 14 11 19 21 13 25 -5 3 -20 -2 -33 -12z M3250 6470 c-14 -26 -2 -50 15 -27 10 14 47 16 267 19 253 3 256 3 254 -17 -1 -12 -6 -26 -10 -33 -4 -7 -4 -17 -1 -22 9 -15 27 -1 21 16 -3 7 -1 16 4 19 5 3 7 18 6 33 l-3 27 -271 3 c-265 3 -271 3 -282 -18z M9980 6470 c-14 -27 -2 -49 15 -27 10 14 43 17 251 19 325 4 317 22 -11 26 -237 2 -244 2 -255 -18z M10508 6483 c-8 -14 -3 -38 7 -41 12 -3 16 36 4 43 -4 3 -9 2 -11 -2z M7758 6404 c-9 -14 11 -56 22 -49 13 8 13 18 -3 40 -8 10 -16 14 -19 9z M7065 6297 c-9 -22 -2 -62 10 -60 6 1 11 14 13 29 4 32 -14 56 -23 31z M7075 6200 c-4 -6 -1 -17 5 -25 7 -8 9 -15 5 -15 -4 0 -3 -6 3 -12 6 -7 11 -16 11 -20 1 -5 3 -8 6 -8 3 0 8 0 11 0 4 0 1 7 -6 15 -7 8 -9 15 -4 15 4 0 3 5 -3 11 -6 6 -9 17 -7 24 7 16 -12 29 -21 15z M7765 6180 c-3 -5 -4 -10 -1 -10 3 0 -8 -22 -24 -50 -26 -44 -28 -79 -2 -47 16 21 43 77 36 77 -4 0 -1 6 5 14 8 9 8 16 2 20 -5 4 -12 2 -16 -4z M3715 6110 c-4 -6 -4 -14 -1 -17 3 -3 1 -12 -5 -19 -6 -7 -8 -18 -4 -24 9 -14 28 -1 21 15 -2 7 1 18 7 24 8 8 8 14 0 22 -8 8 -13 8 -18 -1z M7116 6102 c-3 -5 2 -20 12 -33 24 -29 36 -11 13 20 -11 14 -21 19 -25 13z M7580 5969 c-19 -12 -36 -21 -37 -20 -2 0 -3 -1 -3 -4 0 -3 0 -8 0 -11 0 -4 7 -1 15 6 8 7 15 10 15 6 0 -4 14 1 30 9 17 9 28 20 25 25 -8 13 -4 13 -45 -11z M7285 5960 c-7 -12 32 -33 45 -25 6 4 8 10 5 14 -7 13 -44 20 -50 11z M444 5716 c-4 -10 -2 -22 4 -28 8 -8 13 -7 18 6 4 10 2 22 -4 28 -8 8 -13 7 -18 -6z M1024 5716 c-4 -10 -2 -22 4 -28 8 -8 13 -7 18 6 4 10 2 22 -4 28 -8 8 -13 7 -18 -6z M9165 5571 c-7 -13 17 -24 40 -19 9 1 16 8 16 13 0 14 -48 19 -56 6z M9385 5570 c-8 -12 20 -24 35 -15 6 3 8 11 5 16 -8 12 -32 12 -40 -1z M9804 5556 c-4 -10 -2 -22 4 -28 8 -8 13 -7 18 6 4 10 2 22 -4 28 -8 8 -13 7 -18 -6z M3055 5550 c-4 -6 -4 -14 -1 -17 3 -3 1 -12 -5 -19 -6 -7 -8 -18 -4 -24 9 -14 28 -1 21 15 -2 7 1 18 7 24 8 8 8 14 0 22 -8 8 -13 8 -18 -1z M9506 5551 c-4 -5 -2 -12 4 -16 5 -3 10 -3 10 1 0 3 7 1 15 -6 9 -7 18 -10 22 -7 3 4 12 2 20 -4 7 -6 13 -8 13 -4 0 4 7 2 15 -5 8 -7 15 -9 15 -5 0 4 6 2 14 -4 10 -8 16 -9 21 -1 3 5 4 11 1 11 -16 4 -26 7 -31 9 -3 1 -9 4 -15 5 -5 1 -12 4 -15 5 -3 1 -8 3 -12 4 -5 1 -14 5 -21 10 -7 4 -16 5 -19 2 -3 -3 -12 -1 -19 5 -8 6 -14 6 -18 0z M4340 5520 c-15 -27 -1 -49 15 -26 11 15 41 17 274 17 144 0 266 -3 271 -6 5 -3 11 -1 14 4 16 25 -30 30 -292 30 -261 0 -272 0 -282 -19z M5807 5534 c-19 -20 28 -24 267 -24 186 0 265 -3 274 -12 13 -13 28 14 17 32 -7 11 -547 15 -558 4z M6825 5530 c-11 -18 20 -19 423 -19 227 0 416 -2 421 -6 5 -3 12 -1 16 4 3 6 -3 14 -13 20 -23 12 -839 14 -847 1z M9685 5490 c-3 -5 12 -18 34 -30 23 -11 42 -16 46 -10 3 5 -12 18 -34 30 -23 11 -42 16 -46 10z M8707 5449 c-21 -11 -35 -24 -32 -29 4 -6 23 -1 46 10 22 12 37 25 34 30 -7 12 -2 13 -48 -11z M5784 5446 c-4 -10 -2 -22 4 -28 8 -8 13 -7 18 6 4 10 2 22 -4 28 -8 8 -13 7 -18 -6z M3575 5430 c-4 -6 -4 -14 -1 -17 3 -3 1 -12 -5 -19 -6 -7 -8 -18 -4 -24 9 -14 28 -1 21 15 -2 7 1 18 7 24 8 8 8 14 0 22 -8 8 -13 8 -18 -1z M10304 5356 c-4 -10 -2 -22 4 -28 8 -8 13 -7 18 6 4 10 2 22 -4 28 -8 8 -13 7 -18 -6z M5764 5336 c-4 -10 -2 -22 4 -28 8 -8 13 -7 18 6 4 10 2 22 -4 28 -8 8 -13 7 -18 -6z M8441 5266 c-13 -13 -18 -26 -13 -30 5 -3 19 5 31 18 13 13 18 26 13 30 -5 3 -19 -5 -31 -18z M4274 5186 c-4 -10 -2 -22 4 -28 8 -8 13 -7 18 6 4 10 2 22 -4 28 -8 8 -13 7 -18 -6z M8336 5161 c-15 -16 -23 -31 -18 -35 5 -3 21 8 36 23 15 16 23 31 18 35 -5 3 -21 -8 -36 -23z M935 5160 c-3 -6 0 -12 7 -15 26 -10 1113 0 1111 10 -4 14 -1109 19 -1118 5z M6738 5113 c-18 -34 -5 -38 150 -43 85 -3 156 -2 159 3 13 21 -18 27 -146 27 -85 0 -141 4 -148 11 -6 6 -13 7 -15 2z M9255 5110 c-8 -13 20 -24 41 -16 20 8 9 26 -16 26 -10 0 -22 -5 -25 -10z M9395 5110 c-8 -13 20 -24 41 -16 20 8 9 26 -16 26 -10 0 -22 -5 -25 -10z M9102 5078 c-7 -7 -12 -8 -12 -4 0 5 -7 3 -15 -4 -8 -7 -15 -10 -15 -6 0 3 -23 -5 -50 -19 -28 -14 -48 -30 -45 -35 4 -6 29 2 58 17 29 15 55 28 60 29 4 1 9 3 12 4 3 1 10 3 15 4 6 0 10 5 11 9 1 15 -7 17 -19 5z M9556 5061 c-3 -5 5 -16 19 -25 24 -16 45 -6 22 11 -24 19 -36 23 -41 14z M6244 4986 c-4 -10 -2 -22 4 -28 8 -8 13 -7 18 6 4 10 2 22 -4 28 -8 8 -13 7 -18 -6z M8866 4951 c-10 -11 -13 -22 -8 -25 5 -3 17 3 26 13 10 11 13 22 8 25 -5 3 -17 -3 -26 -13z M2925 4930 c-4 -6 -4 -14 -1 -17 3 -3 1 -12 -5 -19 -6 -7 -8 -18 -4 -24 9 -14 28 -1 21 15 -2 7 1 18 7 24 8 8 8 14 0 22 -8 8 -13 8 -18 -1z M8125 4850 c-19 -38 -33 -70 -30 -70 3 0 -2 -11 -11 -25 -9 -14 -13 -25 -10 -25 4 0 -1 -11 -10 -25 -9 -14 -13 -25 -9 -25 4 0 2 -7 -5 -15 -7 -8 -9 -15 -5 -15 4 0 2 -6 -4 -14 -8 -10 -9 -16 -1 -21 5 -3 11 -4 11 -1 4 16 7 26 9 31 1 3 3 8 4 13 1 4 7 17 14 30 7 12 10 22 7 22 -3 0 3 12 12 27 10 15 17 28 15 30 -1 2 14 34 33 73 19 38 31 72 25 75 -5 3 -25 -26 -45 -65z M8766 4851 c-10 -11 -13 -22 -8 -25 5 -3 17 3 26 13 10 11 13 22 8 25 -5 3 -17 -3 -26 -13z M1956 4701 c-5 -8 -171 -11 -555 -11 -475 0 -550 -2 -561 -15 -7 -8 -9 -15 -4 -15 379 -7 1121 3 1133 15 11 11 12 18 4 26 -8 8 -13 8 -17 0z M244 4626 c-4 -10 -2 -22 4 -28 8 -8 13 -7 18 6 4 10 2 22 -4 28 -8 8 -13 7 -18 -6z M5634 4606 c-4 -10 -2 -22 4 -28 8 -8 13 -7 18 6 4 10 2 22 -4 28 -8 8 -13 7 -18 -6z M4164 4596 c-4 -10 -2 -22 4 -28 8 -8 13 -7 18 6 4 10 2 22 -4 28 -8 8 -13 7 -18 -6z M8619 4606 c-1 -3 -2 -9 -3 -13 -1 -5 -7 -18 -14 -30 -7 -13 -8 -24 -3 -28 6 -3 15 4 21 15 6 11 8 20 4 20 -3 0 -1 6 5 14 8 10 9 16 1 21 -5 3 -11 4 -11 1z M8005 4520 c-4 -6 -4 -14 -1 -17 3 -3 1 -12 -5 -19 -6 -7 -8 -18 -4 -24 9 -14 28 -1 21 15 -2 7 1 18 7 24 8 8 8 14 0 22 -8 8 -13 8 -18 -1z M794 4456 c-4 -10 -2 -22 4 -28 8 -8 13 -7 18 6 4 10 2 22 -4 28 -8 8 -13 7 -18 -6z M5604 4436 c-4 -10 -2 -22 4 -28 8 -8 13 -7 18 6 4 10 2 22 -4 28 -8 8 -13 7 -18 -6z M8544 4336 c-8 -21 3 -49 16 -41 5 3 10 15 10 25 0 25 -18 36 -26 16z M9566 4301 c-4 -6 -5 -15 -1 -20 3 -5 0 -13 -6 -16 -5 -4 -8 -13 -5 -21 3 -7 1 -16 -5 -20 -6 -3 -8 -12 -5 -20 3 -7 1 -16 -5 -19 -5 -4 -7 -11 -3 -16 3 -5 10 -7 15 -3 5 3 7 9 4 14 -3 5 0 12 6 15 5 4 8 13 5 21 -3 7 -1 16 5 20 6 3 8 12 5 19 -2 7 1 18 7 24 8 8 8 14 0 22 -8 8 -13 8 -17 0z M7964 4287 c-7 -20 -2 -47 11 -50 14 -3 19 43 6 56 -7 7 -12 6 -17 -6z M4654 4246 c-4 -10 -2 -22 4 -28 8 -8 13 -7 18 6 4 10 2 22 -4 28 -8 8 -13 7 -18 -6z M8537 4253 c-10 -16 -2 -198 8 -198 12 0 17 193 5 200 -5 3 -11 2 -13 -2z M2774 4206 c-4 -10 -2 -22 4 -28 8 -8 13 -7 18 6 4 10 2 22 -4 28 -8 8 -13 7 -18 -6z M7414 4196 c-4 -10 -2 -22 4 -28 8 -8 13 -7 18 6 4 10 2 22 -4 28 -8 8 -13 7 -18 -6z M5555 4160 c-4 -6 -4 -14 -1 -17 3 -3 1 -12 -5 -20 -6 -7 -8 -13 -4 -13 4 0 2 -7 -5 -15 -7 -8 -9 -15 -5 -15 4 0 2 -6 -4 -14 -8 -10 -9 -16 -1 -21 5 -3 11 -4 11 -1 1 3 2 9 3 14 1 4 5 13 9 20 5 6 5 12 1 12 -3 0 -1 7 6 15 7 8 9 15 5 15 -4 0 -2 7 5 15 9 11 10 19 3 26 -8 8 -13 7 -18 -1z M7955 4158 c-9 -24 -1 -188 10 -191 14 -3 19 183 6 196 -7 7 -12 5 -16 -5z M9529 4146 c-4 -16 -7 -26 -9 -31 -1 -3 -3 -8 -4 -12 -1 -5 -7 -18 -14 -30 -7 -13 -10 -23 -7 -23 3 0 -2 -11 -10 -24 -10 -15 -12 -26 -6 -30 5 -4 15 3 21 14 6 11 8 20 5 20 -3 0 2 11 11 25 9 14 13 25 9 25 -4 0 -2 7 5 15 7 8 9 15 5 15 -4 0 -2 6 4 14 8 10 9 16 1 21 -5 3 -11 4 -11 1z M2744 4026 c-4 -10 -2 -22 4 -28 8 -8 13 -7 18 6 4 10 2 22 -4 28 -8 8 -13 7 -18 -6z M10064 4026 c-4 -10 -2 -22 4 -28 8 -8 13 -7 18 6 4 10 2 22 -4 28 -8 8 -13 7 -18 -6z M4605 3948 c-9 -24 -1 -103 10 -103 14 0 19 95 6 108 -7 7 -12 5 -16 -5z M4046 3942 c-7 -12 -1 -47 9 -47 12 0 16 43 6 50 -5 3 -12 2 -15 -3z M8555 3940 c-4 -6 -1 -17 5 -25 7 -8 9 -15 5 -15 -4 0 -2 -7 5 -15 7 -8 9 -15 5 -15 -4 0 -2 -7 5 -15 7 -8 9 -15 6 -15 -4 0 -2 -9 4 -20 6 -11 15 -18 21 -15 5 4 4 15 -3 28 -7 12 -13 25 -14 30 -1 4 -3 9 -4 12 -1 3 -3 9 -4 14 0 5 -4 12 -8 16 -4 4 -4 13 -2 20 7 16 -12 29 -21 15z M7964 3896 c-4 -10 -2 -22 4 -28 8 -8 13 -7 18 6 4 10 2 22 -4 28 -8 8 -13 7 -18 -6z M2724 3876 c-8 -21 3 -49 16 -41 5 3 10 15 10 25 0 25 -18 36 -26 16z M3264 3846 c-4 -10 -2 -22 4 -28 8 -8 13 -7 18 6 4 10 2 22 -4 28 -8 8 -13 7 -18 -6z M5361 3806 c-18 -19 -29 -36 -23 -39 5 -4 23 9 41 27 18 19 29 36 23 39 -5 4 -23 -9 -41 -27z M9316 3761 c-21 -21 -34 -41 -29 -44 6 -4 27 11 47 32 21 21 34 41 29 44 -6 4 -27 -11 -47 -32z M2716 3768 c-9 -27 -1 -203 9 -201 13 4 16 201 4 209 -5 3 -11 -1 -13 -8z M3255 3758 c-9 -22 -2 -68 10 -71 14 -3 19 63 6 76 -7 7 -12 5 -16 -5z M7997 3744 c-4 -4 -3 -12 1 -18 4 -6 7 -14 8 -18 1 -5 3 -10 4 -13 1 -3 3 -9 4 -15 0 -5 4 -10 9 -10 4 0 10 0 13 0 4 0 1 7 -6 15 -7 8 -9 15 -5 15 4 0 1 7 -6 17 -8 9 -12 18 -11 20 6 8 -4 13 -11 7z M4656 3722 c-3 -5 5 -19 18 -31 13 -13 26 -18 30 -13 3 5 -5 19 -18 31 -13 13 -26 18 -30 13z M5193 3685 c-24 -13 -43 -21 -43 -18 0 3 -7 0 -15 -7 -8 -7 -15 -9 -15 -4 0 4 -5 3 -11 -3 -6 -6 -17 -9 -24 -7 -16 7 -29 -12 -15 -21 6 -4 17 -1 25 5 8 7 15 9 15 5 0 -4 7 -2 15 5 8 7 15 9 15 5 0 -4 7 -2 15 5 8 7 15 10 15 6 0 -4 18 3 40 14 23 12 38 25 35 30 -8 12 -3 14 -52 -15z M9183 3665 c-24 -13 -43 -21 -43 -17 0 3 -5 1 -11 -5 -6 -6 -17 -9 -24 -7 -16 7 -29 -12 -15 -21 6 -4 17 -1 25 5 8 7 15 9 15 5 0 -4 7 -2 15 5 8 7 15 10 15 6 0 -4 18 3 40 14 23 12 38 25 35 30 -8 12 -3 14 -52 -15z M8735 3670 c-3 -5 8 -16 25 -25 16 -8 30 -13 30 -9 0 4 7 1 15 -6 8 -7 15 -9 15 -5 0 4 7 2 15 -5 8 -6 19 -9 25 -5 14 9 1 28 -15 21 -7 -2 -16 -2 -20 2 -4 4 -10 7 -13 7 -4 1 -21 9 -39 18 -19 10 -34 13 -38 7z M3254 3636 c-8 -21 3 -49 16 -41 5 3 10 15 10 25 0 25 -18 36 -26 16z M5005 3630 c-8 -12 20 -24 35 -15 6 3 8 11 5 16 -8 12 -32 12 -40 -1z M8037 3634 c-9 -10 42 -106 53 -99 6 4 -1 27 -15 56 -27 51 -28 53 -38 43z M8885 3620 c-8 -13 20 -24 41 -16 20 8 9 26 -16 26 -10 0 -22 -5 -25 -10z M9025 3620 c-8 -12 20 -24 35 -15 6 3 8 11 5 16 -8 12 -32 12 -40 -1z M7304 3606 c-4 -10 -2 -22 4 -28 8 -8 13 -7 18 6 4 10 2 22 -4 28 -8 8 -13 7 -18 -6z M4067 3594 c-4 -4 -3 -12 1 -18 4 -6 7 -14 8 -18 1 -5 3 -10 4 -13 1 -3 3 -9 4 -15 0 -5 4 -10 9 -10 4 0 10 0 13 0 4 0 1 7 -6 15 -7 8 -9 15 -5 15 4 0 1 7 -6 17 -8 9 -12 18 -11 20 6 8 -4 13 -11 7z M634 3576 c-4 -10 -2 -22 4 -28 8 -8 13 -7 18 6 4 10 2 22 -4 28 -8 8 -13 7 -18 -6z M9406 3401 c-21 -23 -6 -36 20 -16 14 10 16 17 8 25 -7 7 -15 5 -28 -9z M5399 3373 c-1 -4 -1 -12 0 -16 1 -4 -5 -7 -13 -5 -8 2 -15 -1 -15 -7 -1 -5 9 -9 21 -9 22 0 34 29 17 40 -5 3 -10 2 -10 -3z M4186 3362 c-3 -5 8 -21 23 -36 16 -15 31 -23 35 -18 3 5 -8 21 -23 36 -16 15 -31 23 -35 18z M8236 3362 c-3 -5 3 -17 13 -26 11 -10 22 -13 25 -8 3 5 -3 17 -13 26 -11 10 -22 13 -25 8z M8345 3280 c-3 -5 17 -21 45 -35 27 -14 50 -23 50 -20 0 3 11 -2 25 -11 14 -9 25 -13 25 -9 0 4 6 2 14 -4 10 -8 16 -9 21 -1 3 5 4 11 1 11 -3 1 -9 2 -13 3 -5 1 -19 8 -33 16 -14 7 -26 13 -28 12 -1 -1 -24 9 -52 23 -28 14 -51 21 -55 15z M3353 3235 c-24 -13 -43 -21 -43 -17 0 3 -5 1 -11 -5 -6 -6 -17 -9 -24 -7 -16 7 -29 -12 -15 -21 6 -4 17 -1 25 5 8 7 15 9 15 5 0 -4 7 -2 15 5 8 7 15 10 15 6 0 -4 18 3 40 14 23 12 38 25 35 30 -8 12 -3 14 -52 -15z M5377 3253 c-7 -13 -1 -58 8 -56 11 4 16 51 5 58 -5 3 -11 2 -13 -2z M9387 3253 c-2 -5 -4 -19 -2 -33 l2 -25 271 0 c176 0 271 4 269 10 -1 6 -98 11 -262 12 -226 1 -260 3 -257 16 3 17 -14 32 -21 20z M573 3236 c-7 -13 -43 -16 -256 -18 -339 -4 -336 -22 5 -26 253 -2 257 -2 268 19 14 26 -3 50 -17 25z M2915 3240 c-3 -5 8 -16 25 -25 16 -8 30 -13 30 -9 0 4 7 1 15 -6 8 -7 15 -9 15 -5 0 4 6 2 14 -4 10 -8 16 -9 21 -1 3 5 4 11 1 11 -16 4 -26 7 -31 9 -3 1 -8 3 -12 4 -5 1 -22 10 -40 19 -19 10 -34 13 -38 7z M5146 3243 c-4 -5 -12 -9 -17 -9 -5 -1 -11 -3 -14 -4 -3 -1 -9 -3 -15 -4 -5 0 -10 -4 -10 -8 0 -5 0 -11 0 -14 0 -4 7 -1 15 6 8 7 15 9 15 5 0 -4 6 -3 13 3 6 6 15 11 20 11 8 1 11 11 5 17 -3 2 -8 1 -12 -3z M4365 3230 c-3 -5 8 -16 25 -25 16 -8 30 -13 30 -9 0 4 6 1 14 -5 10 -8 16 -9 21 -1 3 5 4 11 1 11 -3 1 -9 2 -13 3 -5 1 -22 10 -40 19 -19 10 -34 13 -38 7z M7234 3230 c-7 -7 -106 -12 -270 -13 -165 -1 -259 -6 -259 -12 0 -18 531 -17 546 1 15 18 -1 40 -17 24z M9156 3223 c-4 -5 -12 -9 -17 -9 -5 -1 -11 -3 -14 -4 -3 -1 -9 -3 -15 -4 -5 0 -10 -4 -10 -8 0 -5 0 -11 0 -14 0 -4 7 -1 15 6 8 7 15 9 15 5 0 -4 6 -3 13 3 6 6 15 11 20 11 8 1 11 11 5 17 -3 2 -8 1 -12 -3z M5425 3210 c-3 -6 0 -12 7 -15 26 -10 503 0 501 10 -4 14 -499 19 -508 5z M3065 3191 c-3 -5 -2 -12 3 -15 12 -7 47 -1 47 9 0 12 -43 16 -50 6z M3185 3190 c-8 -13 20 -24 41 -16 20 8 9 26 -16 26 -10 0 -22 -5 -25 -10z M8635 3180 c-8 -12 20 -24 35 -15 6 3 8 11 5 16 -8 12 -32 12 -40 -1z M8995 3180 c-8 -12 20 -24 35 -15 6 3 8 11 5 16 -8 12 -32 12 -40 -1z M4575 3171 c-7 -13 17 -24 40 -19 9 1 16 8 16 13 0 14 -48 19 -56 6z M4745 3169 c-8 -12 6 -16 45 -15 19 1 35 6 35 11 0 12 -73 16 -80 4z M8715 3171 c-3 -5 -2 -12 3 -15 12 -7 62 -1 65 9 3 11 -61 17 -68 6z M8874 3168 c-6 -10 6 -14 41 -13 17 0 30 5 30 10 0 11 -64 14 -71 3z"/>
  </g>
</svg>